<mxfile host="Electron" modified="2023-06-20T09:40:10.914Z" agent="Mozilla/5.0 (Windows NT 10.0; Win64; x64) AppleWebKit/537.36 (KHTML, like Gecko) draw.io/21.5.0 Chrome/112.0.5615.204 Electron/24.5.1 Safari/537.36" etag="H6ndGeyN6SunZ9QoCdwU" version="21.5.0" type="device">
  <diagram id="bK6ErVjp80GN6BHpLzJ9" name="Page-1">
    <mxGraphModel dx="724" dy="440" grid="1" gridSize="10" guides="1" tooltips="1" connect="1" arrows="1" fold="1" page="1" pageScale="1" pageWidth="1100" pageHeight="850" math="0" shadow="0">
      <root>
        <mxCell id="0" />
        <mxCell id="1" parent="0" />
        <mxCell id="nbHJa0xWLCRpVppI_XhF-118" value="" style="ellipse;whiteSpace=wrap;html=1;fontSize=13;fillColor=#FFCCCC;strokeColor=#FF0000;strokeWidth=0.5;" parent="1" vertex="1">
          <mxGeometry x="99" y="71" width="20" height="10" as="geometry" />
        </mxCell>
        <mxCell id="nbHJa0xWLCRpVppI_XhF-105" value="15" style="text;html=1;strokeColor=none;fillColor=none;align=center;verticalAlign=middle;whiteSpace=wrap;rounded=0;fontSize=8;fontColor=#66B2FF;connectable=0;allowArrows=0;" parent="1" vertex="1">
          <mxGeometry x="79.5" y="389.98" width="10" height="10" as="geometry" />
        </mxCell>
        <mxCell id="YRXxGtV2YS8mq-nOVd_1-21" value="" style="endArrow=none;html=1;rounded=0;strokeWidth=0.5;strokeColor=#999999;dashed=1;dashPattern=1 1;" parent="1" edge="1">
          <mxGeometry width="50" height="50" relative="1" as="geometry">
            <mxPoint x="90" y="70" as="sourcePoint" />
            <mxPoint x="120" y="310" as="targetPoint" />
            <Array as="points">
              <mxPoint x="80" y="80" />
              <mxPoint x="80" y="300" />
              <mxPoint x="90" y="310" />
            </Array>
          </mxGeometry>
        </mxCell>
        <mxCell id="xQ5OIZUcRNyhNX2FEhi8-208" value="" style="endArrow=none;html=1;rounded=0;strokeWidth=0.5;strokeColor=#999999;dashed=1;" parent="1" edge="1">
          <mxGeometry width="50" height="50" relative="1" as="geometry">
            <mxPoint x="1029.5" y="550.25" as="sourcePoint" />
            <mxPoint x="1179.5" y="639.25" as="targetPoint" />
            <Array as="points">
              <mxPoint x="1029.5" y="639.25" />
            </Array>
          </mxGeometry>
        </mxCell>
        <mxCell id="xQ5OIZUcRNyhNX2FEhi8-192" value="" style="ellipse;whiteSpace=wrap;html=1;aspect=fixed;strokeWidth=2;" parent="1" vertex="1">
          <mxGeometry x="790" y="549" width="121" height="121" as="geometry" />
        </mxCell>
        <mxCell id="ccODbXn0507IZ0daL7nA-18" value="" style="group;dropTarget=0;" parent="1" vertex="1" connectable="0">
          <mxGeometry x="540" y="479.25" width="80" height="69" as="geometry" />
        </mxCell>
        <mxCell id="ccODbXn0507IZ0daL7nA-19" value="" style="endArrow=classic;startArrow=oval;html=1;rounded=0;strokeColor=#808080;strokeWidth=0.5;startFill=1;endSize=3;startSize=3;entryX=0.513;entryY=0.375;entryDx=0;entryDy=0;entryPerimeter=0;" parent="ccODbXn0507IZ0daL7nA-18" target="TrXFUpIVHRMqHzc0mzot-49" edge="1">
          <mxGeometry width="50" height="50" relative="1" as="geometry">
            <mxPoint x="30" y="50" as="sourcePoint" />
            <mxPoint x="30" y="16.75" as="targetPoint" />
          </mxGeometry>
        </mxCell>
        <mxCell id="ccODbXn0507IZ0daL7nA-20" value="" style="endArrow=classic;startArrow=oval;html=1;rounded=0;strokeColor=#808080;strokeWidth=0.5;startFill=1;endSize=3;startSize=6;" parent="ccODbXn0507IZ0daL7nA-18" edge="1">
          <mxGeometry width="50" height="50" relative="1" as="geometry">
            <mxPoint x="30" y="50" as="sourcePoint" />
            <mxPoint x="70" y="50" as="targetPoint" />
          </mxGeometry>
        </mxCell>
        <mxCell id="ccODbXn0507IZ0daL7nA-21" value="" style="endArrow=classic;startArrow=oval;html=1;rounded=0;strokeColor=#808080;strokeWidth=0.5;startFill=1;endSize=3;startSize=3;" parent="ccODbXn0507IZ0daL7nA-18" edge="1">
          <mxGeometry width="50" height="50" relative="1" as="geometry">
            <mxPoint x="30" y="50" as="sourcePoint" />
            <mxPoint x="18" y="56.75" as="targetPoint" />
          </mxGeometry>
        </mxCell>
        <mxCell id="ccODbXn0507IZ0daL7nA-23" value="&lt;font style=&quot;font-size: 13px;&quot;&gt;x&lt;/font&gt;" style="text;html=1;strokeColor=none;fillColor=none;align=center;verticalAlign=bottom;whiteSpace=wrap;rounded=0;dashed=1;strokeWidth=0.3;rotation=0;connectable=0;allowArrows=0;spacing=0;fontColor=#808080;fontSize=13;fontFamily=Calibri Light;" parent="ccODbXn0507IZ0daL7nA-18" vertex="1">
          <mxGeometry x="64" y="47" width="20" height="10" as="geometry" />
        </mxCell>
        <mxCell id="ccODbXn0507IZ0daL7nA-24" value="&lt;font style=&quot;font-size: 13px;&quot;&gt;z&lt;/font&gt;" style="text;html=1;strokeColor=none;fillColor=none;align=center;verticalAlign=bottom;whiteSpace=wrap;rounded=0;dashed=1;strokeWidth=0.3;rotation=0;connectable=0;allowArrows=0;spacing=0;fontColor=#808080;fontSize=13;fontFamily=Calibri Light;" parent="ccODbXn0507IZ0daL7nA-18" vertex="1">
          <mxGeometry x="3" y="53.75" width="20" height="10" as="geometry" />
        </mxCell>
        <mxCell id="Pl7IlCsuC_TJ1haGHuE9-49" value="" style="ellipse;whiteSpace=wrap;html=1;strokeWidth=0.5;fillColor=none;labelBackgroundColor=default;endArrow=none;fontSize=11;rounded=0;strokeColor=#999999;dashed=1;" parent="1" vertex="1">
          <mxGeometry x="488" y="508" width="160" height="37" as="geometry" />
        </mxCell>
        <mxCell id="TrXFUpIVHRMqHzc0mzot-49" value="" style="shape=cylinder3;whiteSpace=wrap;html=1;boundedLbl=1;backgroundOutline=1;size=18.503598669172646;rotation=0;fillColor=none;strokeWidth=2;" parent="1" vertex="1">
          <mxGeometry x="488" y="473" width="160" height="72" as="geometry" />
        </mxCell>
        <mxCell id="Pl7IlCsuC_TJ1haGHuE9-48" value="" style="ellipse;whiteSpace=wrap;html=1;strokeWidth=0.5;fillColor=none;labelBackgroundColor=default;endArrow=none;fontSize=11;rounded=0;strokeColor=#999999;dashed=1;" parent="1" vertex="1">
          <mxGeometry x="462" y="312" width="15" height="37" as="geometry" />
        </mxCell>
        <mxCell id="TrXFUpIVHRMqHzc0mzot-1" value="" style="shape=cylinder3;whiteSpace=wrap;html=1;boundedLbl=1;backgroundOutline=1;size=7.666656494140511;rotation=90;fillColor=none;connectable=0;strokeWidth=2;" parent="1" vertex="1">
          <mxGeometry x="548.38" y="226.12" width="37" height="208.75" as="geometry" />
        </mxCell>
        <mxCell id="5A5QTYU6ezY7px4SmfUT-1" value="" style="ellipse;whiteSpace=wrap;html=1;fontSize=13;fillColor=#FFCCCC;strokeColor=#FF0000;strokeWidth=0.5;" parent="1" vertex="1">
          <mxGeometry x="559.65" y="485" width="20" height="10" as="geometry" />
        </mxCell>
        <mxCell id="TrXFUpIVHRMqHzc0mzot-36" value="" style="shape=cylinder3;whiteSpace=wrap;html=1;boundedLbl=1;backgroundOutline=1;size=18.503598669172646;rotation=-119.2;fillColor=none;strokeWidth=2;" parent="1" vertex="1">
          <mxGeometry x="588.77" y="20.5" width="37" height="223" as="geometry" />
        </mxCell>
        <mxCell id="TrXFUpIVHRMqHzc0mzot-56" value="" style="ellipse;whiteSpace=wrap;html=1;fontSize=13;fillColor=#FFCCCC;strokeColor=#FF0000;strokeWidth=0.5;" parent="1" vertex="1">
          <mxGeometry x="547" y="325" width="20" height="10" as="geometry" />
        </mxCell>
        <mxCell id="TrXFUpIVHRMqHzc0mzot-50" value="" style="ellipse;whiteSpace=wrap;html=1;fontSize=13;fillColor=#FFCCCC;strokeColor=#FF0000;strokeWidth=0.5;" parent="1" vertex="1">
          <mxGeometry x="600" y="128" width="20" height="10" as="geometry" />
        </mxCell>
        <mxCell id="Pl7IlCsuC_TJ1haGHuE9-47" value="" style="ellipse;whiteSpace=wrap;html=1;strokeWidth=0.5;fillColor=none;labelBackgroundColor=default;endArrow=none;fontSize=11;rounded=0;strokeColor=#999999;dashed=1;" parent="1" vertex="1">
          <mxGeometry x="669.77" y="68.5" width="37" height="37" as="geometry" />
        </mxCell>
        <mxCell id="Pl7IlCsuC_TJ1haGHuE9-1" value="" style="rounded=0;whiteSpace=wrap;html=1;fillColor=none;connectable=0;labelBackgroundColor=default;endArrow=none;fontSize=11;dashed=1;strokeWidth=0.5;" parent="1" vertex="1">
          <mxGeometry x="780" y="30" width="440" height="260" as="geometry" />
        </mxCell>
        <mxCell id="Pl7IlCsuC_TJ1haGHuE9-31" value="" style="rounded=0;whiteSpace=wrap;html=1;fillColor=none;connectable=0;labelBackgroundColor=default;endArrow=none;fontSize=11;dashed=1;strokeWidth=0.5;" parent="1" vertex="1">
          <mxGeometry x="840" y="60" width="220" height="210" as="geometry" />
        </mxCell>
        <mxCell id="YRXxGtV2YS8mq-nOVd_1-19" value="" style="endArrow=none;html=1;rounded=0;strokeColor=#000000;strokeWidth=2;fontSize=8;fontColor=#007FFF;" parent="1" edge="1">
          <mxGeometry width="50" height="50" relative="1" as="geometry">
            <mxPoint x="100" y="320" as="sourcePoint" />
            <mxPoint x="120" y="310" as="targetPoint" />
          </mxGeometry>
        </mxCell>
        <mxCell id="YRXxGtV2YS8mq-nOVd_1-14" value="&lt;font style=&quot;font-size: 13px;&quot;&gt;thickness&lt;/font&gt;" style="text;html=1;strokeColor=none;fillColor=none;align=left;verticalAlign=middle;whiteSpace=wrap;rounded=0;dashed=1;strokeWidth=0.3;rotation=0;connectable=0;allowArrows=0;fontSize=13;fontFamily=Calibri Light;fontColor=#808080;" parent="1" vertex="1">
          <mxGeometry x="72" y="199" width="60" height="20" as="geometry" />
        </mxCell>
        <mxCell id="YRXxGtV2YS8mq-nOVd_1-15" value="" style="endArrow=none;html=1;rounded=0;strokeWidth=2;" parent="1" edge="1">
          <mxGeometry width="50" height="50" relative="1" as="geometry">
            <mxPoint x="70" y="80" as="sourcePoint" />
            <mxPoint x="120" y="310" as="targetPoint" />
            <Array as="points">
              <mxPoint x="90" y="70" />
              <mxPoint x="120" y="70" />
              <mxPoint x="160" y="110" />
              <mxPoint x="160" y="270" />
            </Array>
          </mxGeometry>
        </mxCell>
        <mxCell id="YRXxGtV2YS8mq-nOVd_1-16" value="" style="endArrow=none;html=1;rounded=0;strokeColor=#000000;strokeWidth=2;fontSize=8;fontColor=#007FFF;" parent="1" edge="1">
          <mxGeometry width="50" height="50" relative="1" as="geometry">
            <mxPoint x="140" y="120" as="sourcePoint" />
            <mxPoint x="160" y="110" as="targetPoint" />
          </mxGeometry>
        </mxCell>
        <mxCell id="YRXxGtV2YS8mq-nOVd_1-17" value="" style="endArrow=none;html=1;rounded=0;strokeColor=#000000;strokeWidth=2;fontSize=8;fontColor=#007FFF;" parent="1" edge="1">
          <mxGeometry width="50" height="50" relative="1" as="geometry">
            <mxPoint x="100" y="80" as="sourcePoint" />
            <mxPoint x="120" y="70" as="targetPoint" />
          </mxGeometry>
        </mxCell>
        <mxCell id="YRXxGtV2YS8mq-nOVd_1-18" value="" style="endArrow=none;html=1;rounded=0;strokeColor=#000000;strokeWidth=2;fontSize=8;fontColor=#007FFF;" parent="1" edge="1">
          <mxGeometry width="50" height="50" relative="1" as="geometry">
            <mxPoint x="140" y="280" as="sourcePoint" />
            <mxPoint x="160" y="270" as="targetPoint" />
          </mxGeometry>
        </mxCell>
        <mxCell id="YRXxGtV2YS8mq-nOVd_1-22" value="" style="endArrow=none;html=1;rounded=0;strokeColor=#999999;strokeWidth=0.5;fontSize=8;fontColor=#007FFF;dashed=1;dashPattern=1 1;" parent="1" edge="1">
          <mxGeometry width="50" height="50" relative="1" as="geometry">
            <mxPoint x="70" y="320" as="sourcePoint" />
            <mxPoint x="90" y="310" as="targetPoint" />
          </mxGeometry>
        </mxCell>
        <mxCell id="YRXxGtV2YS8mq-nOVd_1-23" value="" style="endArrow=none;html=1;rounded=0;strokeColor=#999999;strokeWidth=0.5;fontSize=8;fontColor=#007FFF;dashed=1;dashPattern=1 1;" parent="1" edge="1">
          <mxGeometry width="50" height="50" relative="1" as="geometry">
            <mxPoint x="60" y="310" as="sourcePoint" />
            <mxPoint x="80" y="300" as="targetPoint" />
          </mxGeometry>
        </mxCell>
        <mxCell id="YRXxGtV2YS8mq-nOVd_1-24" value="" style="endArrow=none;html=1;rounded=0;strokeColor=#999999;strokeWidth=0.5;fontSize=8;fontColor=#007FFF;dashed=1;dashPattern=1 1;" parent="1" edge="1">
          <mxGeometry width="50" height="50" relative="1" as="geometry">
            <mxPoint x="60" y="90" as="sourcePoint" />
            <mxPoint x="80" y="80" as="targetPoint" />
          </mxGeometry>
        </mxCell>
        <mxCell id="YRXxGtV2YS8mq-nOVd_1-26" value="&lt;font style=&quot;font-size: 13px;&quot;&gt;width&lt;/font&gt;" style="text;html=1;strokeColor=none;fillColor=none;align=left;verticalAlign=middle;whiteSpace=wrap;rounded=0;dashed=1;strokeWidth=0.3;rotation=0;connectable=0;allowArrows=0;fontSize=13;fontFamily=Calibri Light;fontColor=#808080;" parent="1" vertex="1">
          <mxGeometry x="164" y="181" width="32" height="20" as="geometry" />
        </mxCell>
        <mxCell id="YRXxGtV2YS8mq-nOVd_1-42" value="" style="endArrow=none;html=1;rounded=0;strokeColor=#000000;strokeWidth=2;fontSize=8;fontColor=#007FFF;" parent="1" edge="1">
          <mxGeometry width="50" height="50" relative="1" as="geometry">
            <mxPoint x="310" y="320" as="sourcePoint" />
            <mxPoint x="330" y="310" as="targetPoint" />
          </mxGeometry>
        </mxCell>
        <mxCell id="YRXxGtV2YS8mq-nOVd_1-47" value="" style="endArrow=none;html=1;rounded=0;strokeWidth=2;" parent="1" edge="1">
          <mxGeometry width="50" height="50" relative="1" as="geometry">
            <mxPoint x="280" y="80" as="sourcePoint" />
            <mxPoint x="330" y="310" as="targetPoint" />
            <Array as="points">
              <mxPoint x="300" y="70" />
              <mxPoint x="360" y="70" />
              <mxPoint x="370" y="80" />
              <mxPoint x="370" y="270" />
            </Array>
          </mxGeometry>
        </mxCell>
        <mxCell id="YRXxGtV2YS8mq-nOVd_1-48" value="" style="endArrow=none;html=1;rounded=0;strokeColor=#000000;strokeWidth=2;fontSize=8;fontColor=#007FFF;" parent="1" edge="1">
          <mxGeometry width="50" height="50" relative="1" as="geometry">
            <mxPoint x="350" y="90" as="sourcePoint" />
            <mxPoint x="370" y="80" as="targetPoint" />
          </mxGeometry>
        </mxCell>
        <mxCell id="YRXxGtV2YS8mq-nOVd_1-49" value="" style="endArrow=none;html=1;rounded=0;strokeColor=#000000;strokeWidth=2;fontSize=8;fontColor=#007FFF;" parent="1" edge="1">
          <mxGeometry width="50" height="50" relative="1" as="geometry">
            <mxPoint x="340" y="80" as="sourcePoint" />
            <mxPoint x="360" y="70" as="targetPoint" />
          </mxGeometry>
        </mxCell>
        <mxCell id="YRXxGtV2YS8mq-nOVd_1-50" value="" style="endArrow=none;html=1;rounded=0;strokeColor=#000000;strokeWidth=2;fontSize=8;fontColor=#007FFF;" parent="1" edge="1">
          <mxGeometry width="50" height="50" relative="1" as="geometry">
            <mxPoint x="350" y="280" as="sourcePoint" />
            <mxPoint x="370" y="270" as="targetPoint" />
          </mxGeometry>
        </mxCell>
        <mxCell id="YRXxGtV2YS8mq-nOVd_1-52" value="" style="endArrow=none;html=1;rounded=0;strokeWidth=0.5;strokeColor=#999999;dashed=1;dashPattern=1 1;" parent="1" edge="1">
          <mxGeometry width="50" height="50" relative="1" as="geometry">
            <mxPoint x="300.0000000000001" y="70" as="sourcePoint" />
            <mxPoint x="330" y="310" as="targetPoint" />
            <Array as="points">
              <mxPoint x="290" y="80" />
              <mxPoint x="290" y="300" />
              <mxPoint x="300" y="310" />
            </Array>
          </mxGeometry>
        </mxCell>
        <mxCell id="YRXxGtV2YS8mq-nOVd_1-53" value="" style="endArrow=none;html=1;rounded=0;strokeColor=#999999;strokeWidth=0.5;fontSize=8;fontColor=#007FFF;dashed=1;dashPattern=1 1;" parent="1" edge="1">
          <mxGeometry width="50" height="50" relative="1" as="geometry">
            <mxPoint x="280.0000000000001" y="320" as="sourcePoint" />
            <mxPoint x="300.0000000000001" y="310" as="targetPoint" />
          </mxGeometry>
        </mxCell>
        <mxCell id="YRXxGtV2YS8mq-nOVd_1-54" value="" style="endArrow=none;html=1;rounded=0;strokeColor=#999999;strokeWidth=0.5;fontSize=8;fontColor=#007FFF;dashed=1;dashPattern=1 1;" parent="1" edge="1">
          <mxGeometry width="50" height="50" relative="1" as="geometry">
            <mxPoint x="270.0000000000001" y="310" as="sourcePoint" />
            <mxPoint x="290.0000000000001" y="300" as="targetPoint" />
          </mxGeometry>
        </mxCell>
        <mxCell id="YRXxGtV2YS8mq-nOVd_1-55" value="" style="endArrow=none;html=1;rounded=0;strokeColor=#999999;strokeWidth=0.5;fontSize=8;fontColor=#007FFF;dashed=1;dashPattern=1 1;" parent="1" edge="1">
          <mxGeometry width="50" height="50" relative="1" as="geometry">
            <mxPoint x="270.0000000000001" y="90" as="sourcePoint" />
            <mxPoint x="290.0000000000001" y="80" as="targetPoint" />
          </mxGeometry>
        </mxCell>
        <mxCell id="vpAejxnzcTZlEBGnGHVq-13" value="EdgedFinger" style="text;html=1;strokeColor=none;fillColor=none;align=center;verticalAlign=middle;whiteSpace=wrap;rounded=0;fontStyle=1" parent="1" vertex="1">
          <mxGeometry x="12" y="10" width="98" height="30" as="geometry" />
        </mxCell>
        <mxCell id="vpAejxnzcTZlEBGnGHVq-14" value="EdgedTip" style="text;html=1;strokeColor=none;fillColor=none;align=center;verticalAlign=middle;whiteSpace=wrap;rounded=0;fontStyle=1" parent="1" vertex="1">
          <mxGeometry x="222" y="10" width="78" height="30" as="geometry" />
        </mxCell>
        <mxCell id="TrXFUpIVHRMqHzc0mzot-2" value="" style="group;dropTarget=0;" parent="1" vertex="1" connectable="0">
          <mxGeometry x="526.88" y="280" width="80" height="69" as="geometry" />
        </mxCell>
        <mxCell id="TrXFUpIVHRMqHzc0mzot-3" value="" style="endArrow=classic;startArrow=oval;html=1;rounded=0;strokeColor=#808080;strokeWidth=0.5;startFill=1;endSize=3;startSize=3;" parent="TrXFUpIVHRMqHzc0mzot-2" edge="1">
          <mxGeometry width="50" height="50" relative="1" as="geometry">
            <mxPoint x="30" y="50" as="sourcePoint" />
            <mxPoint x="30" y="10" as="targetPoint" />
          </mxGeometry>
        </mxCell>
        <mxCell id="TrXFUpIVHRMqHzc0mzot-4" value="" style="endArrow=classic;startArrow=oval;html=1;rounded=0;strokeColor=#808080;strokeWidth=0.5;startFill=1;endSize=3;startSize=6;" parent="TrXFUpIVHRMqHzc0mzot-2" edge="1">
          <mxGeometry width="50" height="50" relative="1" as="geometry">
            <mxPoint x="30" y="50" as="sourcePoint" />
            <mxPoint x="70" y="50" as="targetPoint" />
          </mxGeometry>
        </mxCell>
        <mxCell id="TrXFUpIVHRMqHzc0mzot-5" value="" style="endArrow=classic;startArrow=oval;html=1;rounded=0;strokeColor=#808080;strokeWidth=0.5;startFill=1;endSize=3;startSize=3;" parent="TrXFUpIVHRMqHzc0mzot-2" edge="1">
          <mxGeometry width="50" height="50" relative="1" as="geometry">
            <mxPoint x="30" y="50" as="sourcePoint" />
            <mxPoint x="10" y="60" as="targetPoint" />
          </mxGeometry>
        </mxCell>
        <mxCell id="TrXFUpIVHRMqHzc0mzot-6" value="&lt;font style=&quot;font-size: 13px;&quot;&gt;y&lt;/font&gt;" style="text;html=1;strokeColor=none;fillColor=none;align=center;verticalAlign=bottom;whiteSpace=wrap;rounded=0;dashed=1;strokeWidth=0.3;rotation=0;connectable=0;allowArrows=0;spacing=0;fontColor=#808080;fontSize=13;fontFamily=Calibri Light;" parent="TrXFUpIVHRMqHzc0mzot-2" vertex="1">
          <mxGeometry x="20" width="20" height="10" as="geometry" />
        </mxCell>
        <mxCell id="TrXFUpIVHRMqHzc0mzot-7" value="&lt;font style=&quot;font-size: 13px;&quot;&gt;x&lt;/font&gt;" style="text;html=1;strokeColor=none;fillColor=none;align=center;verticalAlign=bottom;whiteSpace=wrap;rounded=0;dashed=1;strokeWidth=0.3;rotation=0;connectable=0;allowArrows=0;spacing=0;fontColor=#808080;fontSize=13;fontFamily=Calibri Light;" parent="TrXFUpIVHRMqHzc0mzot-2" vertex="1">
          <mxGeometry x="64" y="47" width="20" height="10" as="geometry" />
        </mxCell>
        <mxCell id="TrXFUpIVHRMqHzc0mzot-8" value="&lt;font style=&quot;font-size: 13px;&quot;&gt;z&lt;/font&gt;" style="text;html=1;strokeColor=none;fillColor=none;align=center;verticalAlign=bottom;whiteSpace=wrap;rounded=0;dashed=1;strokeWidth=0.3;rotation=0;connectable=0;allowArrows=0;spacing=0;fontColor=#808080;fontSize=13;fontFamily=Calibri Light;" parent="TrXFUpIVHRMqHzc0mzot-2" vertex="1">
          <mxGeometry x="-6" y="60" width="20" height="10" as="geometry" />
        </mxCell>
        <mxCell id="TrXFUpIVHRMqHzc0mzot-9" value="&lt;font style=&quot;font-size: 13px;&quot;&gt;width&lt;/font&gt;" style="text;html=1;strokeColor=none;fillColor=none;align=center;verticalAlign=middle;whiteSpace=wrap;rounded=0;dashed=1;strokeWidth=0.3;rotation=0;connectable=0;allowArrows=0;fontSize=13;fontFamily=Calibri Light;fontColor=#808080;" parent="1" vertex="1">
          <mxGeometry x="540" y="360" width="50" height="17" as="geometry" />
        </mxCell>
        <mxCell id="TrXFUpIVHRMqHzc0mzot-10" value="" style="endArrow=classic;startArrow=classic;html=1;rounded=0;strokeColor=#808080;strokeWidth=0.5;endSize=3;startSize=3;fontColor=#808080;" parent="1" edge="1">
          <mxGeometry width="50" height="50" relative="1" as="geometry">
            <mxPoint x="465" y="360" as="sourcePoint" />
            <mxPoint x="665" y="360" as="targetPoint" />
          </mxGeometry>
        </mxCell>
        <mxCell id="TrXFUpIVHRMqHzc0mzot-57" value="MotorZ" style="text;html=1;strokeColor=none;fillColor=none;align=center;verticalAlign=middle;whiteSpace=wrap;rounded=0;fontStyle=1" parent="1" vertex="1">
          <mxGeometry x="430" y="9.999999999999993" width="80" height="30" as="geometry" />
        </mxCell>
        <mxCell id="TrXFUpIVHRMqHzc0mzot-58" value="MotorX" style="text;html=1;strokeColor=none;fillColor=none;align=center;verticalAlign=middle;whiteSpace=wrap;rounded=0;fontStyle=1" parent="1" vertex="1">
          <mxGeometry x="440" y="234" width="80" height="30" as="geometry" />
        </mxCell>
        <mxCell id="TrXFUpIVHRMqHzc0mzot-59" value="MotorY" style="text;html=1;strokeColor=none;fillColor=none;align=center;verticalAlign=middle;whiteSpace=wrap;rounded=0;fontStyle=1" parent="1" vertex="1">
          <mxGeometry x="440" y="404.87" width="80" height="30" as="geometry" />
        </mxCell>
        <mxCell id="TrXFUpIVHRMqHzc0mzot-61" value="" style="endArrow=none;html=1;rounded=0;strokeColor=#000000;strokeWidth=7;fontSize=12;fontColor=#000000;" parent="1" edge="1">
          <mxGeometry width="50" height="50" relative="1" as="geometry">
            <mxPoint x="440" y="230" as="sourcePoint" />
            <mxPoint x="760" y="230" as="targetPoint" />
          </mxGeometry>
        </mxCell>
        <mxCell id="TrXFUpIVHRMqHzc0mzot-62" value="" style="endArrow=none;html=1;rounded=0;strokeColor=#000000;strokeWidth=7;fontSize=12;fontColor=#000000;" parent="1" edge="1">
          <mxGeometry width="50" height="50" relative="1" as="geometry">
            <mxPoint x="440" y="10" as="sourcePoint" />
            <mxPoint x="440" y="1280" as="targetPoint" />
          </mxGeometry>
        </mxCell>
        <mxCell id="TrXFUpIVHRMqHzc0mzot-63" value="" style="endArrow=none;html=1;rounded=0;strokeColor=#000000;strokeWidth=7;fontSize=12;fontColor=#000000;" parent="1" edge="1">
          <mxGeometry width="50" height="50" relative="1" as="geometry">
            <mxPoint x="437" y="400" as="sourcePoint" />
            <mxPoint x="760" y="400" as="targetPoint" />
          </mxGeometry>
        </mxCell>
        <mxCell id="TrXFUpIVHRMqHzc0mzot-64" value="" style="endArrow=none;html=1;rounded=0;strokeColor=#000000;strokeWidth=7;fontSize=12;fontColor=#000000;" parent="1" edge="1">
          <mxGeometry width="50" height="50" relative="1" as="geometry">
            <mxPoint x="760" y="10" as="sourcePoint" />
            <mxPoint x="760" y="1280" as="targetPoint" />
          </mxGeometry>
        </mxCell>
        <mxCell id="TrXFUpIVHRMqHzc0mzot-65" value="" style="endArrow=none;html=1;rounded=0;strokeColor=#000000;strokeWidth=7;fontSize=12;fontColor=#000000;" parent="1" edge="1">
          <mxGeometry width="50" height="50" relative="1" as="geometry">
            <mxPoint x="440" y="600" as="sourcePoint" />
            <mxPoint x="763" y="600" as="targetPoint" />
          </mxGeometry>
        </mxCell>
        <mxCell id="TrXFUpIVHRMqHzc0mzot-66" value="" style="endArrow=none;html=1;rounded=0;strokeColor=#000000;strokeWidth=7;fontSize=12;fontColor=#000000;" parent="1" edge="1">
          <mxGeometry width="50" height="50" relative="1" as="geometry">
            <mxPoint x="10" y="10" as="sourcePoint" />
            <mxPoint x="1280" y="10" as="targetPoint" />
          </mxGeometry>
        </mxCell>
        <mxCell id="TrXFUpIVHRMqHzc0mzot-83" value="" style="endArrow=none;html=1;rounded=0;strokeColor=#000000;strokeWidth=7;fontSize=12;fontColor=#000000;" parent="1" edge="1">
          <mxGeometry width="50" height="50" relative="1" as="geometry">
            <mxPoint x="220" y="10" as="sourcePoint" />
            <mxPoint x="220" y="350" as="targetPoint" />
          </mxGeometry>
        </mxCell>
        <mxCell id="TrXFUpIVHRMqHzc0mzot-84" value="" style="endArrow=none;html=1;rounded=0;strokeColor=#000000;strokeWidth=7;fontSize=12;fontColor=#000000;" parent="1" edge="1">
          <mxGeometry width="50" height="50" relative="1" as="geometry">
            <mxPoint x="12" y="10" as="sourcePoint" />
            <mxPoint x="10" y="1080" as="targetPoint" />
          </mxGeometry>
        </mxCell>
        <mxCell id="TrXFUpIVHRMqHzc0mzot-85" value="" style="endArrow=none;html=1;rounded=0;strokeColor=#000000;strokeWidth=7;fontSize=12;fontColor=#000000;" parent="1" edge="1">
          <mxGeometry width="50" height="50" relative="1" as="geometry">
            <mxPoint x="11" y="653.98" as="sourcePoint" />
            <mxPoint x="438.5" y="653.98" as="targetPoint" />
          </mxGeometry>
        </mxCell>
        <mxCell id="wMmEsXNh1JFr4zxnQp-M-1" value="" style="endArrow=none;html=1;rounded=0;" parent="1" edge="1">
          <mxGeometry width="50" height="50" relative="1" as="geometry">
            <mxPoint x="218.5" y="944.98" as="sourcePoint" />
            <mxPoint x="218.5" y="944.98" as="targetPoint" />
            <Array as="points">
              <mxPoint x="158.5" y="944.98" />
              <mxPoint x="138.5" y="844.98" />
              <mxPoint x="138.5" y="754.98" />
              <mxPoint x="288.5" y="754.98" />
              <mxPoint x="308.5" y="894.98" />
              <mxPoint x="278.5" y="944.98" />
            </Array>
          </mxGeometry>
        </mxCell>
        <mxCell id="wMmEsXNh1JFr4zxnQp-M-2" value="" style="endArrow=none;html=1;rounded=0;" parent="1" edge="1">
          <mxGeometry width="50" height="50" relative="1" as="geometry">
            <mxPoint x="159.5" y="744.98" as="sourcePoint" />
            <mxPoint x="284.5" y="934.98" as="targetPoint" />
            <Array as="points">
              <mxPoint x="309.5" y="744.98" />
              <mxPoint x="329.5" y="884.98" />
              <mxPoint x="298.5" y="934.98" />
            </Array>
          </mxGeometry>
        </mxCell>
        <mxCell id="wMmEsXNh1JFr4zxnQp-M-3" value="" style="ellipse;whiteSpace=wrap;html=1;fontSize=13;fillColor=#FFCCCC;strokeColor=#FF0000;connectable=0;rotation=-10;" parent="1" vertex="1">
          <mxGeometry x="310.5" y="858.98" width="14" height="20" as="geometry" />
        </mxCell>
        <mxCell id="wMmEsXNh1JFr4zxnQp-M-4" value="&lt;font style=&quot;&quot;&gt;slot&lt;sub style=&quot;&quot;&gt;&lt;font style=&quot;font-size: 9px;&quot;&gt;2&lt;/font&gt;&lt;/sub&gt;&lt;/font&gt;" style="text;html=1;strokeColor=none;fillColor=none;align=center;verticalAlign=middle;whiteSpace=wrap;rounded=0;dashed=1;strokeWidth=0.3;rotation=0;connectable=0;allowArrows=0;fontSize=13;fontColor=#FF0000;" parent="1" vertex="1">
          <mxGeometry x="216.5" y="723.35" width="50" height="17" as="geometry" />
        </mxCell>
        <mxCell id="wMmEsXNh1JFr4zxnQp-M-5" value="" style="ellipse;whiteSpace=wrap;html=1;fontSize=13;fillColor=#FFCCCC;strokeColor=#FF0000;connectable=0;" parent="1" vertex="1">
          <mxGeometry x="266.5" y="746.85" width="20" height="5.13" as="geometry" />
        </mxCell>
        <mxCell id="wMmEsXNh1JFr4zxnQp-M-6" value="" style="ellipse;whiteSpace=wrap;html=1;fontSize=13;fillColor=#FFCCCC;strokeColor=#FF0000;connectable=0;" parent="1" vertex="1">
          <mxGeometry x="230.5" y="746.85" width="20" height="5.13" as="geometry" />
        </mxCell>
        <mxCell id="wMmEsXNh1JFr4zxnQp-M-7" value="" style="ellipse;whiteSpace=wrap;html=1;fontSize=13;fillColor=#FFCCCC;strokeColor=#FF0000;connectable=0;" parent="1" vertex="1">
          <mxGeometry x="195.5" y="746.85" width="20" height="5.13" as="geometry" />
        </mxCell>
        <mxCell id="wMmEsXNh1JFr4zxnQp-M-8" value="" style="ellipse;whiteSpace=wrap;html=1;fontSize=13;fillColor=#FFCCCC;strokeColor=#FF0000;connectable=0;" parent="1" vertex="1">
          <mxGeometry x="160.5" y="746.85" width="20" height="5.13" as="geometry" />
        </mxCell>
        <mxCell id="wMmEsXNh1JFr4zxnQp-M-10" value="" style="endArrow=none;html=1;rounded=0;strokeColor=#999999;strokeWidth=0.5;fontSize=8;fontColor=#007FFF;dashed=1;" parent="1" edge="1">
          <mxGeometry width="50" height="50" relative="1" as="geometry">
            <mxPoint x="158.5000000000001" y="943.98" as="sourcePoint" />
            <mxPoint x="178.5000000000001" y="933.98" as="targetPoint" />
          </mxGeometry>
        </mxCell>
        <mxCell id="wMmEsXNh1JFr4zxnQp-M-11" value="" style="endArrow=none;html=1;rounded=0;fontSize=8;strokeColor=#999999;fontColor=#007FFF;strokeWidth=0.5;dashed=1;" parent="1" edge="1">
          <mxGeometry width="50" height="50" relative="1" as="geometry">
            <mxPoint x="284.5" y="934.98" as="sourcePoint" />
            <mxPoint x="158.5" y="744.98" as="targetPoint" />
            <Array as="points">
              <mxPoint x="178.5" y="934.98" />
              <mxPoint x="158.5" y="834.98" />
            </Array>
          </mxGeometry>
        </mxCell>
        <mxCell id="wMmEsXNh1JFr4zxnQp-M-12" value="" style="endArrow=none;html=1;rounded=0;strokeColor=#000000;strokeWidth=1;fontSize=8;fontColor=#007FFF;" parent="1" edge="1">
          <mxGeometry width="50" height="50" relative="1" as="geometry">
            <mxPoint x="288.5" y="754.98" as="sourcePoint" />
            <mxPoint x="308.5" y="744.98" as="targetPoint" />
          </mxGeometry>
        </mxCell>
        <mxCell id="wMmEsXNh1JFr4zxnQp-M-13" value="" style="endArrow=none;html=1;rounded=0;strokeColor=#000000;strokeWidth=1;fontSize=8;fontColor=#007FFF;" parent="1" edge="1">
          <mxGeometry width="50" height="50" relative="1" as="geometry">
            <mxPoint x="308.5" y="894.98" as="sourcePoint" />
            <mxPoint x="329.5" y="884.98" as="targetPoint" />
          </mxGeometry>
        </mxCell>
        <mxCell id="wMmEsXNh1JFr4zxnQp-M-14" value="" style="endArrow=none;html=1;rounded=0;strokeColor=#000000;strokeWidth=1;fontSize=8;fontColor=#007FFF;" parent="1" edge="1">
          <mxGeometry width="50" height="50" relative="1" as="geometry">
            <mxPoint x="278.5" y="944.98" as="sourcePoint" />
            <mxPoint x="298.5" y="934.98" as="targetPoint" />
          </mxGeometry>
        </mxCell>
        <mxCell id="wMmEsXNh1JFr4zxnQp-M-16" value="" style="endArrow=none;html=1;rounded=0;strokeColor=#000000;strokeWidth=1;fontSize=8;fontColor=#007FFF;" parent="1" edge="1">
          <mxGeometry width="50" height="50" relative="1" as="geometry">
            <mxPoint x="138.5" y="754.98" as="sourcePoint" />
            <mxPoint x="158.5" y="744.98" as="targetPoint" />
          </mxGeometry>
        </mxCell>
        <mxCell id="wMmEsXNh1JFr4zxnQp-M-17" value="&lt;font style=&quot;&quot;&gt;slot&lt;sub style=&quot;&quot;&gt;&lt;font style=&quot;font-size: 9px;&quot;&gt;0&lt;/font&gt;&lt;/sub&gt;&lt;/font&gt;" style="text;html=1;strokeColor=none;fillColor=none;align=center;verticalAlign=middle;whiteSpace=wrap;rounded=0;dashed=1;strokeWidth=0.3;rotation=0;connectable=0;allowArrows=0;fontSize=13;fontColor=#FF0000;" parent="1" vertex="1">
          <mxGeometry x="321.5" y="857.98" width="50" height="17" as="geometry" />
        </mxCell>
        <mxCell id="wMmEsXNh1JFr4zxnQp-M-18" value="&lt;font style=&quot;&quot;&gt;slot&lt;sub style=&quot;&quot;&gt;&lt;font style=&quot;font-size: 9px;&quot;&gt;1&lt;/font&gt;&lt;/sub&gt;&lt;/font&gt;" style="text;html=1;strokeColor=none;fillColor=none;align=center;verticalAlign=middle;whiteSpace=wrap;rounded=0;dashed=1;strokeWidth=0.3;rotation=0;connectable=0;allowArrows=0;fontSize=13;fontColor=#FF0000;" parent="1" vertex="1">
          <mxGeometry x="251.5" y="723.35" width="50" height="17" as="geometry" />
        </mxCell>
        <mxCell id="wMmEsXNh1JFr4zxnQp-M-19" value="&lt;font style=&quot;&quot;&gt;slot&lt;sub style=&quot;&quot;&gt;&lt;font style=&quot;font-size: 9px;&quot;&gt;3&lt;/font&gt;&lt;/sub&gt;&lt;/font&gt;" style="text;html=1;strokeColor=none;fillColor=none;align=center;verticalAlign=middle;whiteSpace=wrap;rounded=0;dashed=1;strokeWidth=0.3;rotation=0;connectable=0;allowArrows=0;fontSize=13;fontColor=#FF0000;" parent="1" vertex="1">
          <mxGeometry x="180.5" y="723.35" width="50" height="17" as="geometry" />
        </mxCell>
        <mxCell id="wMmEsXNh1JFr4zxnQp-M-20" value="&lt;font style=&quot;&quot;&gt;slot&lt;sub style=&quot;&quot;&gt;&lt;font style=&quot;font-size: 9px;&quot;&gt;4&lt;/font&gt;&lt;/sub&gt;&lt;/font&gt;" style="text;html=1;strokeColor=none;fillColor=none;align=center;verticalAlign=middle;whiteSpace=wrap;rounded=0;dashed=1;strokeWidth=0.3;rotation=0;connectable=0;allowArrows=0;fontSize=13;fontColor=#FF0000;" parent="1" vertex="1">
          <mxGeometry x="145.5" y="723.35" width="50" height="17" as="geometry" />
        </mxCell>
        <mxCell id="wMmEsXNh1JFr4zxnQp-M-21" value="" style="group;dropTarget=0;" parent="1" vertex="1" connectable="0">
          <mxGeometry x="198.5" y="887.98" width="80" height="70" as="geometry" />
        </mxCell>
        <mxCell id="wMmEsXNh1JFr4zxnQp-M-22" value="" style="endArrow=classic;startArrow=oval;html=1;rounded=0;strokeColor=#FF0000;strokeWidth=1;startFill=1;endSize=3;startSize=3;" parent="wMmEsXNh1JFr4zxnQp-M-21" edge="1">
          <mxGeometry width="50" height="50" relative="1" as="geometry">
            <mxPoint x="30" y="50" as="sourcePoint" />
            <mxPoint x="30" y="10" as="targetPoint" />
          </mxGeometry>
        </mxCell>
        <mxCell id="wMmEsXNh1JFr4zxnQp-M-23" value="" style="endArrow=classic;startArrow=oval;html=1;rounded=0;strokeColor=#FF0000;strokeWidth=1;startFill=1;endSize=3;startSize=6;" parent="wMmEsXNh1JFr4zxnQp-M-21" edge="1">
          <mxGeometry width="50" height="50" relative="1" as="geometry">
            <mxPoint x="30" y="50" as="sourcePoint" />
            <mxPoint x="70" y="50" as="targetPoint" />
          </mxGeometry>
        </mxCell>
        <mxCell id="wMmEsXNh1JFr4zxnQp-M-24" value="" style="endArrow=classic;startArrow=oval;html=1;rounded=0;strokeColor=#FF0000;strokeWidth=1;startFill=1;endSize=3;startSize=3;" parent="wMmEsXNh1JFr4zxnQp-M-21" edge="1">
          <mxGeometry width="50" height="50" relative="1" as="geometry">
            <mxPoint x="30" y="50" as="sourcePoint" />
            <mxPoint x="10" y="60" as="targetPoint" />
          </mxGeometry>
        </mxCell>
        <mxCell id="wMmEsXNh1JFr4zxnQp-M-25" value="&lt;font style=&quot;font-size: 13px;&quot;&gt;y&lt;/font&gt;" style="text;html=1;strokeColor=none;fillColor=none;align=center;verticalAlign=bottom;whiteSpace=wrap;rounded=0;dashed=1;strokeWidth=0.3;rotation=0;connectable=0;allowArrows=0;spacing=0;fontColor=#FF0000;fontSize=13;" parent="wMmEsXNh1JFr4zxnQp-M-21" vertex="1">
          <mxGeometry x="20" width="20" height="10" as="geometry" />
        </mxCell>
        <mxCell id="wMmEsXNh1JFr4zxnQp-M-26" value="&lt;font style=&quot;font-size: 13px;&quot;&gt;x&lt;/font&gt;" style="text;html=1;strokeColor=none;fillColor=none;align=center;verticalAlign=bottom;whiteSpace=wrap;rounded=0;dashed=1;strokeWidth=0.3;rotation=0;connectable=0;allowArrows=0;spacing=0;fontColor=#FF0000;fontSize=13;" parent="wMmEsXNh1JFr4zxnQp-M-21" vertex="1">
          <mxGeometry x="64" y="47" width="20" height="10" as="geometry" />
        </mxCell>
        <mxCell id="wMmEsXNh1JFr4zxnQp-M-27" value="&lt;font style=&quot;font-size: 13px;&quot;&gt;z&lt;/font&gt;" style="text;html=1;strokeColor=none;fillColor=none;align=center;verticalAlign=bottom;whiteSpace=wrap;rounded=0;dashed=1;strokeWidth=0.3;rotation=0;connectable=0;allowArrows=0;spacing=0;fontColor=#FF0000;fontSize=13;" parent="wMmEsXNh1JFr4zxnQp-M-21" vertex="1">
          <mxGeometry x="-6" y="60" width="20" height="10" as="geometry" />
        </mxCell>
        <mxCell id="wMmEsXNh1JFr4zxnQp-M-28" value="&lt;font style=&quot;font-size: 13px;&quot; color=&quot;#007fff&quot;&gt;length&lt;/font&gt;" style="text;html=1;strokeColor=none;fillColor=none;align=center;verticalAlign=middle;whiteSpace=wrap;rounded=0;dashed=1;strokeWidth=0.3;rotation=-90;connectable=0;allowArrows=0;fontSize=13;" parent="1" vertex="1">
          <mxGeometry x="85.5" y="833.98" width="60" height="20" as="geometry" />
        </mxCell>
        <mxCell id="wMmEsXNh1JFr4zxnQp-M-29" value="" style="endArrow=classic;startArrow=classic;html=1;rounded=0;strokeColor=#007FFF;strokeWidth=0.5;endSize=3;startSize=3;" parent="1" edge="1">
          <mxGeometry width="50" height="50" relative="1" as="geometry">
            <mxPoint x="126.5" y="944.98" as="sourcePoint" />
            <mxPoint x="126.5" y="754.98" as="targetPoint" />
          </mxGeometry>
        </mxCell>
        <mxCell id="wMmEsXNh1JFr4zxnQp-M-30" value="" style="endArrow=classic;startArrow=classic;html=1;rounded=0;strokeColor=#007FFF;strokeWidth=0.5;endSize=3;startSize=3;" parent="1" edge="1">
          <mxGeometry width="50" height="50" relative="1" as="geometry">
            <mxPoint x="139.5" y="964.98" as="sourcePoint" />
            <mxPoint x="308.5" y="964.98" as="targetPoint" />
          </mxGeometry>
        </mxCell>
        <mxCell id="wMmEsXNh1JFr4zxnQp-M-31" value="&lt;font style=&quot;font-size: 13px;&quot; color=&quot;#007fff&quot;&gt;width&lt;/font&gt;" style="text;html=1;strokeColor=none;fillColor=none;align=center;verticalAlign=middle;whiteSpace=wrap;rounded=0;dashed=1;strokeWidth=0.3;rotation=0;connectable=0;allowArrows=0;fontSize=13;" parent="1" vertex="1">
          <mxGeometry x="208.5" y="964.98" width="30" height="20" as="geometry" />
        </mxCell>
        <mxCell id="wMmEsXNh1JFr4zxnQp-M-32" value="&lt;font style=&quot;font-size: 13px;&quot; color=&quot;#007fff&quot;&gt;thickness&lt;/font&gt;" style="text;html=1;strokeColor=none;fillColor=none;align=center;verticalAlign=middle;whiteSpace=wrap;rounded=0;dashed=1;strokeWidth=0.3;rotation=0;connectable=0;allowArrows=0;fontSize=13;" parent="1" vertex="1">
          <mxGeometry x="320.5" y="931.98" width="60" height="20" as="geometry" />
        </mxCell>
        <mxCell id="wMmEsXNh1JFr4zxnQp-M-33" value="" style="endArrow=classic;startArrow=classic;html=1;rounded=0;strokeColor=#007FFF;strokeWidth=0.5;endSize=3;startSize=3;" parent="1" edge="1">
          <mxGeometry width="50" height="50" relative="1" as="geometry">
            <mxPoint x="297.5" y="946.85" as="sourcePoint" />
            <mxPoint x="317.5" y="936.85" as="targetPoint" />
          </mxGeometry>
        </mxCell>
        <mxCell id="wMmEsXNh1JFr4zxnQp-M-36" value="0" style="text;strokeColor=none;fillColor=none;align=center;verticalAlign=middle;rounded=0;dashed=1;strokeWidth=0.3;rotation=0;connectable=0;allowArrows=0;fontSize=6;html=1;spacing=0;fontColor=#66B2FF;" parent="1" vertex="1">
          <mxGeometry x="156.5" y="932.98" width="10" height="10" as="geometry" />
        </mxCell>
        <mxCell id="wMmEsXNh1JFr4zxnQp-M-37" value="1" style="text;strokeColor=none;fillColor=none;align=center;verticalAlign=middle;rounded=0;dashed=1;strokeWidth=0.3;rotation=0;connectable=0;allowArrows=0;fontSize=6;html=1;spacing=0;fontColor=#66B2FF;" parent="1" vertex="1">
          <mxGeometry x="271.5" y="947.98" width="10" height="10" as="geometry" />
        </mxCell>
        <mxCell id="wMmEsXNh1JFr4zxnQp-M-38" value="2" style="text;strokeColor=none;fillColor=none;align=center;verticalAlign=middle;rounded=0;dashed=1;strokeWidth=0.3;rotation=0;connectable=0;allowArrows=0;fontSize=6;html=1;spacing=0;fontColor=#66B2FF;" parent="1" vertex="1">
          <mxGeometry x="296.5" y="887.98" width="10" height="10" as="geometry" />
        </mxCell>
        <mxCell id="wMmEsXNh1JFr4zxnQp-M-39" value="3" style="text;strokeColor=none;fillColor=none;align=center;verticalAlign=middle;rounded=0;dashed=1;strokeWidth=0.3;rotation=0;connectable=0;allowArrows=0;fontSize=6;html=1;spacing=0;fontColor=#66B2FF;" parent="1" vertex="1">
          <mxGeometry x="277.5" y="756.98" width="10" height="10" as="geometry" />
        </mxCell>
        <mxCell id="wMmEsXNh1JFr4zxnQp-M-40" value="4" style="text;strokeColor=none;fillColor=none;align=center;verticalAlign=middle;rounded=0;dashed=1;strokeWidth=0.3;rotation=0;connectable=0;allowArrows=0;fontSize=6;html=1;spacing=0;fontColor=#66B2FF;" parent="1" vertex="1">
          <mxGeometry x="137.5" y="752.98" width="10" height="10" as="geometry" />
        </mxCell>
        <mxCell id="wMmEsXNh1JFr4zxnQp-M-41" value="5" style="text;strokeColor=none;fillColor=none;align=center;verticalAlign=middle;rounded=0;dashed=1;strokeWidth=0.3;rotation=0;connectable=0;allowArrows=0;fontSize=6;html=1;spacing=0;fontColor=#66B2FF;" parent="1" vertex="1">
          <mxGeometry x="136.5" y="831.98" width="10" height="10" as="geometry" />
        </mxCell>
        <mxCell id="OS4HY50sAGosplAK6izQ-1" value="" style="endArrow=none;html=1;rounded=0;strokeColor=#999999;strokeWidth=0.5;fontSize=8;fontColor=#007FFF;dashed=1;" parent="1" edge="1">
          <mxGeometry width="50" height="50" relative="1" as="geometry">
            <mxPoint x="138.5000000000001" y="843.98" as="sourcePoint" />
            <mxPoint x="158.5000000000001" y="833.98" as="targetPoint" />
          </mxGeometry>
        </mxCell>
        <mxCell id="Pl7IlCsuC_TJ1haGHuE9-3" value="Scene" style="text;html=1;strokeColor=none;fillColor=none;align=left;verticalAlign=middle;whiteSpace=wrap;rounded=0;fontStyle=1;spacingLeft=2;" parent="1" vertex="1">
          <mxGeometry x="780" y="30" width="80" height="20" as="geometry" />
        </mxCell>
        <mxCell id="Pl7IlCsuC_TJ1haGHuE9-7" value="" style="rounded=1;whiteSpace=wrap;html=1;fillColor=none;arcSize=50;rotation=-105;" parent="1" vertex="1">
          <mxGeometry x="805.28" y="135.61" width="178.13" height="43.88" as="geometry" />
        </mxCell>
        <mxCell id="Pl7IlCsuC_TJ1haGHuE9-8" value="" style="rounded=1;whiteSpace=wrap;html=1;fillColor=none;arcSize=50;rotation=-30;" parent="1" vertex="1">
          <mxGeometry x="868" y="112" width="120" height="40" as="geometry" />
        </mxCell>
        <mxCell id="Pl7IlCsuC_TJ1haGHuE9-9" value="" style="rounded=1;whiteSpace=wrap;html=1;fillColor=none;arcSize=50;rotation=30;" parent="1" vertex="1">
          <mxGeometry x="937" y="112" width="120" height="40" as="geometry" />
        </mxCell>
        <mxCell id="Pl7IlCsuC_TJ1haGHuE9-13" value="" style="shape=trapezoid;perimeter=trapezoidPerimeter;whiteSpace=wrap;html=1;fixedSize=1;fillColor=default;connectable=0;" parent="1" vertex="1">
          <mxGeometry x="850" y="220" width="120" height="40" as="geometry" />
        </mxCell>
        <mxCell id="Pl7IlCsuC_TJ1haGHuE9-14" value="" style="ellipse;whiteSpace=wrap;html=1;fillColor=#FFCCCC;strokeWidth=0.5;strokeColor=#FF0000;" parent="1" vertex="1">
          <mxGeometry x="897" y="207" width="30" height="30" as="geometry" />
        </mxCell>
        <mxCell id="Pl7IlCsuC_TJ1haGHuE9-15" value="" style="ellipse;whiteSpace=wrap;html=1;fillColor=#FFCCCC;strokeWidth=0.5;strokeColor=#FF0000;" parent="1" vertex="1">
          <mxGeometry x="862" y="77" width="30" height="30" as="geometry" />
        </mxCell>
        <mxCell id="Pl7IlCsuC_TJ1haGHuE9-16" value="" style="ellipse;whiteSpace=wrap;html=1;fillColor=#FFCCCC;strokeWidth=0.5;strokeColor=#FF0000;" parent="1" vertex="1">
          <mxGeometry x="878" y="137" width="30" height="30" as="geometry" />
        </mxCell>
        <mxCell id="Pl7IlCsuC_TJ1haGHuE9-17" value="" style="ellipse;whiteSpace=wrap;html=1;fillColor=#FFCCCC;strokeWidth=0.5;strokeColor=#FF0000;" parent="1" vertex="1">
          <mxGeometry x="947" y="97" width="30" height="30" as="geometry" />
        </mxCell>
        <mxCell id="Pl7IlCsuC_TJ1haGHuE9-18" value="" style="ellipse;whiteSpace=wrap;html=1;fillColor=#808080;strokeWidth=0.5;" parent="1" vertex="1">
          <mxGeometry x="883" y="142" width="20" height="20" as="geometry" />
        </mxCell>
        <mxCell id="Pl7IlCsuC_TJ1haGHuE9-19" value="" style="ellipse;whiteSpace=wrap;html=1;fillColor=#808080;strokeWidth=0.5;" parent="1" vertex="1">
          <mxGeometry x="902" y="212" width="20" height="20" as="geometry" />
        </mxCell>
        <mxCell id="Pl7IlCsuC_TJ1haGHuE9-20" value="" style="ellipse;whiteSpace=wrap;html=1;fillColor=#808080;strokeWidth=0.5;" parent="1" vertex="1">
          <mxGeometry x="952" y="102" width="21" height="20" as="geometry" />
        </mxCell>
        <mxCell id="Pl7IlCsuC_TJ1haGHuE9-22" value="Robot" style="text;html=1;strokeColor=none;fillColor=none;align=right;verticalAlign=middle;whiteSpace=wrap;rounded=0;fontStyle=1;spacing=2;spacingRight=2;" parent="1" vertex="1">
          <mxGeometry x="990" y="59" width="70" height="20" as="geometry" />
        </mxCell>
        <mxCell id="Pl7IlCsuC_TJ1haGHuE9-23" value="Part" style="text;html=1;strokeColor=none;fillColor=none;align=right;verticalAlign=middle;whiteSpace=wrap;rounded=0;fontStyle=1" parent="1" vertex="1">
          <mxGeometry x="780" y="180" width="50" height="20" as="geometry" />
        </mxCell>
        <mxCell id="Pl7IlCsuC_TJ1haGHuE9-24" value="" style="endArrow=classic;html=1;rounded=0;strokeWidth=0.5;startSize=3;endSize=3;exitX=1;exitY=0.5;exitDx=0;exitDy=0;" parent="1" source="Pl7IlCsuC_TJ1haGHuE9-23" edge="1">
          <mxGeometry width="50" height="50" relative="1" as="geometry">
            <mxPoint x="850" y="210" as="sourcePoint" />
            <mxPoint x="880" y="190" as="targetPoint" />
          </mxGeometry>
        </mxCell>
        <mxCell id="Pl7IlCsuC_TJ1haGHuE9-25" value="" style="endArrow=classic;html=1;rounded=0;strokeWidth=0.5;startSize=3;endSize=3;exitX=1;exitY=0.5;exitDx=0;exitDy=0;" parent="1" source="Pl7IlCsuC_TJ1haGHuE9-26" edge="1">
          <mxGeometry width="50" height="50" relative="1" as="geometry">
            <mxPoint x="832" y="112" as="sourcePoint" />
            <mxPoint x="862" y="92" as="targetPoint" />
          </mxGeometry>
        </mxCell>
        <mxCell id="Pl7IlCsuC_TJ1haGHuE9-26" value="Slot" style="text;html=1;strokeColor=none;fillColor=none;align=right;verticalAlign=middle;whiteSpace=wrap;rounded=0;fontStyle=1" parent="1" vertex="1">
          <mxGeometry x="780" y="82" width="50" height="20" as="geometry" />
        </mxCell>
        <mxCell id="Pl7IlCsuC_TJ1haGHuE9-27" value="Motor" style="text;html=1;strokeColor=none;fillColor=none;align=right;verticalAlign=middle;whiteSpace=wrap;rounded=0;fontStyle=1" parent="1" vertex="1">
          <mxGeometry x="780" y="142" width="50" height="20" as="geometry" />
        </mxCell>
        <mxCell id="Pl7IlCsuC_TJ1haGHuE9-28" value="" style="endArrow=classic;html=1;rounded=0;strokeWidth=0.5;startSize=3;endSize=3;exitX=1;exitY=0.5;exitDx=0;exitDy=0;" parent="1" source="Pl7IlCsuC_TJ1haGHuE9-27" edge="1">
          <mxGeometry width="50" height="50" relative="1" as="geometry">
            <mxPoint x="853" y="172" as="sourcePoint" />
            <mxPoint x="883" y="152" as="targetPoint" />
          </mxGeometry>
        </mxCell>
        <mxCell id="Pl7IlCsuC_TJ1haGHuE9-29" value="" style="endArrow=none;html=1;rounded=0;strokeColor=#000000;strokeWidth=7;fontSize=12;fontColor=#000000;" parent="1" edge="1">
          <mxGeometry width="50" height="50" relative="1" as="geometry">
            <mxPoint x="1240" y="10" as="sourcePoint" />
            <mxPoint x="1240" y="1360" as="targetPoint" />
          </mxGeometry>
        </mxCell>
        <mxCell id="Pl7IlCsuC_TJ1haGHuE9-30" value="" style="endArrow=none;html=1;rounded=0;strokeColor=#000000;strokeWidth=7;fontSize=12;fontColor=#000000;" parent="1" edge="1">
          <mxGeometry width="50" height="50" relative="1" as="geometry">
            <mxPoint x="760" y="340" as="sourcePoint" />
            <mxPoint x="1240" y="340" as="targetPoint" />
          </mxGeometry>
        </mxCell>
        <mxCell id="Pl7IlCsuC_TJ1haGHuE9-32" value="" style="rounded=0;whiteSpace=wrap;html=1;fillColor=none;connectable=0;labelBackgroundColor=default;endArrow=none;fontSize=11;dashed=1;strokeWidth=0.5;" parent="1" vertex="1">
          <mxGeometry x="1070" y="120" width="130" height="149" as="geometry" />
        </mxCell>
        <mxCell id="Pl7IlCsuC_TJ1haGHuE9-33" value="Robot" style="text;html=1;strokeColor=none;fillColor=none;align=right;verticalAlign=middle;whiteSpace=wrap;rounded=0;fontStyle=1;spacing=2;spacingRight=2;" parent="1" vertex="1">
          <mxGeometry x="1130" y="120" width="70" height="20" as="geometry" />
        </mxCell>
        <mxCell id="Pl7IlCsuC_TJ1haGHuE9-34" value="" style="rounded=1;whiteSpace=wrap;html=1;fillColor=none;arcSize=50;rotation=-90;" parent="1" vertex="1">
          <mxGeometry x="1106.78" y="218.85" width="56.5" height="29.81" as="geometry" />
        </mxCell>
        <mxCell id="Pl7IlCsuC_TJ1haGHuE9-35" value="" style="rounded=1;whiteSpace=wrap;html=1;fillColor=none;arcSize=50;rotation=-45;" parent="1" vertex="1">
          <mxGeometry x="1119" y="197" width="56.5" height="21" as="geometry" />
        </mxCell>
        <mxCell id="Pl7IlCsuC_TJ1haGHuE9-36" value="" style="rounded=1;whiteSpace=wrap;html=1;fillColor=none;arcSize=50;rotation=-135;" parent="1" vertex="1">
          <mxGeometry x="1094" y="197" width="56.5" height="21" as="geometry" />
        </mxCell>
        <mxCell id="Pl7IlCsuC_TJ1haGHuE9-37" value="" style="rounded=1;whiteSpace=wrap;html=1;fillColor=none;arcSize=50;rotation=-75;" parent="1" vertex="1">
          <mxGeometry x="1090" y="172" width="46" height="21" as="geometry" />
        </mxCell>
        <mxCell id="Pl7IlCsuC_TJ1haGHuE9-38" value="" style="rounded=1;whiteSpace=wrap;html=1;fillColor=none;arcSize=50;rotation=-105;" parent="1" vertex="1">
          <mxGeometry x="1134" y="172" width="46" height="21" as="geometry" />
        </mxCell>
        <mxCell id="Pl7IlCsuC_TJ1haGHuE9-39" value="" style="ellipse;whiteSpace=wrap;html=1;fillColor=#FFCCCC;strokeWidth=0.5;strokeColor=#FF0000;" parent="1" vertex="1">
          <mxGeometry x="1102" y="187" width="16" height="16" as="geometry" />
        </mxCell>
        <mxCell id="Pl7IlCsuC_TJ1haGHuE9-40" value="" style="ellipse;whiteSpace=wrap;html=1;fillColor=#FFCCCC;strokeWidth=0.5;strokeColor=#FF0000;" parent="1" vertex="1">
          <mxGeometry x="1152.5" y="187" width="16" height="16" as="geometry" />
        </mxCell>
        <mxCell id="Pl7IlCsuC_TJ1haGHuE9-41" value="" style="ellipse;whiteSpace=wrap;html=1;fillColor=#FFCCCC;strokeWidth=0.5;strokeColor=#FF0000;" parent="1" vertex="1">
          <mxGeometry x="1127" y="212.12" width="16" height="16" as="geometry" />
        </mxCell>
        <mxCell id="Pl7IlCsuC_TJ1haGHuE9-43" value="" style="ellipse;whiteSpace=wrap;html=1;fillColor=#808080;strokeWidth=0.5;" parent="1" vertex="1">
          <mxGeometry x="1130" y="245" width="10" height="10" as="geometry" />
        </mxCell>
        <mxCell id="Pl7IlCsuC_TJ1haGHuE9-44" value="" style="ellipse;whiteSpace=wrap;html=1;fillColor=#808080;strokeWidth=0.5;" parent="1" vertex="1">
          <mxGeometry x="1130" y="215.12" width="10" height="10" as="geometry" />
        </mxCell>
        <mxCell id="Pl7IlCsuC_TJ1haGHuE9-45" value="" style="ellipse;whiteSpace=wrap;html=1;fillColor=#808080;strokeWidth=0.5;" parent="1" vertex="1">
          <mxGeometry x="1105" y="190" width="10" height="10" as="geometry" />
        </mxCell>
        <mxCell id="Pl7IlCsuC_TJ1haGHuE9-46" value="" style="ellipse;whiteSpace=wrap;html=1;fillColor=#808080;strokeWidth=0.5;" parent="1" vertex="1">
          <mxGeometry x="1155.5" y="190" width="10" height="10" as="geometry" />
        </mxCell>
        <mxCell id="Pl7IlCsuC_TJ1haGHuE9-50" value="LeftPalm" style="text;html=1;strokeColor=none;fillColor=none;align=left;verticalAlign=middle;whiteSpace=wrap;rounded=0;fontStyle=1" parent="1" vertex="1">
          <mxGeometry x="15.5" y="656.98" width="88" height="30" as="geometry" />
        </mxCell>
        <mxCell id="Pl7IlCsuC_TJ1haGHuE9-89" value="" style="endArrow=none;html=1;rounded=0;strokeColor=#000000;strokeWidth=7;fontSize=12;fontColor=#000000;" parent="1" edge="1">
          <mxGeometry width="50" height="50" relative="1" as="geometry">
            <mxPoint x="9" y="1004.9799999999998" as="sourcePoint" />
            <mxPoint x="438.5" y="1004.98" as="targetPoint" />
          </mxGeometry>
        </mxCell>
        <mxCell id="Pl7IlCsuC_TJ1haGHuE9-51" value="" style="endArrow=none;html=1;rounded=0;" parent="1" edge="1">
          <mxGeometry width="50" height="50" relative="1" as="geometry">
            <mxPoint x="218.5" y="1254.6099999999997" as="sourcePoint" />
            <mxPoint x="218.5" y="1254.6099999999997" as="targetPoint" />
            <Array as="points">
              <mxPoint x="278.5" y="1254.6100000000001" />
              <mxPoint x="298.5" y="1154.6100000000001" />
              <mxPoint x="298.5" y="1064.6100000000001" />
              <mxPoint x="148.5" y="1064.6100000000001" />
              <mxPoint x="128.5" y="1204.6100000000001" />
              <mxPoint x="158.5" y="1254.6100000000001" />
            </Array>
          </mxGeometry>
        </mxCell>
        <mxCell id="Pl7IlCsuC_TJ1haGHuE9-52" value="" style="endArrow=none;html=1;rounded=0;fontSize=8;strokeColor=#999999;fontColor=#007FFF;strokeWidth=0.5;dashed=1;" parent="1" edge="1">
          <mxGeometry width="50" height="50" relative="1" as="geometry">
            <mxPoint x="168.5" y="1053.98" as="sourcePoint" />
            <mxPoint x="298.5" y="1244.98" as="targetPoint" />
            <Array as="points">
              <mxPoint x="147.5" y="1193.98" />
              <mxPoint x="178.5" y="1244.98" />
            </Array>
          </mxGeometry>
        </mxCell>
        <mxCell id="Pl7IlCsuC_TJ1haGHuE9-53" value="" style="ellipse;whiteSpace=wrap;html=1;fontSize=13;fillColor=#FFCCCC;strokeColor=#FF0000;connectable=0;rotation=11.7;" parent="1" vertex="1">
          <mxGeometry x="134.5" y="1170.6100000000001" width="13" height="20" as="geometry" />
        </mxCell>
        <mxCell id="Pl7IlCsuC_TJ1haGHuE9-54" value="&lt;font style=&quot;&quot;&gt;slot&lt;sub style=&quot;&quot;&gt;&lt;font style=&quot;font-size: 9px;&quot;&gt;2&lt;/font&gt;&lt;/sub&gt;&lt;/font&gt;" style="text;html=1;strokeColor=none;fillColor=none;align=center;verticalAlign=middle;whiteSpace=wrap;rounded=0;dashed=1;strokeWidth=0.3;rotation=0;connectable=0;allowArrows=0;fontSize=13;fontColor=#FF0000;" parent="1" vertex="1">
          <mxGeometry x="189.5" y="1033.98" width="50" height="17" as="geometry" />
        </mxCell>
        <mxCell id="Pl7IlCsuC_TJ1haGHuE9-55" value="" style="ellipse;whiteSpace=wrap;html=1;fontSize=13;fillColor=#FFCCCC;strokeColor=#FF0000;connectable=0;" parent="1" vertex="1">
          <mxGeometry x="169.5" y="1057.48" width="20" height="5.13" as="geometry" />
        </mxCell>
        <mxCell id="Pl7IlCsuC_TJ1haGHuE9-56" value="" style="ellipse;whiteSpace=wrap;html=1;fontSize=13;fillColor=#FFCCCC;strokeColor=#FF0000;connectable=0;" parent="1" vertex="1">
          <mxGeometry x="205.5" y="1057.48" width="20" height="5.13" as="geometry" />
        </mxCell>
        <mxCell id="Pl7IlCsuC_TJ1haGHuE9-57" value="" style="ellipse;whiteSpace=wrap;html=1;fontSize=13;fillColor=#FFCCCC;strokeColor=#FF0000;connectable=0;" parent="1" vertex="1">
          <mxGeometry x="240.5" y="1057.48" width="20" height="5.13" as="geometry" />
        </mxCell>
        <mxCell id="Pl7IlCsuC_TJ1haGHuE9-58" value="" style="ellipse;whiteSpace=wrap;html=1;fontSize=13;fillColor=#FFCCCC;strokeColor=#FF0000;connectable=0;" parent="1" vertex="1">
          <mxGeometry x="275.5" y="1057.48" width="20" height="5.13" as="geometry" />
        </mxCell>
        <mxCell id="Pl7IlCsuC_TJ1haGHuE9-61" value="" style="endArrow=none;html=1;rounded=0;strokeColor=#000000;strokeWidth=1;fontSize=8;fontColor=#007FFF;" parent="1" edge="1">
          <mxGeometry width="50" height="50" relative="1" as="geometry">
            <mxPoint x="148.5" y="1064.98" as="sourcePoint" />
            <mxPoint x="278.5" y="1254.98" as="targetPoint" />
            <Array as="points">
              <mxPoint x="168.5" y="1054.98" />
              <mxPoint x="318.5" y="1054.98" />
              <mxPoint x="318.5" y="1144.98" />
              <mxPoint x="298.5" y="1244.98" />
            </Array>
          </mxGeometry>
        </mxCell>
        <mxCell id="Pl7IlCsuC_TJ1haGHuE9-64" value="" style="endArrow=none;html=1;rounded=0;strokeColor=#000000;strokeWidth=1;fontSize=8;fontColor=#007FFF;" parent="1" edge="1">
          <mxGeometry width="50" height="50" relative="1" as="geometry">
            <mxPoint x="318.5" y="1054.98" as="sourcePoint" />
            <mxPoint x="298.5" y="1064.98" as="targetPoint" />
          </mxGeometry>
        </mxCell>
        <mxCell id="Pl7IlCsuC_TJ1haGHuE9-65" value="&lt;font style=&quot;&quot;&gt;slot&lt;sub style=&quot;&quot;&gt;&lt;font style=&quot;font-size: 9px;&quot;&gt;0&lt;/font&gt;&lt;/sub&gt;&lt;/font&gt;" style="text;html=1;strokeColor=none;fillColor=none;align=center;verticalAlign=middle;whiteSpace=wrap;rounded=0;dashed=1;strokeWidth=0.3;rotation=0;connectable=0;allowArrows=0;fontSize=13;fontColor=#FF0000;" parent="1" vertex="1">
          <mxGeometry x="147.5" y="1172.1100000000001" width="50" height="17" as="geometry" />
        </mxCell>
        <mxCell id="Pl7IlCsuC_TJ1haGHuE9-66" value="&lt;font style=&quot;&quot;&gt;slot&lt;sub style=&quot;&quot;&gt;&lt;font style=&quot;font-size: 9px;&quot;&gt;1&lt;/font&gt;&lt;/sub&gt;&lt;/font&gt;" style="text;html=1;strokeColor=none;fillColor=none;align=center;verticalAlign=middle;whiteSpace=wrap;rounded=0;dashed=1;strokeWidth=0.3;rotation=0;connectable=0;allowArrows=0;fontSize=13;fontColor=#FF0000;" parent="1" vertex="1">
          <mxGeometry x="154.5" y="1033.98" width="50" height="17" as="geometry" />
        </mxCell>
        <mxCell id="Pl7IlCsuC_TJ1haGHuE9-67" value="&lt;font style=&quot;&quot;&gt;slot&lt;sub style=&quot;&quot;&gt;&lt;font style=&quot;font-size: 9px;&quot;&gt;3&lt;/font&gt;&lt;/sub&gt;&lt;/font&gt;" style="text;html=1;strokeColor=none;fillColor=none;align=center;verticalAlign=middle;whiteSpace=wrap;rounded=0;dashed=1;strokeWidth=0.3;rotation=0;connectable=0;allowArrows=0;fontSize=13;fontColor=#FF0000;" parent="1" vertex="1">
          <mxGeometry x="225.5" y="1033.98" width="50" height="17" as="geometry" />
        </mxCell>
        <mxCell id="Pl7IlCsuC_TJ1haGHuE9-68" value="&lt;font style=&quot;&quot;&gt;slot&lt;sub style=&quot;&quot;&gt;&lt;font style=&quot;font-size: 9px;&quot;&gt;4&lt;/font&gt;&lt;/sub&gt;&lt;/font&gt;" style="text;html=1;strokeColor=none;fillColor=none;align=center;verticalAlign=middle;whiteSpace=wrap;rounded=0;dashed=1;strokeWidth=0.3;rotation=0;connectable=0;allowArrows=0;fontSize=13;fontColor=#FF0000;" parent="1" vertex="1">
          <mxGeometry x="260.5" y="1033.98" width="50" height="17" as="geometry" />
        </mxCell>
        <mxCell id="Pl7IlCsuC_TJ1haGHuE9-69" value="" style="group;dropTarget=0;" parent="1" vertex="1" connectable="0">
          <mxGeometry x="227.5" y="1199.6100000000001" width="80" height="70" as="geometry" />
        </mxCell>
        <mxCell id="Pl7IlCsuC_TJ1haGHuE9-70" value="" style="endArrow=classic;startArrow=oval;html=1;rounded=0;strokeColor=#FF0000;strokeWidth=1;startFill=1;endSize=3;startSize=3;" parent="Pl7IlCsuC_TJ1haGHuE9-69" edge="1">
          <mxGeometry width="50" height="50" relative="1" as="geometry">
            <mxPoint y="50" as="sourcePoint" />
            <mxPoint y="10" as="targetPoint" />
          </mxGeometry>
        </mxCell>
        <mxCell id="Pl7IlCsuC_TJ1haGHuE9-71" value="" style="endArrow=classic;startArrow=oval;html=1;rounded=0;strokeColor=#FF0000;strokeWidth=1;startFill=1;endSize=3;startSize=6;" parent="Pl7IlCsuC_TJ1haGHuE9-69" edge="1">
          <mxGeometry width="50" height="50" relative="1" as="geometry">
            <mxPoint y="50" as="sourcePoint" />
            <mxPoint x="40" y="50" as="targetPoint" />
          </mxGeometry>
        </mxCell>
        <mxCell id="Pl7IlCsuC_TJ1haGHuE9-72" value="" style="endArrow=classic;startArrow=oval;html=1;rounded=0;strokeColor=#FF0000;strokeWidth=1;startFill=1;endSize=3;startSize=3;" parent="Pl7IlCsuC_TJ1haGHuE9-69" edge="1">
          <mxGeometry width="50" height="50" relative="1" as="geometry">
            <mxPoint y="50" as="sourcePoint" />
            <mxPoint x="-20" y="60" as="targetPoint" />
          </mxGeometry>
        </mxCell>
        <mxCell id="Pl7IlCsuC_TJ1haGHuE9-73" value="&lt;font style=&quot;font-size: 13px;&quot;&gt;y&lt;/font&gt;" style="text;html=1;strokeColor=none;fillColor=none;align=center;verticalAlign=bottom;whiteSpace=wrap;rounded=0;dashed=1;strokeWidth=0.3;rotation=0;connectable=0;allowArrows=0;spacing=0;fontColor=#FF0000;fontSize=13;" parent="Pl7IlCsuC_TJ1haGHuE9-69" vertex="1">
          <mxGeometry x="-10" width="20" height="10" as="geometry" />
        </mxCell>
        <mxCell id="Pl7IlCsuC_TJ1haGHuE9-74" value="&lt;font style=&quot;font-size: 13px;&quot;&gt;x&lt;/font&gt;" style="text;html=1;strokeColor=none;fillColor=none;align=center;verticalAlign=bottom;whiteSpace=wrap;rounded=0;dashed=1;strokeWidth=0.3;rotation=0;connectable=0;allowArrows=0;spacing=0;fontColor=#FF0000;fontSize=13;" parent="Pl7IlCsuC_TJ1haGHuE9-69" vertex="1">
          <mxGeometry x="34" y="47" width="20" height="10" as="geometry" />
        </mxCell>
        <mxCell id="Pl7IlCsuC_TJ1haGHuE9-75" value="&lt;font style=&quot;font-size: 13px;&quot;&gt;z&lt;/font&gt;" style="text;html=1;strokeColor=none;fillColor=none;align=center;verticalAlign=bottom;whiteSpace=wrap;rounded=0;dashed=1;strokeWidth=0.3;rotation=0;connectable=0;allowArrows=0;spacing=0;fontColor=#FF0000;fontSize=13;" parent="Pl7IlCsuC_TJ1haGHuE9-69" vertex="1">
          <mxGeometry x="-36" y="60" width="20" height="10" as="geometry" />
        </mxCell>
        <mxCell id="Pl7IlCsuC_TJ1haGHuE9-76" value="&lt;font style=&quot;font-size: 13px;&quot; color=&quot;#007fff&quot;&gt;length&lt;/font&gt;" style="text;html=1;strokeColor=none;fillColor=none;align=center;verticalAlign=middle;whiteSpace=wrap;rounded=0;dashed=1;strokeWidth=0.3;rotation=-90;connectable=0;allowArrows=0;fontSize=13;" parent="1" vertex="1">
          <mxGeometry x="74.5" y="1154.98" width="60" height="20" as="geometry" />
        </mxCell>
        <mxCell id="Pl7IlCsuC_TJ1haGHuE9-77" value="" style="endArrow=classic;startArrow=classic;html=1;rounded=0;strokeColor=#007FFF;strokeWidth=0.5;endSize=3;startSize=3;" parent="1" edge="1">
          <mxGeometry width="50" height="50" relative="1" as="geometry">
            <mxPoint x="115.20000000000023" y="1253.6099999999997" as="sourcePoint" />
            <mxPoint x="115.20000000000023" y="1063.6100000000001" as="targetPoint" />
          </mxGeometry>
        </mxCell>
        <mxCell id="Pl7IlCsuC_TJ1haGHuE9-78" value="" style="endArrow=classic;startArrow=classic;html=1;rounded=0;strokeColor=#007FFF;strokeWidth=0.5;endSize=3;startSize=3;" parent="1" edge="1">
          <mxGeometry width="50" height="50" relative="1" as="geometry">
            <mxPoint x="296.5" y="1275.9999999999998" as="sourcePoint" />
            <mxPoint x="127.5" y="1275.9999999999998" as="targetPoint" />
          </mxGeometry>
        </mxCell>
        <mxCell id="Pl7IlCsuC_TJ1haGHuE9-79" value="&lt;font style=&quot;font-size: 13px;&quot; color=&quot;#007fff&quot;&gt;width&lt;/font&gt;" style="text;html=1;strokeColor=none;fillColor=none;align=center;verticalAlign=middle;whiteSpace=wrap;rounded=0;dashed=1;strokeWidth=0.3;rotation=0;connectable=0;allowArrows=0;fontSize=13;" parent="1" vertex="1">
          <mxGeometry x="195.5" y="1276.6100000000001" width="30" height="20" as="geometry" />
        </mxCell>
        <mxCell id="Pl7IlCsuC_TJ1haGHuE9-80" value="&lt;font style=&quot;font-size: 13px;&quot; color=&quot;#007fff&quot;&gt;thickness&lt;/font&gt;" style="text;html=1;strokeColor=none;fillColor=none;align=center;verticalAlign=middle;whiteSpace=wrap;rounded=0;dashed=1;strokeWidth=0.3;rotation=0;connectable=0;allowArrows=0;fontSize=13;" parent="1" vertex="1">
          <mxGeometry x="320.5" y="1243.6100000000001" width="60" height="20" as="geometry" />
        </mxCell>
        <mxCell id="Pl7IlCsuC_TJ1haGHuE9-81" value="" style="endArrow=classic;startArrow=classic;html=1;rounded=0;strokeColor=#007FFF;strokeWidth=0.5;endSize=3;startSize=3;" parent="1" edge="1">
          <mxGeometry width="50" height="50" relative="1" as="geometry">
            <mxPoint x="308.5" y="1254.98" as="sourcePoint" />
            <mxPoint x="324.5" y="1243.61" as="targetPoint" />
          </mxGeometry>
        </mxCell>
        <mxCell id="Pl7IlCsuC_TJ1haGHuE9-82" value="0" style="text;strokeColor=none;fillColor=none;align=center;verticalAlign=middle;rounded=0;dashed=1;strokeWidth=0.3;rotation=0;connectable=0;allowArrows=0;fontSize=6;html=1;spacing=0;fontColor=#66B2FF;" parent="1" vertex="1">
          <mxGeometry x="269.5" y="1253.6100000000001" width="10" height="10" as="geometry" />
        </mxCell>
        <mxCell id="Pl7IlCsuC_TJ1haGHuE9-83" value="1" style="text;strokeColor=none;fillColor=none;align=center;verticalAlign=middle;rounded=0;dashed=1;strokeWidth=0.3;rotation=0;connectable=0;allowArrows=0;fontSize=6;html=1;spacing=0;fontColor=#66B2FF;" parent="1" vertex="1">
          <mxGeometry x="154.5" y="1243.6100000000001" width="10" height="10" as="geometry" />
        </mxCell>
        <mxCell id="Pl7IlCsuC_TJ1haGHuE9-84" value="2" style="text;strokeColor=none;fillColor=none;align=center;verticalAlign=middle;rounded=0;dashed=1;strokeWidth=0.3;rotation=0;connectable=0;allowArrows=0;fontSize=6;html=1;spacing=0;fontColor=#66B2FF;" parent="1" vertex="1">
          <mxGeometry x="129.5" y="1201.98" width="10" height="10" as="geometry" />
        </mxCell>
        <mxCell id="Pl7IlCsuC_TJ1haGHuE9-85" value="3" style="text;strokeColor=none;fillColor=none;align=center;verticalAlign=middle;rounded=0;dashed=1;strokeWidth=0.3;rotation=0;connectable=0;allowArrows=0;fontSize=6;html=1;spacing=0;fontColor=#66B2FF;" parent="1" vertex="1">
          <mxGeometry x="146.5" y="1062.6100000000001" width="10" height="10" as="geometry" />
        </mxCell>
        <mxCell id="Pl7IlCsuC_TJ1haGHuE9-86" value="4" style="text;strokeColor=none;fillColor=none;align=center;verticalAlign=middle;rounded=0;dashed=1;strokeWidth=0.3;rotation=0;connectable=0;allowArrows=0;fontSize=6;html=1;spacing=0;fontColor=#66B2FF;" parent="1" vertex="1">
          <mxGeometry x="288.5" y="1062.6100000000001" width="10" height="10" as="geometry" />
        </mxCell>
        <mxCell id="Pl7IlCsuC_TJ1haGHuE9-87" value="5" style="text;strokeColor=none;fillColor=none;align=center;verticalAlign=middle;rounded=0;dashed=1;strokeWidth=0.3;rotation=0;connectable=0;allowArrows=0;fontSize=6;html=1;spacing=0;fontColor=#66B2FF;" parent="1" vertex="1">
          <mxGeometry x="287.5" y="1144.98" width="10" height="10" as="geometry" />
        </mxCell>
        <mxCell id="Pl7IlCsuC_TJ1haGHuE9-88" value="" style="endArrow=none;html=1;rounded=0;strokeColor=#999999;strokeWidth=0.5;fontSize=8;fontColor=#007FFF;dashed=1;" parent="1" edge="1">
          <mxGeometry width="50" height="50" relative="1" as="geometry">
            <mxPoint x="178.5" y="1244.98" as="sourcePoint" />
            <mxPoint x="158.5" y="1254.98" as="targetPoint" />
          </mxGeometry>
        </mxCell>
        <mxCell id="Pl7IlCsuC_TJ1haGHuE9-92" value="" style="endArrow=none;html=1;rounded=0;strokeColor=#000000;strokeWidth=1;fontSize=8;fontColor=#007FFF;" parent="1" edge="1">
          <mxGeometry width="50" height="50" relative="1" as="geometry">
            <mxPoint x="298.5" y="1154.98" as="sourcePoint" />
            <mxPoint x="318.5" y="1144.98" as="targetPoint" />
          </mxGeometry>
        </mxCell>
        <mxCell id="Pl7IlCsuC_TJ1haGHuE9-94" value="" style="endArrow=none;html=1;rounded=0;strokeColor=#999999;strokeWidth=0.5;fontSize=8;fontColor=#007FFF;dashed=1;" parent="1" edge="1">
          <mxGeometry width="50" height="50" relative="1" as="geometry">
            <mxPoint x="148.5" y="1194.6100000000001" as="sourcePoint" />
            <mxPoint x="128.5" y="1204.6100000000001" as="targetPoint" />
          </mxGeometry>
        </mxCell>
        <mxCell id="Pl7IlCsuC_TJ1haGHuE9-95" value="" style="endArrow=none;html=1;rounded=0;strokeColor=#000000;strokeWidth=7;fontSize=12;fontColor=#000000;" parent="1" edge="1">
          <mxGeometry width="50" height="50" relative="1" as="geometry">
            <mxPoint x="10.499999999999773" y="1324.9799999999998" as="sourcePoint" />
            <mxPoint x="440" y="1324.9799999999998" as="targetPoint" />
          </mxGeometry>
        </mxCell>
        <mxCell id="Pl7IlCsuC_TJ1haGHuE9-96" value="RightPalm" style="text;html=1;strokeColor=none;fillColor=none;align=left;verticalAlign=middle;whiteSpace=wrap;rounded=0;fontStyle=1" parent="1" vertex="1">
          <mxGeometry x="15.5" y="1004.98" width="88" height="30" as="geometry" />
        </mxCell>
        <mxCell id="ds-SasLI7hPCnYkfT3IA-576" value="Sensor" style="text;html=1;strokeColor=none;fillColor=none;align=center;verticalAlign=middle;whiteSpace=wrap;rounded=0;fontStyle=1" parent="1" vertex="1">
          <mxGeometry x="1008" y="212.66" width="50" height="20" as="geometry" />
        </mxCell>
        <mxCell id="ds-SasLI7hPCnYkfT3IA-577" value="" style="endArrow=classic;html=1;rounded=0;strokeWidth=0.5;startSize=3;endSize=3;exitX=0.5;exitY=0;exitDx=0;exitDy=0;" parent="1" source="ds-SasLI7hPCnYkfT3IA-576" edge="1">
          <mxGeometry width="50" height="50" relative="1" as="geometry">
            <mxPoint x="848" y="184" as="sourcePoint" />
            <mxPoint x="1033" y="164" as="targetPoint" />
          </mxGeometry>
        </mxCell>
        <mxCell id="ds-SasLI7hPCnYkfT3IA-11" value="" style="ellipse;whiteSpace=wrap;html=1;fillColor=#ffffff;strokeWidth=0.5;gradientColor=#999999;gradientDirection=radial;strokeColor=default;" parent="1" vertex="1">
          <mxGeometry x="1022" y="142" width="21" height="21" as="geometry" />
        </mxCell>
        <mxCell id="ds-SasLI7hPCnYkfT3IA-473" value="" style="group" parent="1" vertex="1" connectable="0">
          <mxGeometry x="1014" y="135" width="37.5" height="37.5" as="geometry" />
        </mxCell>
        <mxCell id="ds-SasLI7hPCnYkfT3IA-369" value="" style="rounded=0;whiteSpace=wrap;html=1;fillStyle=auto;strokeColor=none;strokeWidth=0;fillColor=#808080;gradientColor=none;gradientDirection=radial;" parent="ds-SasLI7hPCnYkfT3IA-473" vertex="1">
          <mxGeometry x="9.67741935483871" y="12.096774193548388" width="1.2096774193548387" height="1.2096774193548387" as="geometry" />
        </mxCell>
        <mxCell id="ds-SasLI7hPCnYkfT3IA-370" value="" style="rounded=0;whiteSpace=wrap;html=1;fillStyle=auto;strokeColor=none;strokeWidth=0;fillColor=#808080;gradientColor=none;gradientDirection=radial;" parent="ds-SasLI7hPCnYkfT3IA-473" vertex="1">
          <mxGeometry x="14.516129032258064" y="12.096774193548388" width="1.2096774193548387" height="1.2096774193548387" as="geometry" />
        </mxCell>
        <mxCell id="ds-SasLI7hPCnYkfT3IA-371" value="" style="rounded=0;whiteSpace=wrap;html=1;fillStyle=auto;strokeColor=none;strokeWidth=0;fillColor=#808080;gradientColor=none;gradientDirection=radial;" parent="ds-SasLI7hPCnYkfT3IA-473" vertex="1">
          <mxGeometry x="12.096774193548388" y="14.516129032258064" width="1.2096774193548387" height="1.2096774193548387" as="geometry" />
        </mxCell>
        <mxCell id="ds-SasLI7hPCnYkfT3IA-372" value="" style="rounded=0;whiteSpace=wrap;html=1;fillStyle=auto;strokeColor=none;strokeWidth=0;fillColor=#808080;gradientColor=none;gradientDirection=radial;" parent="ds-SasLI7hPCnYkfT3IA-473" vertex="1">
          <mxGeometry x="16.935483870967744" y="14.516129032258064" width="1.2096774193548387" height="1.2096774193548387" as="geometry" />
        </mxCell>
        <mxCell id="ds-SasLI7hPCnYkfT3IA-373" value="" style="rounded=0;whiteSpace=wrap;html=1;fillStyle=auto;strokeColor=none;strokeWidth=0;fillColor=#808080;gradientColor=none;gradientDirection=radial;" parent="ds-SasLI7hPCnYkfT3IA-473" vertex="1">
          <mxGeometry x="12.096774193548388" y="9.67741935483871" width="1.2096774193548387" height="1.2096774193548387" as="geometry" />
        </mxCell>
        <mxCell id="ds-SasLI7hPCnYkfT3IA-374" value="" style="rounded=0;whiteSpace=wrap;html=1;fillStyle=auto;strokeColor=none;strokeWidth=0;fillColor=#808080;gradientColor=none;gradientDirection=radial;" parent="ds-SasLI7hPCnYkfT3IA-473" vertex="1">
          <mxGeometry x="16.935483870967744" y="9.67741935483871" width="1.2096774193548387" height="1.2096774193548387" as="geometry" />
        </mxCell>
        <mxCell id="ds-SasLI7hPCnYkfT3IA-375" value="" style="rounded=0;whiteSpace=wrap;html=1;fillStyle=auto;strokeColor=none;strokeWidth=0;fillColor=#808080;gradientColor=none;gradientDirection=radial;" parent="ds-SasLI7hPCnYkfT3IA-473" vertex="1">
          <mxGeometry x="9.67741935483871" y="16.935483870967744" width="1.2096774193548387" height="1.2096774193548387" as="geometry" />
        </mxCell>
        <mxCell id="ds-SasLI7hPCnYkfT3IA-376" value="" style="rounded=0;whiteSpace=wrap;html=1;fillStyle=auto;strokeColor=none;strokeWidth=0;fillColor=#808080;gradientColor=none;gradientDirection=radial;" parent="ds-SasLI7hPCnYkfT3IA-473" vertex="1">
          <mxGeometry x="14.516129032258064" y="16.935483870967744" width="1.2096774193548387" height="1.2096774193548387" as="geometry" />
        </mxCell>
        <mxCell id="ds-SasLI7hPCnYkfT3IA-393" value="" style="rounded=0;whiteSpace=wrap;html=1;fillStyle=auto;strokeColor=none;strokeWidth=0;fillColor=#808080;gradientColor=none;gradientDirection=radial;" parent="ds-SasLI7hPCnYkfT3IA-473" vertex="1">
          <mxGeometry x="19.35483870967742" y="12.096774193548388" width="1.2096774193548387" height="1.2096774193548387" as="geometry" />
        </mxCell>
        <mxCell id="ds-SasLI7hPCnYkfT3IA-394" value="" style="rounded=0;whiteSpace=wrap;html=1;fillStyle=auto;strokeColor=none;strokeWidth=0;fillColor=#808080;gradientColor=none;gradientDirection=radial;" parent="ds-SasLI7hPCnYkfT3IA-473" vertex="1">
          <mxGeometry x="24.193548387096776" y="12.096774193548388" width="1.2096774193548387" height="1.2096774193548387" as="geometry" />
        </mxCell>
        <mxCell id="ds-SasLI7hPCnYkfT3IA-395" value="" style="rounded=0;whiteSpace=wrap;html=1;fillStyle=auto;strokeColor=none;strokeWidth=0;fillColor=#808080;gradientColor=none;gradientDirection=radial;" parent="ds-SasLI7hPCnYkfT3IA-473" vertex="1">
          <mxGeometry x="21.7741935483871" y="14.516129032258064" width="1.2096774193548387" height="1.2096774193548387" as="geometry" />
        </mxCell>
        <mxCell id="ds-SasLI7hPCnYkfT3IA-396" value="" style="rounded=0;whiteSpace=wrap;html=1;fillStyle=auto;strokeColor=none;strokeWidth=0;fillColor=#808080;gradientColor=none;gradientDirection=radial;" parent="ds-SasLI7hPCnYkfT3IA-473" vertex="1">
          <mxGeometry x="26.61290322580645" y="14.516129032258064" width="1.2096774193548387" height="1.2096774193548387" as="geometry" />
        </mxCell>
        <mxCell id="ds-SasLI7hPCnYkfT3IA-397" value="" style="rounded=0;whiteSpace=wrap;html=1;fillStyle=auto;strokeColor=none;strokeWidth=0;fillColor=#808080;gradientColor=none;gradientDirection=radial;" parent="ds-SasLI7hPCnYkfT3IA-473" vertex="1">
          <mxGeometry x="21.7741935483871" y="9.67741935483871" width="1.2096774193548387" height="1.2096774193548387" as="geometry" />
        </mxCell>
        <mxCell id="ds-SasLI7hPCnYkfT3IA-399" value="" style="rounded=0;whiteSpace=wrap;html=1;fillStyle=auto;strokeColor=none;strokeWidth=0;fillColor=#808080;gradientColor=none;gradientDirection=radial;" parent="ds-SasLI7hPCnYkfT3IA-473" vertex="1">
          <mxGeometry x="19.35483870967742" y="16.935483870967744" width="1.2096774193548387" height="1.2096774193548387" as="geometry" />
        </mxCell>
        <mxCell id="ds-SasLI7hPCnYkfT3IA-400" value="" style="rounded=0;whiteSpace=wrap;html=1;fillStyle=auto;strokeColor=none;strokeWidth=0;fillColor=#808080;gradientColor=none;gradientDirection=radial;" parent="ds-SasLI7hPCnYkfT3IA-473" vertex="1">
          <mxGeometry x="24.193548387096776" y="16.935483870967744" width="1.2096774193548387" height="1.2096774193548387" as="geometry" />
        </mxCell>
        <mxCell id="ds-SasLI7hPCnYkfT3IA-409" value="" style="rounded=0;whiteSpace=wrap;html=1;fillStyle=auto;strokeColor=none;strokeWidth=0;fillColor=#808080;gradientColor=none;gradientDirection=radial;" parent="ds-SasLI7hPCnYkfT3IA-473" vertex="1">
          <mxGeometry x="19.35483870967742" y="21.7741935483871" width="1.2096774193548387" height="1.2096774193548387" as="geometry" />
        </mxCell>
        <mxCell id="ds-SasLI7hPCnYkfT3IA-410" value="" style="rounded=0;whiteSpace=wrap;html=1;fillStyle=auto;strokeColor=none;strokeWidth=0;fillColor=#808080;gradientColor=none;gradientDirection=radial;" parent="ds-SasLI7hPCnYkfT3IA-473" vertex="1">
          <mxGeometry x="24.193548387096776" y="21.7741935483871" width="1.2096774193548387" height="1.2096774193548387" as="geometry" />
        </mxCell>
        <mxCell id="ds-SasLI7hPCnYkfT3IA-411" value="" style="rounded=0;whiteSpace=wrap;html=1;fillStyle=auto;strokeColor=none;strokeWidth=0;fillColor=#808080;gradientColor=none;gradientDirection=radial;" parent="ds-SasLI7hPCnYkfT3IA-473" vertex="1">
          <mxGeometry x="21.7741935483871" y="24.193548387096776" width="1.2096774193548387" height="1.2096774193548387" as="geometry" />
        </mxCell>
        <mxCell id="ds-SasLI7hPCnYkfT3IA-413" value="" style="rounded=0;whiteSpace=wrap;html=1;fillStyle=auto;strokeColor=none;strokeWidth=0;fillColor=#808080;gradientColor=none;gradientDirection=radial;" parent="ds-SasLI7hPCnYkfT3IA-473" vertex="1">
          <mxGeometry x="21.7741935483871" y="19.35483870967742" width="1.2096774193548387" height="1.2096774193548387" as="geometry" />
        </mxCell>
        <mxCell id="ds-SasLI7hPCnYkfT3IA-414" value="" style="rounded=0;whiteSpace=wrap;html=1;fillStyle=auto;strokeColor=none;strokeWidth=0;fillColor=#808080;gradientColor=none;gradientDirection=radial;" parent="ds-SasLI7hPCnYkfT3IA-473" vertex="1">
          <mxGeometry x="26.61290322580645" y="19.35483870967742" width="1.2096774193548387" height="1.2096774193548387" as="geometry" />
        </mxCell>
        <mxCell id="ds-SasLI7hPCnYkfT3IA-415" value="" style="rounded=0;whiteSpace=wrap;html=1;fillStyle=auto;strokeColor=none;strokeWidth=0;fillColor=#808080;gradientColor=none;gradientDirection=radial;" parent="ds-SasLI7hPCnYkfT3IA-473" vertex="1">
          <mxGeometry x="19.35483870967742" y="26.61290322580645" width="1.2096774193548387" height="1.2096774193548387" as="geometry" />
        </mxCell>
        <mxCell id="ds-SasLI7hPCnYkfT3IA-449" value="" style="rounded=0;whiteSpace=wrap;html=1;fillStyle=auto;strokeColor=none;strokeWidth=0;fillColor=#808080;gradientColor=none;gradientDirection=radial;" parent="ds-SasLI7hPCnYkfT3IA-473" vertex="1">
          <mxGeometry x="9.67741935483871" y="21.7741935483871" width="1.2096774193548387" height="1.2096774193548387" as="geometry" />
        </mxCell>
        <mxCell id="ds-SasLI7hPCnYkfT3IA-450" value="" style="rounded=0;whiteSpace=wrap;html=1;fillStyle=auto;strokeColor=none;strokeWidth=0;fillColor=#808080;gradientColor=none;gradientDirection=radial;" parent="ds-SasLI7hPCnYkfT3IA-473" vertex="1">
          <mxGeometry x="14.516129032258064" y="21.7741935483871" width="1.2096774193548387" height="1.2096774193548387" as="geometry" />
        </mxCell>
        <mxCell id="ds-SasLI7hPCnYkfT3IA-451" value="" style="rounded=0;whiteSpace=wrap;html=1;fillStyle=auto;strokeColor=none;strokeWidth=0;fillColor=#808080;gradientColor=none;gradientDirection=radial;" parent="ds-SasLI7hPCnYkfT3IA-473" vertex="1">
          <mxGeometry x="12.096774193548388" y="24.193548387096776" width="1.2096774193548387" height="1.2096774193548387" as="geometry" />
        </mxCell>
        <mxCell id="ds-SasLI7hPCnYkfT3IA-452" value="" style="rounded=0;whiteSpace=wrap;html=1;fillStyle=auto;strokeColor=none;strokeWidth=0;fillColor=#808080;gradientColor=none;gradientDirection=radial;" parent="ds-SasLI7hPCnYkfT3IA-473" vertex="1">
          <mxGeometry x="16.935483870967744" y="24.193548387096776" width="1.2096774193548387" height="1.2096774193548387" as="geometry" />
        </mxCell>
        <mxCell id="ds-SasLI7hPCnYkfT3IA-453" value="" style="rounded=0;whiteSpace=wrap;html=1;fillStyle=auto;strokeColor=none;strokeWidth=0;fillColor=#808080;gradientColor=none;gradientDirection=radial;" parent="ds-SasLI7hPCnYkfT3IA-473" vertex="1">
          <mxGeometry x="12.096774193548388" y="19.35483870967742" width="1.2096774193548387" height="1.2096774193548387" as="geometry" />
        </mxCell>
        <mxCell id="ds-SasLI7hPCnYkfT3IA-454" value="" style="rounded=0;whiteSpace=wrap;html=1;fillStyle=auto;strokeColor=none;strokeWidth=0;fillColor=#808080;gradientColor=none;gradientDirection=radial;" parent="ds-SasLI7hPCnYkfT3IA-473" vertex="1">
          <mxGeometry x="16.935483870967744" y="19.35483870967742" width="1.2096774193548387" height="1.2096774193548387" as="geometry" />
        </mxCell>
        <mxCell id="xQ5OIZUcRNyhNX2FEhi8-1" value="" style="endArrow=none;html=1;rounded=0;anchorPointDirection=0;strokeWidth=2;" parent="1" edge="1">
          <mxGeometry width="50" height="50" relative="1" as="geometry">
            <mxPoint x="821.4399999999999" y="457.99999999999994" as="sourcePoint" />
            <mxPoint x="1160" y="458" as="targetPoint" />
          </mxGeometry>
        </mxCell>
        <mxCell id="xQ5OIZUcRNyhNX2FEhi8-191" value="" style="endArrow=none;html=1;rounded=0;strokeColor=#000000;strokeWidth=7;fontSize=12;fontColor=#000000;" parent="1" edge="1">
          <mxGeometry width="50" height="50" relative="1" as="geometry">
            <mxPoint x="760" y="503" as="sourcePoint" />
            <mxPoint x="1240" y="503" as="targetPoint" />
          </mxGeometry>
        </mxCell>
        <mxCell id="xQ5OIZUcRNyhNX2FEhi8-196" value="" style="endArrow=none;html=1;rounded=0;strokeColor=#000000;strokeWidth=7;fontSize=12;fontColor=#000000;" parent="1" edge="1">
          <mxGeometry width="50" height="50" relative="1" as="geometry">
            <mxPoint x="760" y="691.8199999999999" as="sourcePoint" />
            <mxPoint x="1240" y="691.8199999999999" as="targetPoint" />
          </mxGeometry>
        </mxCell>
        <mxCell id="xQ5OIZUcRNyhNX2FEhi8-197" value="" style="endArrow=none;html=1;rounded=0;strokeColor=#000000;strokeWidth=7;fontSize=12;fontColor=#000000;" parent="1" edge="1">
          <mxGeometry width="50" height="50" relative="1" as="geometry">
            <mxPoint x="940" y="499.5" as="sourcePoint" />
            <mxPoint x="940" y="689.5" as="targetPoint" />
          </mxGeometry>
        </mxCell>
        <mxCell id="xQ5OIZUcRNyhNX2FEhi8-203" value="" style="endArrow=none;html=1;rounded=0;strokeWidth=2;" parent="1" edge="1">
          <mxGeometry width="50" height="50" relative="1" as="geometry">
            <mxPoint x="1029.5" y="550.25" as="sourcePoint" />
            <mxPoint x="1159.5" y="649.25" as="targetPoint" />
            <Array as="points">
              <mxPoint x="1179.5" y="549.25" />
              <mxPoint x="1179.5" y="639.25" />
            </Array>
          </mxGeometry>
        </mxCell>
        <mxCell id="xQ5OIZUcRNyhNX2FEhi8-205" value="" style="endArrow=none;html=1;rounded=0;strokeColor=#000000;strokeWidth=2;fontSize=8;fontColor=#007FFF;" parent="1" edge="1">
          <mxGeometry width="50" height="50" relative="1" as="geometry">
            <mxPoint x="1159.5" y="559.25" as="sourcePoint" />
            <mxPoint x="1179.5" y="550.25" as="targetPoint" />
          </mxGeometry>
        </mxCell>
        <mxCell id="xQ5OIZUcRNyhNX2FEhi8-207" value="" style="endArrow=none;html=1;rounded=0;strokeColor=#000000;strokeWidth=2;fontSize=8;fontColor=#007FFF;" parent="1" edge="1">
          <mxGeometry width="50" height="50" relative="1" as="geometry">
            <mxPoint x="1009.5" y="559.25" as="sourcePoint" />
            <mxPoint x="1029.5" y="550.25" as="targetPoint" />
          </mxGeometry>
        </mxCell>
        <mxCell id="xQ5OIZUcRNyhNX2FEhi8-210" value="" style="endArrow=none;html=1;rounded=0;strokeColor=#999999;strokeWidth=0.5;fontSize=8;fontColor=#007FFF;dashed=1;" parent="1" edge="1">
          <mxGeometry width="50" height="50" relative="1" as="geometry">
            <mxPoint x="1009.5" y="649.25" as="sourcePoint" />
            <mxPoint x="1029.4999999999998" y="639.88" as="targetPoint" />
          </mxGeometry>
        </mxCell>
        <mxCell id="xQ5OIZUcRNyhNX2FEhi8-213" value="" style="endArrow=none;html=1;rounded=0;strokeWidth=2;" parent="1" edge="1">
          <mxGeometry width="50" height="50" relative="1" as="geometry">
            <mxPoint x="1009.5" y="649.25" as="sourcePoint" />
            <mxPoint x="1009.5" y="649.25" as="targetPoint" />
            <Array as="points">
              <mxPoint x="1009.5" y="559.25" />
              <mxPoint x="1159.5" y="559.25" />
              <mxPoint x="1159.5" y="649.25" />
            </Array>
          </mxGeometry>
        </mxCell>
        <mxCell id="ZrXf-iSmbWykKShM5800-1" value="6" style="text;strokeColor=none;fillColor=none;align=center;verticalAlign=middle;rounded=0;dashed=1;strokeWidth=0.3;rotation=0;connectable=0;allowArrows=0;fontSize=6;html=1;spacing=0;fontColor=#66B2FF;" parent="1" vertex="1">
          <mxGeometry x="167.5" y="925.48" width="10" height="10" as="geometry" />
        </mxCell>
        <mxCell id="ZrXf-iSmbWykKShM5800-2" value="7" style="text;strokeColor=none;fillColor=none;align=center;verticalAlign=middle;rounded=0;dashed=1;strokeWidth=0.3;rotation=0;connectable=0;allowArrows=0;fontSize=6;html=1;spacing=0;fontColor=#66B2FF;" parent="1" vertex="1">
          <mxGeometry x="291.5" y="925.48" width="10" height="10" as="geometry" />
        </mxCell>
        <mxCell id="ZrXf-iSmbWykKShM5800-3" value="8" style="text;strokeColor=none;fillColor=none;align=center;verticalAlign=middle;rounded=0;dashed=1;strokeWidth=0.3;rotation=0;connectable=0;allowArrows=0;fontSize=6;html=1;spacing=0;fontColor=#66B2FF;" parent="1" vertex="1">
          <mxGeometry x="320.5" y="875.98" width="10" height="10" as="geometry" />
        </mxCell>
        <mxCell id="ZrXf-iSmbWykKShM5800-4" value="9" style="text;strokeColor=none;fillColor=none;align=center;verticalAlign=middle;rounded=0;dashed=1;strokeWidth=0.3;rotation=0;connectable=0;allowArrows=0;fontSize=6;html=1;spacing=0;fontColor=#66B2FF;" parent="1" vertex="1">
          <mxGeometry x="300.5" y="746.98" width="10" height="10" as="geometry" />
        </mxCell>
        <mxCell id="ZrXf-iSmbWykKShM5800-5" value="10" style="text;strokeColor=none;fillColor=none;align=center;verticalAlign=middle;rounded=0;dashed=1;strokeWidth=0.3;rotation=0;connectable=0;allowArrows=0;fontSize=6;html=1;spacing=0;fontColor=#66B2FF;" parent="1" vertex="1">
          <mxGeometry x="148.5" y="745.48" width="10" height="10" as="geometry" />
        </mxCell>
        <mxCell id="ZrXf-iSmbWykKShM5800-6" value="11" style="text;strokeColor=none;fillColor=none;align=center;verticalAlign=middle;rounded=0;dashed=1;strokeWidth=0.3;rotation=0;connectable=0;allowArrows=0;fontSize=6;html=1;spacing=0;fontColor=#66B2FF;" parent="1" vertex="1">
          <mxGeometry x="147.5" y="824.48" width="10" height="10" as="geometry" />
        </mxCell>
        <mxCell id="ZrXf-iSmbWykKShM5800-7" value="6" style="text;strokeColor=none;fillColor=none;align=center;verticalAlign=middle;rounded=0;dashed=1;strokeWidth=0.3;rotation=0;connectable=0;allowArrows=0;fontSize=6;html=1;spacing=0;fontColor=#66B2FF;" parent="1" vertex="1">
          <mxGeometry x="290.5" y="1233.6100000000001" width="10" height="10" as="geometry" />
        </mxCell>
        <mxCell id="ZrXf-iSmbWykKShM5800-8" value="7" style="text;strokeColor=none;fillColor=none;align=center;verticalAlign=middle;rounded=0;dashed=1;strokeWidth=0.3;rotation=0;connectable=0;allowArrows=0;fontSize=6;html=1;spacing=0;fontColor=#66B2FF;" parent="1" vertex="1">
          <mxGeometry x="176.5" y="1233.6100000000001" width="10" height="10" as="geometry" />
        </mxCell>
        <mxCell id="ZrXf-iSmbWykKShM5800-9" value="8" style="text;strokeColor=none;fillColor=none;align=center;verticalAlign=middle;rounded=0;dashed=1;strokeWidth=0.3;rotation=0;connectable=0;allowArrows=0;fontSize=6;html=1;spacing=0;fontColor=#66B2FF;" parent="1" vertex="1">
          <mxGeometry x="146.5" y="1189.1100000000001" width="10" height="10" as="geometry" />
        </mxCell>
        <mxCell id="ZrXf-iSmbWykKShM5800-10" value="9" style="text;strokeColor=none;fillColor=none;align=center;verticalAlign=middle;rounded=0;dashed=1;strokeWidth=0.3;rotation=0;connectable=0;allowArrows=0;fontSize=6;html=1;spacing=0;fontColor=#66B2FF;" parent="1" vertex="1">
          <mxGeometry x="156.5" y="1047.48" width="10" height="10" as="geometry" />
        </mxCell>
        <mxCell id="ZrXf-iSmbWykKShM5800-11" value="10" style="text;strokeColor=none;fillColor=none;align=center;verticalAlign=middle;rounded=0;dashed=1;strokeWidth=0.3;rotation=0;connectable=0;allowArrows=0;fontSize=6;html=1;spacing=0;fontColor=#66B2FF;" parent="1" vertex="1">
          <mxGeometry x="308.5" y="1057.48" width="10" height="10" as="geometry" />
        </mxCell>
        <mxCell id="ZrXf-iSmbWykKShM5800-12" value="11" style="text;strokeColor=none;fillColor=none;align=center;verticalAlign=middle;rounded=0;dashed=1;strokeWidth=0.3;rotation=0;connectable=0;allowArrows=0;fontSize=6;html=1;spacing=0;fontColor=#66B2FF;" parent="1" vertex="1">
          <mxGeometry x="309.5" y="1134.98" width="10" height="10" as="geometry" />
        </mxCell>
        <mxCell id="ccODbXn0507IZ0daL7nA-1" value="" style="endArrow=classic;startArrow=classic;html=1;rounded=0;strokeColor=#808080;strokeWidth=0.5;endSize=3;startSize=3;fontColor=#808080;" parent="1" edge="1">
          <mxGeometry width="50" height="50" relative="1" as="geometry">
            <mxPoint x="680" y="350" as="sourcePoint" />
            <mxPoint x="680" y="311" as="targetPoint" />
          </mxGeometry>
        </mxCell>
        <mxCell id="ccODbXn0507IZ0daL7nA-2" value="&lt;font style=&quot;font-size: 13px;&quot;&gt;height&lt;/font&gt;" style="text;html=1;strokeColor=none;fillColor=none;align=left;verticalAlign=middle;whiteSpace=wrap;rounded=0;dashed=1;strokeWidth=0.3;rotation=0;connectable=0;allowArrows=0;fontSize=13;fontFamily=Calibri Light;fontColor=#808080;" parent="1" vertex="1">
          <mxGeometry x="685" y="320" width="39" height="20" as="geometry" />
        </mxCell>
        <mxCell id="ccODbXn0507IZ0daL7nA-13" value="" style="group" parent="1" vertex="1" connectable="0">
          <mxGeometry x="580" y="323" width="7.65" height="15" as="geometry" />
        </mxCell>
        <mxCell id="ccODbXn0507IZ0daL7nA-10" value="" style="verticalLabelPosition=bottom;verticalAlign=top;html=1;shape=mxgraph.basic.arc;startAngle=0.37301066681813777;endAngle=0.125;strokeWidth=0.5;dashed=1;dashPattern=1 1;strokeColor=#808080;connectable=0;" parent="ccODbXn0507IZ0daL7nA-13" vertex="1">
          <mxGeometry width="6.4905945056752365" height="15" as="geometry" />
        </mxCell>
        <mxCell id="ccODbXn0507IZ0daL7nA-12" value="" style="triangle;whiteSpace=wrap;html=1;strokeColor=none;fillColor=#808080;rotation=-64;fontColor=#808080;" parent="ccODbXn0507IZ0daL7nA-13" vertex="1">
          <mxGeometry x="4.614700139873127" y="10.5" width="2.8138415487031367" height="2.25" as="geometry" />
        </mxCell>
        <mxCell id="ccODbXn0507IZ0daL7nA-14" value="" style="endArrow=classic;startArrow=classic;html=1;rounded=0;strokeColor=#808080;strokeWidth=0.5;endSize=3;startSize=3;fontColor=#808080;" parent="1" edge="1">
          <mxGeometry width="50" height="50" relative="1" as="geometry">
            <mxPoint x="658.38" y="528.5" as="sourcePoint" />
            <mxPoint x="658.38" y="489.5" as="targetPoint" />
          </mxGeometry>
        </mxCell>
        <mxCell id="ccODbXn0507IZ0daL7nA-15" value="&lt;font style=&quot;font-size: 13px;&quot;&gt;height&lt;/font&gt;" style="text;html=1;strokeColor=none;fillColor=none;align=left;verticalAlign=middle;whiteSpace=wrap;rounded=0;dashed=1;strokeWidth=0.3;rotation=0;connectable=0;allowArrows=0;fontSize=13;fontFamily=Calibri Light;fontColor=#808080;" parent="1" vertex="1">
          <mxGeometry x="663.38" y="498.5" width="39" height="20" as="geometry" />
        </mxCell>
        <mxCell id="ccODbXn0507IZ0daL7nA-16" value="" style="endArrow=classic;startArrow=classic;html=1;rounded=0;strokeColor=#808080;strokeWidth=0.5;endSize=3;startSize=3;fontColor=#808080;" parent="1" edge="1">
          <mxGeometry width="50" height="50" relative="1" as="geometry">
            <mxPoint x="490" y="556" as="sourcePoint" />
            <mxPoint x="650" y="556" as="targetPoint" />
          </mxGeometry>
        </mxCell>
        <mxCell id="ccODbXn0507IZ0daL7nA-17" value="&lt;font style=&quot;font-size: 13px;&quot;&gt;width&lt;/font&gt;" style="text;html=1;strokeColor=none;fillColor=none;align=center;verticalAlign=middle;whiteSpace=wrap;rounded=0;dashed=1;strokeWidth=0.3;rotation=0;connectable=0;allowArrows=0;fontSize=13;fontFamily=Calibri Light;fontColor=#808080;" parent="1" vertex="1">
          <mxGeometry x="545" y="555.5" width="50" height="17" as="geometry" />
        </mxCell>
        <mxCell id="ccODbXn0507IZ0daL7nA-22" value="&lt;font style=&quot;font-size: 13px;&quot;&gt;y&lt;/font&gt;" style="text;html=1;strokeColor=none;fillColor=none;align=center;verticalAlign=bottom;whiteSpace=wrap;rounded=0;dashed=1;strokeWidth=0.3;rotation=0;connectable=0;allowArrows=0;spacing=0;fontColor=#808080;fontSize=13;fontFamily=Calibri Light;" parent="1" vertex="1">
          <mxGeometry x="567" y="499" width="20" height="10" as="geometry" />
        </mxCell>
        <mxCell id="WtulU0ySZnqA_JgglzCk-1" value="" style="group;rotation=-90;" parent="1" vertex="1" connectable="0">
          <mxGeometry x="566" y="511" width="7.65" height="15" as="geometry" />
        </mxCell>
        <mxCell id="WtulU0ySZnqA_JgglzCk-2" value="" style="verticalLabelPosition=bottom;verticalAlign=top;html=1;shape=mxgraph.basic.arc;startAngle=0.37301066681813777;endAngle=0.125;strokeWidth=0.5;dashed=1;dashPattern=1 1;strokeColor=#808080;connectable=0;rotation=-90;" parent="WtulU0ySZnqA_JgglzCk-1" vertex="1">
          <mxGeometry x="1" y="1" width="6.4905945056752365" height="15" as="geometry" />
        </mxCell>
        <mxCell id="WtulU0ySZnqA_JgglzCk-3" value="" style="triangle;whiteSpace=wrap;html=1;strokeColor=none;fillColor=#808080;rotation=-154;fontColor=#808080;" parent="WtulU0ySZnqA_JgglzCk-1" vertex="1">
          <mxGeometry x="7" y="4" width="2.8138415487031367" height="2.25" as="geometry" />
        </mxCell>
        <mxCell id="WtulU0ySZnqA_JgglzCk-4" value="" style="endArrow=classic;startArrow=classic;html=1;rounded=0;strokeColor=#808080;strokeWidth=0.5;endSize=3;startSize=3;fontColor=#808080;" parent="1" edge="1">
          <mxGeometry width="50" height="50" relative="1" as="geometry">
            <mxPoint x="498" y="197" as="sourcePoint" />
            <mxPoint x="498" y="158" as="targetPoint" />
          </mxGeometry>
        </mxCell>
        <mxCell id="WtulU0ySZnqA_JgglzCk-5" value="&lt;font style=&quot;font-size: 13px;&quot;&gt;height&lt;/font&gt;" style="text;html=1;strokeColor=none;fillColor=none;align=left;verticalAlign=middle;whiteSpace=wrap;rounded=0;dashed=1;strokeWidth=0.3;rotation=0;connectable=0;allowArrows=0;fontSize=13;fontFamily=Calibri Light;fontColor=#808080;" parent="1" vertex="1">
          <mxGeometry x="454" y="168.13" width="39" height="20" as="geometry" />
        </mxCell>
        <mxCell id="WtulU0ySZnqA_JgglzCk-6" value="" style="endArrow=classic;startArrow=classic;html=1;rounded=0;strokeColor=#808080;strokeWidth=0.5;endSize=3;startSize=3;fontColor=#808080;" parent="1" edge="1">
          <mxGeometry width="50" height="50" relative="1" as="geometry">
            <mxPoint x="549" y="199" as="sourcePoint" />
            <mxPoint x="702" y="113" as="targetPoint" />
          </mxGeometry>
        </mxCell>
        <mxCell id="WtulU0ySZnqA_JgglzCk-7" value="&lt;font style=&quot;font-size: 13px;&quot;&gt;width&lt;/font&gt;" style="text;html=1;strokeColor=none;fillColor=none;align=center;verticalAlign=middle;whiteSpace=wrap;rounded=0;dashed=1;strokeWidth=0.3;rotation=0;connectable=0;allowArrows=0;fontSize=13;fontFamily=Calibri Light;fontColor=#808080;" parent="1" vertex="1">
          <mxGeometry x="611" y="155" width="50" height="17" as="geometry" />
        </mxCell>
        <mxCell id="WtulU0ySZnqA_JgglzCk-8" value="" style="group;dropTarget=0;" parent="1" vertex="1" connectable="0">
          <mxGeometry x="579.65" y="83" width="80" height="69" as="geometry" />
        </mxCell>
        <mxCell id="WtulU0ySZnqA_JgglzCk-9" value="" style="endArrow=classic;startArrow=oval;html=1;rounded=0;strokeColor=#808080;strokeWidth=0.5;startFill=1;endSize=3;startSize=3;" parent="WtulU0ySZnqA_JgglzCk-8" edge="1">
          <mxGeometry width="50" height="50" relative="1" as="geometry">
            <mxPoint x="30" y="50" as="sourcePoint" />
            <mxPoint x="30" y="10" as="targetPoint" />
          </mxGeometry>
        </mxCell>
        <mxCell id="WtulU0ySZnqA_JgglzCk-10" value="" style="endArrow=classic;startArrow=oval;html=1;rounded=0;strokeColor=#808080;strokeWidth=0.5;startFill=1;endSize=3;startSize=6;" parent="WtulU0ySZnqA_JgglzCk-8" edge="1">
          <mxGeometry width="50" height="50" relative="1" as="geometry">
            <mxPoint x="30" y="50" as="sourcePoint" />
            <mxPoint x="55.35000000000002" y="49.75" as="targetPoint" />
          </mxGeometry>
        </mxCell>
        <mxCell id="WtulU0ySZnqA_JgglzCk-11" value="" style="endArrow=classic;startArrow=oval;html=1;rounded=0;strokeColor=#808080;strokeWidth=0.5;startFill=1;endSize=3;startSize=3;" parent="WtulU0ySZnqA_JgglzCk-8" edge="1">
          <mxGeometry width="50" height="50" relative="1" as="geometry">
            <mxPoint x="30" y="50" as="sourcePoint" />
            <mxPoint x="2.3500000000000227" y="65.75" as="targetPoint" />
          </mxGeometry>
        </mxCell>
        <mxCell id="WtulU0ySZnqA_JgglzCk-12" value="&lt;font style=&quot;font-size: 13px;&quot;&gt;y&lt;/font&gt;" style="text;html=1;strokeColor=none;fillColor=none;align=center;verticalAlign=bottom;whiteSpace=wrap;rounded=0;dashed=1;strokeWidth=0.3;rotation=0;connectable=0;allowArrows=0;spacing=0;fontColor=#808080;fontSize=13;fontFamily=Calibri Light;" parent="WtulU0ySZnqA_JgglzCk-8" vertex="1">
          <mxGeometry x="20" width="20" height="10" as="geometry" />
        </mxCell>
        <mxCell id="WtulU0ySZnqA_JgglzCk-13" value="&lt;font style=&quot;font-size: 13px;&quot;&gt;x&lt;/font&gt;" style="text;html=1;strokeColor=none;fillColor=none;align=center;verticalAlign=bottom;whiteSpace=wrap;rounded=0;dashed=1;strokeWidth=0.3;rotation=0;connectable=0;allowArrows=0;spacing=0;fontColor=#808080;fontSize=13;fontFamily=Calibri Light;" parent="WtulU0ySZnqA_JgglzCk-8" vertex="1">
          <mxGeometry x="48.35" y="40.75" width="20" height="10" as="geometry" />
        </mxCell>
        <mxCell id="WtulU0ySZnqA_JgglzCk-14" value="&lt;font style=&quot;font-size: 13px;&quot;&gt;z&lt;/font&gt;" style="text;html=1;strokeColor=none;fillColor=none;align=center;verticalAlign=bottom;whiteSpace=wrap;rounded=0;dashed=1;strokeWidth=0.3;rotation=0;connectable=0;allowArrows=0;spacing=0;fontColor=#808080;fontSize=13;fontFamily=Calibri Light;" parent="1" vertex="1">
          <mxGeometry x="567" y="149" width="20" height="10" as="geometry" />
        </mxCell>
        <mxCell id="WtulU0ySZnqA_JgglzCk-15" value="" style="group;rotation=-30;" parent="1" vertex="1" connectable="0">
          <mxGeometry x="589" y="136" width="7.65" height="15" as="geometry" />
        </mxCell>
        <mxCell id="WtulU0ySZnqA_JgglzCk-16" value="" style="verticalLabelPosition=bottom;verticalAlign=top;html=1;shape=mxgraph.basic.arc;startAngle=0.37301066681813777;endAngle=0.125;strokeWidth=0.5;dashed=1;dashPattern=1 1;strokeColor=#808080;connectable=0;rotation=-30;" parent="WtulU0ySZnqA_JgglzCk-15" vertex="1">
          <mxGeometry width="6.4905945056752365" height="15" as="geometry" />
        </mxCell>
        <mxCell id="WtulU0ySZnqA_JgglzCk-17" value="" style="triangle;whiteSpace=wrap;html=1;strokeColor=none;fillColor=#808080;rotation=-94;fontColor=#808080;" parent="WtulU0ySZnqA_JgglzCk-15" vertex="1">
          <mxGeometry x="6" y="9" width="2.8138415487031367" height="2.25" as="geometry" />
        </mxCell>
        <mxCell id="xglS7V4aa_QBNHjJiyxf-1" value="" style="endArrow=none;html=1;rounded=0;anchorPointDirection=0;strokeWidth=2;" parent="1" edge="1">
          <mxGeometry width="50" height="50" relative="1" as="geometry">
            <mxPoint x="510" y="630" as="sourcePoint" />
            <mxPoint x="510" y="710" as="targetPoint" />
          </mxGeometry>
        </mxCell>
        <mxCell id="xglS7V4aa_QBNHjJiyxf-46" value="Sensor" style="text;html=1;strokeColor=none;fillColor=none;align=center;verticalAlign=middle;whiteSpace=wrap;rounded=0;fontStyle=1" parent="1" vertex="1">
          <mxGeometry x="443" y="597.63" width="57" height="30" as="geometry" />
        </mxCell>
        <mxCell id="xglS7V4aa_QBNHjJiyxf-47" value="" style="endArrow=classic;startArrow=classic;html=1;rounded=0;strokeColor=#808080;strokeWidth=0.5;endSize=3;startSize=3;fontColor=#808080;" parent="1" edge="1">
          <mxGeometry width="50" height="50" relative="1" as="geometry">
            <mxPoint x="500" y="700" as="sourcePoint" />
            <mxPoint x="500" y="640" as="targetPoint" />
          </mxGeometry>
        </mxCell>
        <mxCell id="xglS7V4aa_QBNHjJiyxf-48" value="&lt;font style=&quot;font-size: 13px;&quot;&gt;0.1&lt;/font&gt;" style="text;html=1;strokeColor=none;fillColor=none;align=right;verticalAlign=middle;whiteSpace=wrap;rounded=0;dashed=1;strokeWidth=0.3;rotation=0;connectable=0;allowArrows=0;fontSize=13;fontFamily=Calibri Light;fontColor=#808080;" parent="1" vertex="1">
          <mxGeometry x="465" y="660" width="30" height="20" as="geometry" />
        </mxCell>
        <mxCell id="xglS7V4aa_QBNHjJiyxf-49" value="" style="endArrow=none;html=1;rounded=0;strokeColor=#000000;strokeWidth=7;fontSize=12;fontColor=#000000;" parent="1" edge="1">
          <mxGeometry width="50" height="50" relative="1" as="geometry">
            <mxPoint x="440" y="757" as="sourcePoint" />
            <mxPoint x="763" y="757" as="targetPoint" />
          </mxGeometry>
        </mxCell>
        <mxCell id="xglS7V4aa_QBNHjJiyxf-58" value="" style="endArrow=classic;startArrow=classic;html=1;rounded=0;strokeColor=#808080;strokeWidth=0.5;endSize=3;startSize=3;fontColor=#808080;" parent="1" edge="1">
          <mxGeometry width="50" height="50" relative="1" as="geometry">
            <mxPoint x="529" y="720.5" as="sourcePoint" />
            <mxPoint x="510" y="720.26" as="targetPoint" />
          </mxGeometry>
        </mxCell>
        <mxCell id="xglS7V4aa_QBNHjJiyxf-59" value="&lt;font style=&quot;font-size: 13px;&quot;&gt;0.05&lt;/font&gt;" style="text;html=1;strokeColor=none;fillColor=none;align=center;verticalAlign=middle;whiteSpace=wrap;rounded=0;dashed=1;strokeWidth=0.3;rotation=0;connectable=0;allowArrows=0;fontSize=13;fontFamily=Calibri Light;fontColor=#808080;" parent="1" vertex="1">
          <mxGeometry x="499" y="724.63" width="39" height="20" as="geometry" />
        </mxCell>
        <mxCell id="GKbi3DaVB1Gph3P2OfKI-1" value="" style="group;rotation=90;" parent="1" vertex="1" connectable="0">
          <mxGeometry x="490" y="659.5600000000001" width="59.879999999999995" height="20.440000000000055" as="geometry" />
        </mxCell>
        <mxCell id="xglS7V4aa_QBNHjJiyxf-56" value="" style="shape=delay;whiteSpace=wrap;html=1;rotation=0;strokeWidth=2;" parent="GKbi3DaVB1Gph3P2OfKI-1" vertex="1">
          <mxGeometry x="20" y="-20" width="20.44" height="59.88" as="geometry" />
        </mxCell>
        <mxCell id="xglS7V4aa_QBNHjJiyxf-50" value="" style="endArrow=none;dashed=1;html=1;rounded=0;dashPattern=1 1;strokeWidth=2;strokeColor=#B3B3B3;" parent="GKbi3DaVB1Gph3P2OfKI-1" edge="1">
          <mxGeometry width="50" height="50" relative="1" as="geometry">
            <mxPoint x="24" y="-16" as="sourcePoint" />
            <mxPoint x="24" y="40" as="targetPoint" />
          </mxGeometry>
        </mxCell>
        <mxCell id="xglS7V4aa_QBNHjJiyxf-51" value="" style="endArrow=none;dashed=1;html=1;rounded=0;dashPattern=1 1;strokeWidth=2;strokeColor=#B3B3B3;" parent="GKbi3DaVB1Gph3P2OfKI-1" edge="1">
          <mxGeometry width="50" height="50" relative="1" as="geometry">
            <mxPoint x="28" y="-14" as="sourcePoint" />
            <mxPoint x="28" y="37" as="targetPoint" />
          </mxGeometry>
        </mxCell>
        <mxCell id="xglS7V4aa_QBNHjJiyxf-52" value="" style="endArrow=none;dashed=1;html=1;rounded=0;dashPattern=1 1;strokeWidth=2;strokeColor=#B3B3B3;" parent="GKbi3DaVB1Gph3P2OfKI-1" edge="1">
          <mxGeometry width="50" height="50" relative="1" as="geometry">
            <mxPoint x="32" y="-12" as="sourcePoint" />
            <mxPoint x="32" y="35" as="targetPoint" />
          </mxGeometry>
        </mxCell>
        <mxCell id="xglS7V4aa_QBNHjJiyxf-53" value="" style="endArrow=none;dashed=1;html=1;rounded=0;dashPattern=1 1;strokeWidth=2;strokeColor=#B3B3B3;" parent="GKbi3DaVB1Gph3P2OfKI-1" edge="1">
          <mxGeometry width="50" height="50" relative="1" as="geometry">
            <mxPoint x="36" y="-6" as="sourcePoint" />
            <mxPoint x="36" y="29" as="targetPoint" />
          </mxGeometry>
        </mxCell>
        <mxCell id="GKbi3DaVB1Gph3P2OfKI-2" value="" style="endArrow=oval;html=1;rounded=0;anchorPointDirection=0;startArrow=oval;startFill=1;endFill=1;entryX=1;entryY=0.5;entryDx=0;entryDy=0;" parent="1" target="xglS7V4aa_QBNHjJiyxf-56" edge="1">
          <mxGeometry width="50" height="50" relative="1" as="geometry">
            <mxPoint x="690" y="670" as="sourcePoint" />
            <mxPoint x="599.77" y="715.63" as="targetPoint" />
          </mxGeometry>
        </mxCell>
        <mxCell id="GKbi3DaVB1Gph3P2OfKI-3" value="&lt;font style=&quot;font-size: 13px;&quot;&gt;laser beam&lt;/font&gt;" style="text;html=1;strokeColor=none;fillColor=none;align=center;verticalAlign=middle;whiteSpace=wrap;rounded=0;dashed=1;strokeWidth=0.3;rotation=0;connectable=0;allowArrows=0;fontSize=13;fontFamily=Calibri Light;fontColor=#808080;" parent="1" vertex="1">
          <mxGeometry x="600" y="650" width="69.77" height="20" as="geometry" />
        </mxCell>
        <mxCell id="GKbi3DaVB1Gph3P2OfKI-4" value="" style="endArrow=none;html=1;rounded=0;anchorPointDirection=0;strokeWidth=2;" parent="1" edge="1">
          <mxGeometry width="50" height="50" relative="1" as="geometry">
            <mxPoint x="490" y="789.37" as="sourcePoint" />
            <mxPoint x="490" y="869.37" as="targetPoint" />
          </mxGeometry>
        </mxCell>
        <mxCell id="GKbi3DaVB1Gph3P2OfKI-7" value="" style="endArrow=none;html=1;rounded=0;strokeColor=#000000;strokeWidth=7;fontSize=12;fontColor=#000000;" parent="1" edge="1">
          <mxGeometry width="50" height="50" relative="1" as="geometry">
            <mxPoint x="440" y="916.3699999999999" as="sourcePoint" />
            <mxPoint x="763" y="916.3699999999999" as="targetPoint" />
          </mxGeometry>
        </mxCell>
        <mxCell id="GKbi3DaVB1Gph3P2OfKI-9" value="&lt;font style=&quot;font-size: 13px;&quot;&gt;distance&lt;/font&gt;" style="text;html=1;strokeColor=none;fillColor=none;align=center;verticalAlign=middle;whiteSpace=wrap;rounded=0;dashed=1;strokeWidth=0.3;rotation=0;connectable=0;allowArrows=0;fontSize=13;fontFamily=Calibri Light;fontColor=#808080;" parent="1" vertex="1">
          <mxGeometry x="493.82" y="829.9999999999999" width="180" height="20" as="geometry" />
        </mxCell>
        <mxCell id="GKbi3DaVB1Gph3P2OfKI-10" value="" style="group;rotation=90;" parent="1" vertex="1" connectable="0">
          <mxGeometry x="470" y="818.9300000000001" width="59.879999999999995" height="20.440000000000055" as="geometry" />
        </mxCell>
        <mxCell id="GKbi3DaVB1Gph3P2OfKI-11" value="" style="shape=delay;whiteSpace=wrap;html=1;rotation=0;strokeWidth=2;" parent="GKbi3DaVB1Gph3P2OfKI-10" vertex="1">
          <mxGeometry x="20" y="-20" width="20.44" height="59.88" as="geometry" />
        </mxCell>
        <mxCell id="GKbi3DaVB1Gph3P2OfKI-12" value="" style="endArrow=none;dashed=1;html=1;rounded=0;dashPattern=1 1;strokeWidth=2;strokeColor=#B3B3B3;" parent="GKbi3DaVB1Gph3P2OfKI-10" edge="1">
          <mxGeometry width="50" height="50" relative="1" as="geometry">
            <mxPoint x="24" y="-16" as="sourcePoint" />
            <mxPoint x="24" y="40" as="targetPoint" />
          </mxGeometry>
        </mxCell>
        <mxCell id="GKbi3DaVB1Gph3P2OfKI-13" value="" style="endArrow=none;dashed=1;html=1;rounded=0;dashPattern=1 1;strokeWidth=2;strokeColor=#B3B3B3;" parent="GKbi3DaVB1Gph3P2OfKI-10" edge="1">
          <mxGeometry width="50" height="50" relative="1" as="geometry">
            <mxPoint x="28" y="-14" as="sourcePoint" />
            <mxPoint x="28" y="37" as="targetPoint" />
          </mxGeometry>
        </mxCell>
        <mxCell id="GKbi3DaVB1Gph3P2OfKI-14" value="" style="endArrow=none;dashed=1;html=1;rounded=0;dashPattern=1 1;strokeWidth=2;strokeColor=#B3B3B3;" parent="GKbi3DaVB1Gph3P2OfKI-10" edge="1">
          <mxGeometry width="50" height="50" relative="1" as="geometry">
            <mxPoint x="32" y="-12" as="sourcePoint" />
            <mxPoint x="32" y="35" as="targetPoint" />
          </mxGeometry>
        </mxCell>
        <mxCell id="GKbi3DaVB1Gph3P2OfKI-15" value="" style="endArrow=none;dashed=1;html=1;rounded=0;dashPattern=1 1;strokeWidth=2;strokeColor=#B3B3B3;" parent="GKbi3DaVB1Gph3P2OfKI-10" edge="1">
          <mxGeometry width="50" height="50" relative="1" as="geometry">
            <mxPoint x="36" y="-6" as="sourcePoint" />
            <mxPoint x="36" y="29" as="targetPoint" />
          </mxGeometry>
        </mxCell>
        <mxCell id="GKbi3DaVB1Gph3P2OfKI-18" value="senseDistance" style="text;html=1;strokeColor=none;fillColor=none;align=left;verticalAlign=middle;whiteSpace=wrap;rounded=0;fontStyle=1" parent="1" vertex="1">
          <mxGeometry x="450" y="757" width="120" height="30" as="geometry" />
        </mxCell>
        <mxCell id="GKbi3DaVB1Gph3P2OfKI-22" value="" style="endArrow=classic;startArrow=classic;html=1;rounded=0;strokeColor=#808080;strokeWidth=0.5;endSize=3;startSize=3;fontColor=#808080;" parent="1" edge="1">
          <mxGeometry width="50" height="50" relative="1" as="geometry">
            <mxPoint x="508.44" y="879.8699999999999" as="sourcePoint" />
            <mxPoint x="489.44" y="879.6300000000001" as="targetPoint" />
          </mxGeometry>
        </mxCell>
        <mxCell id="GKbi3DaVB1Gph3P2OfKI-23" value="&lt;font style=&quot;font-size: 13px;&quot;&gt;0.05&lt;/font&gt;" style="text;html=1;strokeColor=none;fillColor=none;align=center;verticalAlign=middle;whiteSpace=wrap;rounded=0;dashed=1;strokeWidth=0.3;rotation=0;connectable=0;allowArrows=0;fontSize=13;fontFamily=Calibri Light;fontColor=#808080;" parent="1" vertex="1">
          <mxGeometry x="478.44" y="884" width="39" height="20" as="geometry" />
        </mxCell>
        <mxCell id="GKbi3DaVB1Gph3P2OfKI-24" value="" style="rounded=1;whiteSpace=wrap;html=1;" parent="1" vertex="1">
          <mxGeometry x="680" y="790" width="40" height="90" as="geometry" />
        </mxCell>
        <mxCell id="GKbi3DaVB1Gph3P2OfKI-8" value="" style="endArrow=classic;startArrow=classic;html=1;rounded=0;strokeColor=#808080;strokeWidth=0.5;endSize=3;startSize=3;fontColor=#808080;" parent="1" edge="1">
          <mxGeometry width="50" height="50" relative="1" as="geometry">
            <mxPoint x="679" y="831.7099999999999" as="sourcePoint" />
            <mxPoint x="490" y="831" as="targetPoint" />
          </mxGeometry>
        </mxCell>
        <mxCell id="GKbi3DaVB1Gph3P2OfKI-25" value="" style="group;rotation=0;" parent="1" vertex="1" connectable="0">
          <mxGeometry x="840.48" y="437.56" width="59.879999999999995" height="20.440000000000055" as="geometry" />
        </mxCell>
        <mxCell id="GKbi3DaVB1Gph3P2OfKI-26" value="" style="shape=delay;whiteSpace=wrap;html=1;rotation=-90;strokeWidth=2;" parent="GKbi3DaVB1Gph3P2OfKI-25" vertex="1">
          <mxGeometry x="19" y="-20" width="20.44" height="59.88" as="geometry" />
        </mxCell>
        <mxCell id="GKbi3DaVB1Gph3P2OfKI-27" value="" style="endArrow=none;dashed=1;html=1;rounded=0;dashPattern=1 1;strokeWidth=2;strokeColor=#B3B3B3;" parent="GKbi3DaVB1Gph3P2OfKI-25" edge="1">
          <mxGeometry width="50" height="50" relative="1" as="geometry">
            <mxPoint x="2" y="16" as="sourcePoint" />
            <mxPoint x="58" y="16" as="targetPoint" />
          </mxGeometry>
        </mxCell>
        <mxCell id="GKbi3DaVB1Gph3P2OfKI-28" value="" style="endArrow=none;dashed=1;html=1;rounded=0;dashPattern=1 1;strokeWidth=2;strokeColor=#B3B3B3;" parent="GKbi3DaVB1Gph3P2OfKI-25" edge="1">
          <mxGeometry width="50" height="50" relative="1" as="geometry">
            <mxPoint x="4" y="12" as="sourcePoint" />
            <mxPoint x="55" y="12" as="targetPoint" />
          </mxGeometry>
        </mxCell>
        <mxCell id="GKbi3DaVB1Gph3P2OfKI-29" value="" style="endArrow=none;dashed=1;html=1;rounded=0;dashPattern=1 1;strokeWidth=2;strokeColor=#B3B3B3;" parent="GKbi3DaVB1Gph3P2OfKI-25" edge="1">
          <mxGeometry width="50" height="50" relative="1" as="geometry">
            <mxPoint x="6" y="8" as="sourcePoint" />
            <mxPoint x="53" y="8" as="targetPoint" />
          </mxGeometry>
        </mxCell>
        <mxCell id="GKbi3DaVB1Gph3P2OfKI-30" value="" style="endArrow=none;dashed=1;html=1;rounded=0;dashPattern=1 1;strokeWidth=2;strokeColor=#B3B3B3;" parent="GKbi3DaVB1Gph3P2OfKI-25" edge="1">
          <mxGeometry width="50" height="50" relative="1" as="geometry">
            <mxPoint x="12" y="4" as="sourcePoint" />
            <mxPoint x="47" y="4" as="targetPoint" />
          </mxGeometry>
        </mxCell>
        <mxCell id="GKbi3DaVB1Gph3P2OfKI-31" value="" style="group;rotation=0;" parent="1" vertex="1" connectable="0">
          <mxGeometry x="920" y="437.56" width="59.879999999999995" height="20.440000000000055" as="geometry" />
        </mxCell>
        <mxCell id="GKbi3DaVB1Gph3P2OfKI-32" value="" style="shape=delay;whiteSpace=wrap;html=1;rotation=-90;strokeWidth=2;" parent="GKbi3DaVB1Gph3P2OfKI-31" vertex="1">
          <mxGeometry x="19" y="-20" width="20.44" height="59.88" as="geometry" />
        </mxCell>
        <mxCell id="GKbi3DaVB1Gph3P2OfKI-33" value="" style="endArrow=none;dashed=1;html=1;rounded=0;dashPattern=1 1;strokeWidth=2;strokeColor=#B3B3B3;" parent="GKbi3DaVB1Gph3P2OfKI-31" edge="1">
          <mxGeometry width="50" height="50" relative="1" as="geometry">
            <mxPoint x="2" y="16" as="sourcePoint" />
            <mxPoint x="58" y="16" as="targetPoint" />
          </mxGeometry>
        </mxCell>
        <mxCell id="GKbi3DaVB1Gph3P2OfKI-34" value="" style="endArrow=none;dashed=1;html=1;rounded=0;dashPattern=1 1;strokeWidth=2;strokeColor=#B3B3B3;" parent="GKbi3DaVB1Gph3P2OfKI-31" edge="1">
          <mxGeometry width="50" height="50" relative="1" as="geometry">
            <mxPoint x="4" y="12" as="sourcePoint" />
            <mxPoint x="55" y="12" as="targetPoint" />
          </mxGeometry>
        </mxCell>
        <mxCell id="GKbi3DaVB1Gph3P2OfKI-35" value="" style="endArrow=none;dashed=1;html=1;rounded=0;dashPattern=1 1;strokeWidth=2;strokeColor=#B3B3B3;" parent="GKbi3DaVB1Gph3P2OfKI-31" edge="1">
          <mxGeometry width="50" height="50" relative="1" as="geometry">
            <mxPoint x="6" y="8" as="sourcePoint" />
            <mxPoint x="53" y="8" as="targetPoint" />
          </mxGeometry>
        </mxCell>
        <mxCell id="GKbi3DaVB1Gph3P2OfKI-36" value="" style="endArrow=none;dashed=1;html=1;rounded=0;dashPattern=1 1;strokeWidth=2;strokeColor=#B3B3B3;" parent="GKbi3DaVB1Gph3P2OfKI-31" edge="1">
          <mxGeometry width="50" height="50" relative="1" as="geometry">
            <mxPoint x="12" y="4" as="sourcePoint" />
            <mxPoint x="47" y="4" as="targetPoint" />
          </mxGeometry>
        </mxCell>
        <mxCell id="GKbi3DaVB1Gph3P2OfKI-37" value="" style="group;rotation=0;" parent="1" vertex="1" connectable="0">
          <mxGeometry x="1000" y="438.00000000000006" width="59.879999999999995" height="20.440000000000055" as="geometry" />
        </mxCell>
        <mxCell id="GKbi3DaVB1Gph3P2OfKI-38" value="" style="shape=delay;whiteSpace=wrap;html=1;rotation=-90;strokeWidth=2;" parent="GKbi3DaVB1Gph3P2OfKI-37" vertex="1">
          <mxGeometry x="19" y="-20" width="20.44" height="59.88" as="geometry" />
        </mxCell>
        <mxCell id="GKbi3DaVB1Gph3P2OfKI-39" value="" style="endArrow=none;dashed=1;html=1;rounded=0;dashPattern=1 1;strokeWidth=2;strokeColor=#B3B3B3;" parent="GKbi3DaVB1Gph3P2OfKI-37" edge="1">
          <mxGeometry width="50" height="50" relative="1" as="geometry">
            <mxPoint x="2" y="16" as="sourcePoint" />
            <mxPoint x="58" y="16" as="targetPoint" />
          </mxGeometry>
        </mxCell>
        <mxCell id="GKbi3DaVB1Gph3P2OfKI-40" value="" style="endArrow=none;dashed=1;html=1;rounded=0;dashPattern=1 1;strokeWidth=2;strokeColor=#B3B3B3;" parent="GKbi3DaVB1Gph3P2OfKI-37" edge="1">
          <mxGeometry width="50" height="50" relative="1" as="geometry">
            <mxPoint x="4" y="12" as="sourcePoint" />
            <mxPoint x="55" y="12" as="targetPoint" />
          </mxGeometry>
        </mxCell>
        <mxCell id="GKbi3DaVB1Gph3P2OfKI-41" value="" style="endArrow=none;dashed=1;html=1;rounded=0;dashPattern=1 1;strokeWidth=2;strokeColor=#B3B3B3;" parent="GKbi3DaVB1Gph3P2OfKI-37" edge="1">
          <mxGeometry width="50" height="50" relative="1" as="geometry">
            <mxPoint x="6" y="8" as="sourcePoint" />
            <mxPoint x="53" y="8" as="targetPoint" />
          </mxGeometry>
        </mxCell>
        <mxCell id="GKbi3DaVB1Gph3P2OfKI-42" value="" style="endArrow=none;dashed=1;html=1;rounded=0;dashPattern=1 1;strokeWidth=2;strokeColor=#B3B3B3;" parent="GKbi3DaVB1Gph3P2OfKI-37" edge="1">
          <mxGeometry width="50" height="50" relative="1" as="geometry">
            <mxPoint x="12" y="4" as="sourcePoint" />
            <mxPoint x="47" y="4" as="targetPoint" />
          </mxGeometry>
        </mxCell>
        <mxCell id="GKbi3DaVB1Gph3P2OfKI-43" value="" style="group;rotation=0;" parent="1" vertex="1" connectable="0">
          <mxGeometry x="1080" y="438.00000000000006" width="59.879999999999995" height="20.440000000000055" as="geometry" />
        </mxCell>
        <mxCell id="GKbi3DaVB1Gph3P2OfKI-44" value="" style="shape=delay;whiteSpace=wrap;html=1;rotation=-90;strokeWidth=2;" parent="GKbi3DaVB1Gph3P2OfKI-43" vertex="1">
          <mxGeometry x="19" y="-20" width="20.44" height="59.88" as="geometry" />
        </mxCell>
        <mxCell id="GKbi3DaVB1Gph3P2OfKI-45" value="" style="endArrow=none;dashed=1;html=1;rounded=0;dashPattern=1 1;strokeWidth=2;strokeColor=#B3B3B3;" parent="GKbi3DaVB1Gph3P2OfKI-43" edge="1">
          <mxGeometry width="50" height="50" relative="1" as="geometry">
            <mxPoint x="2" y="16" as="sourcePoint" />
            <mxPoint x="58" y="16" as="targetPoint" />
          </mxGeometry>
        </mxCell>
        <mxCell id="GKbi3DaVB1Gph3P2OfKI-46" value="" style="endArrow=none;dashed=1;html=1;rounded=0;dashPattern=1 1;strokeWidth=2;strokeColor=#B3B3B3;" parent="GKbi3DaVB1Gph3P2OfKI-43" edge="1">
          <mxGeometry width="50" height="50" relative="1" as="geometry">
            <mxPoint x="4" y="12" as="sourcePoint" />
            <mxPoint x="55" y="12" as="targetPoint" />
          </mxGeometry>
        </mxCell>
        <mxCell id="GKbi3DaVB1Gph3P2OfKI-47" value="" style="endArrow=none;dashed=1;html=1;rounded=0;dashPattern=1 1;strokeWidth=2;strokeColor=#B3B3B3;" parent="GKbi3DaVB1Gph3P2OfKI-43" edge="1">
          <mxGeometry width="50" height="50" relative="1" as="geometry">
            <mxPoint x="6" y="8" as="sourcePoint" />
            <mxPoint x="53" y="8" as="targetPoint" />
          </mxGeometry>
        </mxCell>
        <mxCell id="GKbi3DaVB1Gph3P2OfKI-48" value="" style="endArrow=none;dashed=1;html=1;rounded=0;dashPattern=1 1;strokeWidth=2;strokeColor=#B3B3B3;" parent="GKbi3DaVB1Gph3P2OfKI-43" edge="1">
          <mxGeometry width="50" height="50" relative="1" as="geometry">
            <mxPoint x="12" y="4" as="sourcePoint" />
            <mxPoint x="47" y="4" as="targetPoint" />
          </mxGeometry>
        </mxCell>
        <mxCell id="GKbi3DaVB1Gph3P2OfKI-49" value="&lt;font style=&quot;font-size: 13px;&quot;&gt;touch 0&lt;/font&gt;" style="text;html=1;strokeColor=none;fillColor=none;align=center;verticalAlign=middle;whiteSpace=wrap;rounded=0;dashed=1;strokeWidth=0.3;rotation=0;connectable=0;allowArrows=0;fontSize=13;fontFamily=Calibri Light;fontColor=#808080;" parent="1" vertex="1">
          <mxGeometry x="840.48" y="460" width="59.52" height="17" as="geometry" />
        </mxCell>
        <mxCell id="GKbi3DaVB1Gph3P2OfKI-50" value="senseTouch" style="text;html=1;strokeColor=none;fillColor=none;align=left;verticalAlign=middle;whiteSpace=wrap;rounded=0;fontStyle=1" parent="1" vertex="1">
          <mxGeometry x="769.15" y="340" width="120" height="30" as="geometry" />
        </mxCell>
        <mxCell id="GKbi3DaVB1Gph3P2OfKI-51" value="&lt;font style=&quot;font-size: 13px;&quot;&gt;touch 0&lt;/font&gt;" style="text;html=1;strokeColor=none;fillColor=none;align=center;verticalAlign=middle;whiteSpace=wrap;rounded=0;dashed=1;strokeWidth=0.3;rotation=0;connectable=0;allowArrows=0;fontSize=13;fontFamily=Calibri Light;fontColor=#808080;" parent="1" vertex="1">
          <mxGeometry x="920" y="460" width="59.52" height="17" as="geometry" />
        </mxCell>
        <mxCell id="GKbi3DaVB1Gph3P2OfKI-52" value="&lt;font style=&quot;font-size: 13px;&quot;&gt;touch 0.5&lt;/font&gt;" style="text;html=1;strokeColor=none;fillColor=none;align=center;verticalAlign=middle;whiteSpace=wrap;rounded=0;dashed=1;strokeWidth=0.3;rotation=0;connectable=0;allowArrows=0;fontSize=13;fontFamily=Calibri Light;fontColor=#808080;" parent="1" vertex="1">
          <mxGeometry x="1000" y="460" width="59.52" height="17" as="geometry" />
        </mxCell>
        <mxCell id="GKbi3DaVB1Gph3P2OfKI-53" value="&lt;font style=&quot;font-size: 13px;&quot;&gt;touch 0.9&lt;/font&gt;" style="text;html=1;strokeColor=none;fillColor=none;align=center;verticalAlign=middle;whiteSpace=wrap;rounded=0;dashed=1;strokeWidth=0.3;rotation=0;connectable=0;allowArrows=0;fontSize=13;fontFamily=Calibri Light;fontColor=#808080;" parent="1" vertex="1">
          <mxGeometry x="1078.48" y="460" width="59.52" height="17" as="geometry" />
        </mxCell>
        <mxCell id="GKbi3DaVB1Gph3P2OfKI-55" value="" style="endArrow=classic;startArrow=classic;html=1;rounded=0;strokeColor=#808080;strokeWidth=0.5;endSize=3;startSize=3;fontColor=#808080;" parent="1" edge="1">
          <mxGeometry width="50" height="50" relative="1" as="geometry">
            <mxPoint x="810" y="458" as="sourcePoint" />
            <mxPoint x="810" y="440" as="targetPoint" />
          </mxGeometry>
        </mxCell>
        <mxCell id="GKbi3DaVB1Gph3P2OfKI-56" value="&lt;font style=&quot;font-size: 13px;&quot;&gt;0.5&lt;/font&gt;" style="text;html=1;strokeColor=none;fillColor=none;align=right;verticalAlign=middle;whiteSpace=wrap;rounded=0;dashed=1;strokeWidth=0.3;rotation=0;connectable=0;allowArrows=0;fontSize=13;fontFamily=Calibri Light;fontColor=#808080;" parent="1" vertex="1">
          <mxGeometry x="770.85" y="440" width="29.15" height="20" as="geometry" />
        </mxCell>
        <mxCell id="GKbi3DaVB1Gph3P2OfKI-57" value="" style="rounded=1;whiteSpace=wrap;html=1;" parent="1" vertex="1">
          <mxGeometry x="858.74" y="377" width="23" height="50.5" as="geometry" />
        </mxCell>
        <mxCell id="GKbi3DaVB1Gph3P2OfKI-58" value="" style="rounded=1;whiteSpace=wrap;html=1;" parent="1" vertex="1">
          <mxGeometry x="938.5" y="386.06" width="23" height="50.5" as="geometry" />
        </mxCell>
        <mxCell id="GKbi3DaVB1Gph3P2OfKI-59" value="" style="rounded=1;whiteSpace=wrap;html=1;" parent="1" vertex="1">
          <mxGeometry x="1017.98" y="397.5" width="23" height="50.5" as="geometry" />
        </mxCell>
        <mxCell id="GKbi3DaVB1Gph3P2OfKI-60" value="" style="rounded=1;whiteSpace=wrap;html=1;" parent="1" vertex="1">
          <mxGeometry x="1096.74" y="403.87" width="23" height="50.5" as="geometry" />
        </mxCell>
        <mxCell id="HwRbOk4TDf7RxoMXhi_D-1" value="sensePosition" style="text;html=1;strokeColor=none;fillColor=none;align=left;verticalAlign=middle;whiteSpace=wrap;rounded=0;fontStyle=1" parent="1" vertex="1">
          <mxGeometry x="450" y="920" width="120" height="30" as="geometry" />
        </mxCell>
        <mxCell id="HwRbOk4TDf7RxoMXhi_D-9" value="" style="group;rotation=-35;" parent="1" vertex="1" connectable="0">
          <mxGeometry x="637.72" y="953" width="20.440000000000055" height="80" as="geometry" />
        </mxCell>
        <mxCell id="HwRbOk4TDf7RxoMXhi_D-2" value="" style="endArrow=none;html=1;rounded=0;anchorPointDirection=0;strokeWidth=2;" parent="HwRbOk4TDf7RxoMXhi_D-9" edge="1">
          <mxGeometry width="50" height="50" relative="1" as="geometry">
            <mxPoint x="-21" y="13" as="sourcePoint" />
            <mxPoint x="25" y="78" as="targetPoint" />
          </mxGeometry>
        </mxCell>
        <mxCell id="HwRbOk4TDf7RxoMXhi_D-3" value="" style="group;rotation=55;" parent="HwRbOk4TDf7RxoMXhi_D-9" vertex="1" connectable="0">
          <mxGeometry x="-20" y="30" width="59.879999999999995" height="20.440000000000055" as="geometry" />
        </mxCell>
        <mxCell id="HwRbOk4TDf7RxoMXhi_D-4" value="" style="shape=delay;whiteSpace=wrap;html=1;rotation=-35;strokeWidth=2;" parent="HwRbOk4TDf7RxoMXhi_D-3" vertex="1">
          <mxGeometry x="20" y="-20" width="20.44" height="59.88" as="geometry" />
        </mxCell>
        <mxCell id="HwRbOk4TDf7RxoMXhi_D-5" value="" style="endArrow=none;dashed=1;html=1;rounded=0;dashPattern=1 1;strokeWidth=2;strokeColor=#B3B3B3;" parent="HwRbOk4TDf7RxoMXhi_D-3" edge="1">
          <mxGeometry width="50" height="50" relative="1" as="geometry">
            <mxPoint x="10" y="-8" as="sourcePoint" />
            <mxPoint x="42" y="38" as="targetPoint" />
          </mxGeometry>
        </mxCell>
        <mxCell id="HwRbOk4TDf7RxoMXhi_D-6" value="" style="endArrow=none;dashed=1;html=1;rounded=0;dashPattern=1 1;strokeWidth=2;strokeColor=#B3B3B3;" parent="HwRbOk4TDf7RxoMXhi_D-3" edge="1">
          <mxGeometry width="50" height="50" relative="1" as="geometry">
            <mxPoint x="14" y="-9" as="sourcePoint" />
            <mxPoint x="44" y="33" as="targetPoint" />
          </mxGeometry>
        </mxCell>
        <mxCell id="HwRbOk4TDf7RxoMXhi_D-7" value="" style="endArrow=none;dashed=1;html=1;rounded=0;dashPattern=1 1;strokeWidth=2;strokeColor=#B3B3B3;" parent="HwRbOk4TDf7RxoMXhi_D-3" edge="1">
          <mxGeometry width="50" height="50" relative="1" as="geometry">
            <mxPoint x="19" y="-9" as="sourcePoint" />
            <mxPoint x="46" y="29" as="targetPoint" />
          </mxGeometry>
        </mxCell>
        <mxCell id="HwRbOk4TDf7RxoMXhi_D-8" value="" style="endArrow=none;dashed=1;html=1;rounded=0;dashPattern=1 1;strokeWidth=2;strokeColor=#B3B3B3;" parent="HwRbOk4TDf7RxoMXhi_D-3" edge="1">
          <mxGeometry width="50" height="50" relative="1" as="geometry">
            <mxPoint x="26" y="-7" as="sourcePoint" />
            <mxPoint x="46" y="22" as="targetPoint" />
          </mxGeometry>
        </mxCell>
        <mxCell id="HwRbOk4TDf7RxoMXhi_D-18" value="" style="endArrow=classic;startArrow=oval;html=1;rounded=0;strokeColor=#808080;strokeWidth=0.5;startFill=1;endSize=3;startSize=3;" parent="1" edge="1">
          <mxGeometry width="50" height="50" relative="1" as="geometry">
            <mxPoint x="520" y="1050" as="sourcePoint" />
            <mxPoint x="520" y="960" as="targetPoint" />
          </mxGeometry>
        </mxCell>
        <mxCell id="HwRbOk4TDf7RxoMXhi_D-19" value="" style="endArrow=classic;startArrow=oval;html=1;rounded=0;strokeColor=#808080;strokeWidth=0.5;startFill=1;endSize=3;startSize=6;" parent="1" edge="1">
          <mxGeometry width="50" height="50" relative="1" as="geometry">
            <mxPoint x="520" y="1050" as="sourcePoint" />
            <mxPoint x="710" y="1050" as="targetPoint" />
          </mxGeometry>
        </mxCell>
        <mxCell id="HwRbOk4TDf7RxoMXhi_D-20" value="" style="endArrow=classic;startArrow=oval;html=1;rounded=0;strokeColor=#808080;strokeWidth=0.5;startFill=1;endSize=3;startSize=3;" parent="1" edge="1">
          <mxGeometry width="50" height="50" relative="1" as="geometry">
            <mxPoint x="520" y="1050" as="sourcePoint" />
            <mxPoint x="460" y="1080" as="targetPoint" />
          </mxGeometry>
        </mxCell>
        <mxCell id="HwRbOk4TDf7RxoMXhi_D-21" value="&lt;font style=&quot;font-size: 13px;&quot;&gt;y&lt;/font&gt;" style="text;html=1;strokeColor=none;fillColor=none;align=center;verticalAlign=bottom;whiteSpace=wrap;rounded=0;dashed=1;strokeWidth=0.3;rotation=0;connectable=0;allowArrows=0;spacing=0;fontColor=#808080;fontSize=13;fontFamily=Calibri Light;" parent="1" vertex="1">
          <mxGeometry x="623" y="1023" width="20" height="10" as="geometry" />
        </mxCell>
        <mxCell id="HwRbOk4TDf7RxoMXhi_D-22" value="&lt;font style=&quot;font-size: 13px;&quot;&gt;x&lt;/font&gt;" style="text;html=1;strokeColor=none;fillColor=none;align=center;verticalAlign=bottom;whiteSpace=wrap;rounded=0;dashed=1;strokeWidth=0.3;rotation=0;connectable=0;allowArrows=0;spacing=0;fontColor=#808080;fontSize=13;fontFamily=Calibri Light;" parent="1" vertex="1">
          <mxGeometry x="553.65" y="1070" width="20" height="10" as="geometry" />
        </mxCell>
        <mxCell id="HwRbOk4TDf7RxoMXhi_D-23" value="&lt;font style=&quot;font-size: 13px;&quot;&gt;z&lt;/font&gt;" style="text;html=1;strokeColor=none;fillColor=none;align=center;verticalAlign=bottom;whiteSpace=wrap;rounded=0;dashed=1;strokeWidth=0.3;rotation=0;connectable=0;allowArrows=0;spacing=0;fontColor=#808080;fontSize=13;fontFamily=Calibri Light;" parent="1" vertex="1">
          <mxGeometry x="653.8199999999999" y="1060" width="20" height="10" as="geometry" />
        </mxCell>
        <mxCell id="HwRbOk4TDf7RxoMXhi_D-24" value="" style="endArrow=none;dashed=1;html=1;rounded=0;strokeColor=#B3B3B3;strokeWidth=0.5;endFill=0;" parent="1" edge="1">
          <mxGeometry width="50" height="50" relative="1" as="geometry">
            <mxPoint x="640" y="1070" as="sourcePoint" />
            <mxPoint x="640" y="1000" as="targetPoint" />
          </mxGeometry>
        </mxCell>
        <mxCell id="HwRbOk4TDf7RxoMXhi_D-25" value="" style="endArrow=none;dashed=1;html=1;rounded=0;strokeColor=#B3B3B3;strokeWidth=0.5;" parent="1" edge="1">
          <mxGeometry width="50" height="50" relative="1" as="geometry">
            <mxPoint x="640" y="1070" as="sourcePoint" />
            <mxPoint x="480" y="1070" as="targetPoint" />
          </mxGeometry>
        </mxCell>
        <mxCell id="HwRbOk4TDf7RxoMXhi_D-26" value="" style="endArrow=none;dashed=1;html=1;rounded=0;strokeColor=#B3B3B3;strokeWidth=0.5;" parent="1" edge="1">
          <mxGeometry width="50" height="50" relative="1" as="geometry">
            <mxPoint x="672.94" y="1050" as="sourcePoint" />
            <mxPoint x="640" y="1070" as="targetPoint" />
          </mxGeometry>
        </mxCell>
        <mxCell id="HwRbOk4TDf7RxoMXhi_D-27" value="" style="endArrow=none;html=1;rounded=0;strokeColor=#000000;strokeWidth=7;fontSize=12;fontColor=#000000;" parent="1" edge="1">
          <mxGeometry width="50" height="50" relative="1" as="geometry">
            <mxPoint x="440" y="1110" as="sourcePoint" />
            <mxPoint x="763" y="1110" as="targetPoint" />
          </mxGeometry>
        </mxCell>
        <mxCell id="HwRbOk4TDf7RxoMXhi_D-28" value="" style="ellipse;whiteSpace=wrap;html=1;aspect=fixed;fillColor=#000000;" parent="1" vertex="1">
          <mxGeometry x="637" y="996" width="6" height="6" as="geometry" />
        </mxCell>
        <mxCell id="HwRbOk4TDf7RxoMXhi_D-31" value="" style="rounded=1;whiteSpace=wrap;html=1;fillColor=#FFFFFF;arcSize=50;rotation=-105;" parent="1" vertex="1">
          <mxGeometry x="832.3800000000001" y="815.73" width="114.72" height="43.88" as="geometry" />
        </mxCell>
        <mxCell id="HwRbOk4TDf7RxoMXhi_D-32" value="" style="rounded=1;whiteSpace=wrap;html=1;fillColor=#FFFFFF;arcSize=50;rotation=-30;" parent="1" vertex="1">
          <mxGeometry x="853.19" y="762.5" width="120" height="40" as="geometry" />
        </mxCell>
        <mxCell id="HwRbOk4TDf7RxoMXhi_D-33" value="" style="rounded=1;whiteSpace=wrap;html=1;fillColor=#FFFFFF;arcSize=50;rotation=60;" parent="1" vertex="1">
          <mxGeometry x="908.9300000000001" y="776.5" width="120" height="40" as="geometry" />
        </mxCell>
        <mxCell id="HwRbOk4TDf7RxoMXhi_D-82" value="" style="rounded=1;whiteSpace=wrap;html=1;fillColor=#FFFFFF;arcSize=50;rotation=-90;" parent="1" vertex="1">
          <mxGeometry x="1027.64" y="811.5" width="114.72" height="43.88" as="geometry" />
        </mxCell>
        <mxCell id="HwRbOk4TDf7RxoMXhi_D-83" value="" style="rounded=1;whiteSpace=wrap;html=1;fillColor=#FFFFFF;arcSize=50;rotation=-190;" parent="1" vertex="1">
          <mxGeometry x="987.19" y="782.5" width="120" height="40" as="geometry" />
        </mxCell>
        <mxCell id="HwRbOk4TDf7RxoMXhi_D-34" value="" style="shape=trapezoid;perimeter=trapezoidPerimeter;whiteSpace=wrap;html=1;fixedSize=1;fillColor=default;connectable=0;" parent="1" vertex="1">
          <mxGeometry x="837.19" y="869.5" width="120" height="40" as="geometry" />
        </mxCell>
        <mxCell id="HwRbOk4TDf7RxoMXhi_D-81" value="" style="shape=trapezoid;perimeter=trapezoidPerimeter;whiteSpace=wrap;html=1;fixedSize=1;fillColor=default;connectable=0;" parent="1" vertex="1">
          <mxGeometry x="1023" y="869.5" width="120" height="40" as="geometry" />
        </mxCell>
        <mxCell id="HwRbOk4TDf7RxoMXhi_D-91" value="senseCollision" style="text;html=1;strokeColor=none;fillColor=none;align=left;verticalAlign=middle;whiteSpace=wrap;rounded=0;fontStyle=1" parent="1" vertex="1">
          <mxGeometry x="769.15" y="692" width="120" height="30" as="geometry" />
        </mxCell>
        <mxCell id="HwRbOk4TDf7RxoMXhi_D-92" value="" style="verticalLabelPosition=bottom;verticalAlign=top;html=1;shape=mxgraph.basic.polygon;polyCoords=[[0.31,0.4],[0.33,0.35],[0.38,0.29],[0.64,0.82],[0.54,0.82],[0.44,0.77],[0.35,0.68],[0.3,0.52]];polyline=0;fillColor=#B3B3B3;strokeColor=none;connectable=0;" parent="1" vertex="1">
          <mxGeometry x="970" y="780" width="60" height="60" as="geometry" />
        </mxCell>
        <mxCell id="HwRbOk4TDf7RxoMXhi_D-93" value="" style="rounded=1;whiteSpace=wrap;html=1;fillColor=none;arcSize=50;rotation=-190;connectable=0;" parent="1" vertex="1">
          <mxGeometry x="987.19" y="782.5" width="120" height="40" as="geometry" />
        </mxCell>
        <mxCell id="HwRbOk4TDf7RxoMXhi_D-94" value="&lt;font style=&quot;font-size: 13px;&quot;&gt;collision&lt;/font&gt;" style="text;html=1;strokeColor=none;fillColor=none;align=center;verticalAlign=middle;whiteSpace=wrap;rounded=0;dashed=1;strokeWidth=0.3;rotation=0;connectable=0;allowArrows=0;fontSize=13;fontFamily=Calibri Light;fontColor=#808080;" parent="1" vertex="1">
          <mxGeometry x="987.23" y="737.63" width="69.77" height="20" as="geometry" />
        </mxCell>
        <mxCell id="HwRbOk4TDf7RxoMXhi_D-96" value="" style="endArrow=classic;startArrow=none;html=1;rounded=0;strokeColor=#808080;strokeWidth=0.5;startFill=0;endSize=3;startSize=3;" parent="1" edge="1">
          <mxGeometry width="50" height="50" relative="1" as="geometry">
            <mxPoint x="1020" y="760" as="sourcePoint" />
            <mxPoint x="998" y="807" as="targetPoint" />
          </mxGeometry>
        </mxCell>
        <mxCell id="HwRbOk4TDf7RxoMXhi_D-97" value="" style="endArrow=none;html=1;rounded=0;strokeColor=#000000;strokeWidth=7;fontSize=12;fontColor=#000000;" parent="1" edge="1">
          <mxGeometry width="50" height="50" relative="1" as="geometry">
            <mxPoint x="757" y="940" as="sourcePoint" />
            <mxPoint x="1237" y="940" as="targetPoint" />
          </mxGeometry>
        </mxCell>
        <mxCell id="5A5QTYU6ezY7px4SmfUT-5" value="" style="ellipse;whiteSpace=wrap;html=1;fillColor=none;strokeWidth=0.5;" parent="1" vertex="1">
          <mxGeometry x="869" y="792" width="20" height="20" as="geometry" />
        </mxCell>
        <mxCell id="5A5QTYU6ezY7px4SmfUT-6" value="" style="ellipse;whiteSpace=wrap;html=1;fillColor=none;strokeWidth=0.5;" parent="1" vertex="1">
          <mxGeometry x="940" y="752.63" width="20" height="20" as="geometry" />
        </mxCell>
        <mxCell id="5A5QTYU6ezY7px4SmfUT-7" value="" style="ellipse;whiteSpace=wrap;html=1;fillColor=none;strokeWidth=0.5;" parent="1" vertex="1">
          <mxGeometry x="1074" y="786.5" width="20" height="20" as="geometry" />
        </mxCell>
        <mxCell id="5A5QTYU6ezY7px4SmfUT-8" value="" style="ellipse;whiteSpace=wrap;html=1;fillColor=none;strokeWidth=0.5;" parent="1" vertex="1">
          <mxGeometry x="889.15" y="880" width="20" height="20" as="geometry" />
        </mxCell>
        <mxCell id="5A5QTYU6ezY7px4SmfUT-9" value="" style="ellipse;whiteSpace=wrap;html=1;fillColor=none;strokeWidth=0.5;" parent="1" vertex="1">
          <mxGeometry x="1075" y="880" width="20" height="20" as="geometry" />
        </mxCell>
        <mxCell id="03gMzTEqm1sndyzrg9Co-1" value="" style="group;dropTarget=0;" parent="1" vertex="1" connectable="0">
          <mxGeometry x="820" y="560" width="80" height="69" as="geometry" />
        </mxCell>
        <mxCell id="03gMzTEqm1sndyzrg9Co-2" value="" style="endArrow=classic;startArrow=oval;html=1;rounded=0;strokeColor=#808080;strokeWidth=0.5;startFill=1;endSize=3;startSize=3;" parent="03gMzTEqm1sndyzrg9Co-1" edge="1">
          <mxGeometry width="50" height="50" relative="1" as="geometry">
            <mxPoint x="30" y="50" as="sourcePoint" />
            <mxPoint x="30" y="10" as="targetPoint" />
          </mxGeometry>
        </mxCell>
        <mxCell id="03gMzTEqm1sndyzrg9Co-3" value="" style="endArrow=classic;startArrow=oval;html=1;rounded=0;strokeColor=#808080;strokeWidth=0.5;startFill=1;endSize=3;startSize=6;" parent="03gMzTEqm1sndyzrg9Co-1" edge="1">
          <mxGeometry width="50" height="50" relative="1" as="geometry">
            <mxPoint x="30" y="50" as="sourcePoint" />
            <mxPoint x="70" y="50" as="targetPoint" />
          </mxGeometry>
        </mxCell>
        <mxCell id="03gMzTEqm1sndyzrg9Co-4" value="" style="endArrow=classic;startArrow=oval;html=1;rounded=0;strokeColor=#808080;strokeWidth=0.5;startFill=1;endSize=3;startSize=3;" parent="03gMzTEqm1sndyzrg9Co-1" edge="1">
          <mxGeometry width="50" height="50" relative="1" as="geometry">
            <mxPoint x="30" y="50" as="sourcePoint" />
            <mxPoint x="10" y="60" as="targetPoint" />
          </mxGeometry>
        </mxCell>
        <mxCell id="03gMzTEqm1sndyzrg9Co-5" value="&lt;font style=&quot;font-size: 13px;&quot;&gt;y&lt;/font&gt;" style="text;html=1;strokeColor=none;fillColor=none;align=center;verticalAlign=bottom;whiteSpace=wrap;rounded=0;dashed=1;strokeWidth=0.3;rotation=0;connectable=0;allowArrows=0;spacing=0;fontColor=#808080;fontSize=13;fontFamily=Calibri Light;" parent="03gMzTEqm1sndyzrg9Co-1" vertex="1">
          <mxGeometry x="20" width="20" height="10" as="geometry" />
        </mxCell>
        <mxCell id="03gMzTEqm1sndyzrg9Co-6" value="&lt;font style=&quot;font-size: 13px;&quot;&gt;x&lt;/font&gt;" style="text;html=1;strokeColor=none;fillColor=none;align=center;verticalAlign=bottom;whiteSpace=wrap;rounded=0;dashed=1;strokeWidth=0.3;rotation=0;connectable=0;allowArrows=0;spacing=0;fontColor=#808080;fontSize=13;fontFamily=Calibri Light;" parent="03gMzTEqm1sndyzrg9Co-1" vertex="1">
          <mxGeometry x="64" y="47" width="20" height="10" as="geometry" />
        </mxCell>
        <mxCell id="03gMzTEqm1sndyzrg9Co-7" value="&lt;font style=&quot;font-size: 13px;&quot;&gt;z&lt;/font&gt;" style="text;html=1;strokeColor=none;fillColor=none;align=center;verticalAlign=bottom;whiteSpace=wrap;rounded=0;dashed=1;strokeWidth=0.3;rotation=0;connectable=0;allowArrows=0;spacing=0;fontColor=#808080;fontSize=13;fontFamily=Calibri Light;" parent="03gMzTEqm1sndyzrg9Co-1" vertex="1">
          <mxGeometry x="-6" y="60" width="20" height="10" as="geometry" />
        </mxCell>
        <mxCell id="03gMzTEqm1sndyzrg9Co-8" value="" style="endArrow=classic;startArrow=classic;html=1;rounded=0;strokeColor=#808080;strokeWidth=0.5;endSize=3;startSize=3;fontColor=#808080;" parent="1" edge="1">
          <mxGeometry width="50" height="50" relative="1" as="geometry">
            <mxPoint x="791" y="610" as="sourcePoint" />
            <mxPoint x="846" y="610" as="targetPoint" />
          </mxGeometry>
        </mxCell>
        <mxCell id="03gMzTEqm1sndyzrg9Co-10" value="&lt;font style=&quot;font-size: 13px;&quot;&gt;radius&lt;/font&gt;" style="text;html=1;strokeColor=none;fillColor=none;align=center;verticalAlign=middle;whiteSpace=wrap;rounded=0;dashed=1;strokeWidth=0.3;rotation=0;connectable=0;allowArrows=0;fontSize=13;fontFamily=Calibri Light;fontColor=#808080;" parent="1" vertex="1">
          <mxGeometry x="793.19" y="593" width="50" height="17" as="geometry" />
        </mxCell>
        <mxCell id="03gMzTEqm1sndyzrg9Co-11" value="Ball" style="text;html=1;strokeColor=none;fillColor=none;align=left;verticalAlign=middle;whiteSpace=wrap;rounded=0;fontStyle=1" parent="1" vertex="1">
          <mxGeometry x="769.15" y="507" width="120" height="30" as="geometry" />
        </mxCell>
        <mxCell id="03gMzTEqm1sndyzrg9Co-12" value="Box" style="text;html=1;strokeColor=none;fillColor=none;align=left;verticalAlign=middle;whiteSpace=wrap;rounded=0;fontStyle=1" parent="1" vertex="1">
          <mxGeometry x="947" y="503.5" width="120" height="30" as="geometry" />
        </mxCell>
        <mxCell id="03gMzTEqm1sndyzrg9Co-14" value="" style="group;dropTarget=0;" parent="1" vertex="1" connectable="0">
          <mxGeometry x="1059.5" y="548.25" width="80" height="69" as="geometry" />
        </mxCell>
        <mxCell id="03gMzTEqm1sndyzrg9Co-15" value="" style="endArrow=classic;startArrow=oval;html=1;rounded=0;strokeColor=#808080;strokeWidth=0.5;startFill=1;endSize=3;startSize=3;" parent="03gMzTEqm1sndyzrg9Co-14" edge="1">
          <mxGeometry width="50" height="50" relative="1" as="geometry">
            <mxPoint x="30" y="50" as="sourcePoint" />
            <mxPoint x="30" y="21" as="targetPoint" />
          </mxGeometry>
        </mxCell>
        <mxCell id="03gMzTEqm1sndyzrg9Co-16" value="" style="endArrow=classic;startArrow=oval;html=1;rounded=0;strokeColor=#808080;strokeWidth=0.5;startFill=1;endSize=3;startSize=6;" parent="03gMzTEqm1sndyzrg9Co-14" edge="1">
          <mxGeometry width="50" height="50" relative="1" as="geometry">
            <mxPoint x="30" y="50" as="sourcePoint" />
            <mxPoint x="70" y="50" as="targetPoint" />
          </mxGeometry>
        </mxCell>
        <mxCell id="03gMzTEqm1sndyzrg9Co-17" value="" style="endArrow=classic;startArrow=oval;html=1;rounded=0;strokeColor=#808080;strokeWidth=0.5;startFill=1;endSize=3;startSize=3;" parent="03gMzTEqm1sndyzrg9Co-14" edge="1">
          <mxGeometry width="50" height="50" relative="1" as="geometry">
            <mxPoint x="30" y="50" as="sourcePoint" />
            <mxPoint x="10" y="60" as="targetPoint" />
          </mxGeometry>
        </mxCell>
        <mxCell id="03gMzTEqm1sndyzrg9Co-18" value="&lt;font style=&quot;font-size: 13px;&quot;&gt;y&lt;/font&gt;" style="text;html=1;strokeColor=none;fillColor=none;align=center;verticalAlign=bottom;whiteSpace=wrap;rounded=0;dashed=1;strokeWidth=0.3;rotation=0;connectable=0;allowArrows=0;spacing=0;fontColor=#808080;fontSize=13;fontFamily=Calibri Light;" parent="03gMzTEqm1sndyzrg9Co-14" vertex="1">
          <mxGeometry x="12" y="19" width="20" height="10" as="geometry" />
        </mxCell>
        <mxCell id="03gMzTEqm1sndyzrg9Co-19" value="&lt;font style=&quot;font-size: 13px;&quot;&gt;x&lt;/font&gt;" style="text;html=1;strokeColor=none;fillColor=none;align=center;verticalAlign=bottom;whiteSpace=wrap;rounded=0;dashed=1;strokeWidth=0.3;rotation=0;connectable=0;allowArrows=0;spacing=0;fontColor=#808080;fontSize=13;fontFamily=Calibri Light;" parent="03gMzTEqm1sndyzrg9Co-14" vertex="1">
          <mxGeometry x="64" y="47" width="20" height="10" as="geometry" />
        </mxCell>
        <mxCell id="03gMzTEqm1sndyzrg9Co-20" value="&lt;font style=&quot;font-size: 13px;&quot;&gt;z&lt;/font&gt;" style="text;html=1;strokeColor=none;fillColor=none;align=center;verticalAlign=bottom;whiteSpace=wrap;rounded=0;dashed=1;strokeWidth=0.3;rotation=0;connectable=0;allowArrows=0;spacing=0;fontColor=#808080;fontSize=13;fontFamily=Calibri Light;" parent="03gMzTEqm1sndyzrg9Co-14" vertex="1">
          <mxGeometry x="-6" y="60" width="20" height="10" as="geometry" />
        </mxCell>
        <mxCell id="03gMzTEqm1sndyzrg9Co-21" value="" style="endArrow=classic;startArrow=classic;html=1;rounded=0;strokeColor=#808080;strokeWidth=0.5;endSize=3;startSize=3;fontColor=#808080;" parent="1" edge="1">
          <mxGeometry width="50" height="50" relative="1" as="geometry">
            <mxPoint x="1008.5" y="659.25" as="sourcePoint" />
            <mxPoint x="1159.5" y="659.25" as="targetPoint" />
          </mxGeometry>
        </mxCell>
        <mxCell id="03gMzTEqm1sndyzrg9Co-22" value="&lt;font style=&quot;font-size: 13px;&quot;&gt;sizex&lt;/font&gt;" style="text;html=1;strokeColor=none;fillColor=none;align=center;verticalAlign=middle;whiteSpace=wrap;rounded=0;dashed=1;strokeWidth=0.3;rotation=0;connectable=0;allowArrows=0;fontSize=13;fontFamily=Calibri Light;fontColor=#808080;" parent="1" vertex="1">
          <mxGeometry x="1059.5" y="658.81" width="50" height="17" as="geometry" />
        </mxCell>
        <mxCell id="03gMzTEqm1sndyzrg9Co-23" value="" style="endArrow=classic;startArrow=classic;html=1;rounded=0;strokeColor=#808080;strokeWidth=0.5;endSize=3;startSize=3;fontColor=#808080;" parent="1" edge="1">
          <mxGeometry width="50" height="50" relative="1" as="geometry">
            <mxPoint x="999.5" y="559.25" as="sourcePoint" />
            <mxPoint x="999.5" y="649.25" as="targetPoint" />
          </mxGeometry>
        </mxCell>
        <mxCell id="03gMzTEqm1sndyzrg9Co-24" value="&lt;font style=&quot;font-size: 13px;&quot;&gt;sizey&lt;/font&gt;" style="text;html=1;strokeColor=none;fillColor=none;align=center;verticalAlign=middle;whiteSpace=wrap;rounded=0;dashed=1;strokeWidth=0.3;rotation=0;connectable=0;allowArrows=0;fontSize=13;fontFamily=Calibri Light;fontColor=#808080;" parent="1" vertex="1">
          <mxGeometry x="963.5" y="588.25" width="38" height="17" as="geometry" />
        </mxCell>
        <mxCell id="03gMzTEqm1sndyzrg9Co-25" value="" style="endArrow=classic;startArrow=classic;html=1;rounded=0;strokeColor=#808080;strokeWidth=0.5;endSize=3;startSize=3;fontColor=#808080;" parent="1" edge="1">
          <mxGeometry width="50" height="50" relative="1" as="geometry">
            <mxPoint x="1175.5" y="649.25" as="sourcePoint" />
            <mxPoint x="1195.5" y="639.25" as="targetPoint" />
          </mxGeometry>
        </mxCell>
        <mxCell id="03gMzTEqm1sndyzrg9Co-26" value="&lt;font style=&quot;font-size: 13px;&quot;&gt;sizez&lt;/font&gt;" style="text;html=1;strokeColor=none;fillColor=none;align=center;verticalAlign=middle;whiteSpace=wrap;rounded=0;dashed=1;strokeWidth=0.3;rotation=0;connectable=0;allowArrows=0;fontSize=13;fontFamily=Calibri Light;fontColor=#808080;" parent="1" vertex="1">
          <mxGeometry x="1181.5" y="641.25" width="35" height="17" as="geometry" />
        </mxCell>
        <mxCell id="nbHJa0xWLCRpVppI_XhF-4" value="" style="group;rotation=15;" parent="1" vertex="1" connectable="0">
          <mxGeometry x="1018.5" y="986" width="20" height="138.37" as="geometry" />
        </mxCell>
        <mxCell id="nbHJa0xWLCRpVppI_XhF-1" value="" style="rounded=0;whiteSpace=wrap;html=1;strokeWidth=2;fillColor=none;rotation=15;" parent="nbHJa0xWLCRpVppI_XhF-4" vertex="1">
          <mxGeometry y="48" width="20" height="40" as="geometry" />
        </mxCell>
        <mxCell id="nbHJa0xWLCRpVppI_XhF-2" value="" style="rounded=0;whiteSpace=wrap;html=1;strokeWidth=2;fillColor=none;rotation=15;" parent="nbHJa0xWLCRpVppI_XhF-4" vertex="1">
          <mxGeometry x="13" y="2" width="20" height="40" as="geometry" />
        </mxCell>
        <mxCell id="nbHJa0xWLCRpVppI_XhF-3" value="" style="rounded=0;whiteSpace=wrap;html=1;strokeWidth=2;fillColor=none;rotation=15;" parent="nbHJa0xWLCRpVppI_XhF-4" vertex="1">
          <mxGeometry x="-13" y="97" width="20" height="40" as="geometry" />
        </mxCell>
        <mxCell id="nbHJa0xWLCRpVppI_XhF-5" value="" style="group;rotation=5;" parent="1" vertex="1" connectable="0">
          <mxGeometry x="980.5" y="980" width="20" height="138.37" as="geometry" />
        </mxCell>
        <mxCell id="nbHJa0xWLCRpVppI_XhF-6" value="" style="rounded=0;whiteSpace=wrap;html=1;strokeWidth=2;fillColor=none;rotation=5;" parent="nbHJa0xWLCRpVppI_XhF-5" vertex="1">
          <mxGeometry y="48" width="20" height="40" as="geometry" />
        </mxCell>
        <mxCell id="nbHJa0xWLCRpVppI_XhF-7" value="" style="rounded=0;whiteSpace=wrap;html=1;strokeWidth=2;fillColor=none;rotation=5;" parent="nbHJa0xWLCRpVppI_XhF-5" vertex="1">
          <mxGeometry x="4" width="20" height="40" as="geometry" />
        </mxCell>
        <mxCell id="nbHJa0xWLCRpVppI_XhF-8" value="" style="rounded=0;whiteSpace=wrap;html=1;strokeWidth=2;fillColor=none;rotation=5;" parent="nbHJa0xWLCRpVppI_XhF-5" vertex="1">
          <mxGeometry x="-4" y="98" width="20" height="40" as="geometry" />
        </mxCell>
        <mxCell id="nbHJa0xWLCRpVppI_XhF-9" value="" style="group;rotation=-5;" parent="1" vertex="1" connectable="0">
          <mxGeometry x="939.65" y="980" width="20" height="138.37" as="geometry" />
        </mxCell>
        <mxCell id="nbHJa0xWLCRpVppI_XhF-10" value="" style="rounded=0;whiteSpace=wrap;html=1;strokeWidth=2;fillColor=none;rotation=-5;" parent="nbHJa0xWLCRpVppI_XhF-9" vertex="1">
          <mxGeometry y="48" width="20" height="40" as="geometry" />
        </mxCell>
        <mxCell id="nbHJa0xWLCRpVppI_XhF-11" value="" style="rounded=0;whiteSpace=wrap;html=1;strokeWidth=2;fillColor=none;rotation=-5;" parent="nbHJa0xWLCRpVppI_XhF-9" vertex="1">
          <mxGeometry x="-4" width="20" height="40" as="geometry" />
        </mxCell>
        <mxCell id="nbHJa0xWLCRpVppI_XhF-12" value="" style="rounded=0;whiteSpace=wrap;html=1;strokeWidth=2;fillColor=none;rotation=-5;" parent="nbHJa0xWLCRpVppI_XhF-9" vertex="1">
          <mxGeometry x="4" y="98" width="20" height="40" as="geometry" />
        </mxCell>
        <mxCell id="nbHJa0xWLCRpVppI_XhF-13" value="" style="group;rotation=-15;" parent="1" vertex="1" connectable="0">
          <mxGeometry x="901.5" y="986" width="20" height="138.37" as="geometry" />
        </mxCell>
        <mxCell id="nbHJa0xWLCRpVppI_XhF-14" value="" style="rounded=0;whiteSpace=wrap;html=1;strokeWidth=2;fillColor=none;rotation=-15;" parent="nbHJa0xWLCRpVppI_XhF-13" vertex="1">
          <mxGeometry y="48" width="20" height="40" as="geometry" />
        </mxCell>
        <mxCell id="nbHJa0xWLCRpVppI_XhF-15" value="" style="rounded=0;whiteSpace=wrap;html=1;strokeWidth=2;fillColor=none;rotation=-15;" parent="nbHJa0xWLCRpVppI_XhF-13" vertex="1">
          <mxGeometry x="-13" y="2" width="20" height="40" as="geometry" />
        </mxCell>
        <mxCell id="nbHJa0xWLCRpVppI_XhF-16" value="" style="rounded=0;whiteSpace=wrap;html=1;strokeWidth=2;fillColor=none;rotation=-15;" parent="nbHJa0xWLCRpVppI_XhF-13" vertex="1">
          <mxGeometry x="13" y="97" width="20" height="40" as="geometry" />
        </mxCell>
        <mxCell id="nbHJa0xWLCRpVppI_XhF-17" value="" style="group;rotation=75;" parent="1" vertex="1" connectable="0">
          <mxGeometry x="1085" y="1105" width="20" height="138.37" as="geometry" />
        </mxCell>
        <mxCell id="nbHJa0xWLCRpVppI_XhF-18" value="" style="rounded=0;whiteSpace=wrap;html=1;strokeWidth=2;fillColor=none;rotation=75;" parent="nbHJa0xWLCRpVppI_XhF-17" vertex="1">
          <mxGeometry x="1" y="49" width="20" height="40" as="geometry" />
        </mxCell>
        <mxCell id="nbHJa0xWLCRpVppI_XhF-19" value="" style="rounded=0;whiteSpace=wrap;html=1;strokeWidth=2;fillColor=none;rotation=75;" parent="nbHJa0xWLCRpVppI_XhF-17" vertex="1">
          <mxGeometry x="47" y="37" width="20" height="40" as="geometry" />
        </mxCell>
        <mxCell id="nbHJa0xWLCRpVppI_XhF-20" value="" style="rounded=0;whiteSpace=wrap;html=1;strokeWidth=2;fillColor=none;rotation=75;" parent="nbHJa0xWLCRpVppI_XhF-17" vertex="1">
          <mxGeometry x="-48" y="62" width="20" height="40" as="geometry" />
        </mxCell>
        <mxCell id="nbHJa0xWLCRpVppI_XhF-21" value="" style="verticalLabelPosition=bottom;verticalAlign=top;html=1;shape=mxgraph.basic.polygon;polyCoords=[[0.22,0.03],[0.48,0],[0.75,0.03],[0.98,0.09],[0.98,0.6],[0.98,0.9],[0,0.9],[0,0.09]];polyline=0;fillColor=none;strokeWidth=2;" parent="1" vertex="1">
          <mxGeometry x="920.5" y="1124.37" width="102" height="100" as="geometry" />
        </mxCell>
        <mxCell id="nbHJa0xWLCRpVppI_XhF-23" value="" style="endArrow=classic;html=1;rounded=0;strokeWidth=0.5;startSize=3;endSize=3;exitX=1;exitY=0.75;exitDx=0;exitDy=0;" parent="1" source="nbHJa0xWLCRpVppI_XhF-24" edge="1">
          <mxGeometry width="50" height="50" relative="1" as="geometry">
            <mxPoint x="830" y="1150" as="sourcePoint" />
            <mxPoint x="911" y="1100" as="targetPoint" />
          </mxGeometry>
        </mxCell>
        <mxCell id="nbHJa0xWLCRpVppI_XhF-24" value="Finger" style="text;html=1;strokeColor=none;fillColor=none;align=right;verticalAlign=middle;whiteSpace=wrap;rounded=0;fontStyle=1" parent="1" vertex="1">
          <mxGeometry x="816" y="1075" width="60" height="20" as="geometry" />
        </mxCell>
        <mxCell id="nbHJa0xWLCRpVppI_XhF-25" value="" style="endArrow=classic;html=1;rounded=0;strokeWidth=0.5;startSize=3;endSize=3;exitX=1;exitY=0.25;exitDx=0;exitDy=0;" parent="1" source="nbHJa0xWLCRpVppI_XhF-24" edge="1">
          <mxGeometry width="50" height="50" relative="1" as="geometry">
            <mxPoint x="886" y="1100" as="sourcePoint" />
            <mxPoint x="900" y="1060" as="targetPoint" />
          </mxGeometry>
        </mxCell>
        <mxCell id="nbHJa0xWLCRpVppI_XhF-26" value="Tip" style="text;html=1;strokeColor=none;fillColor=none;align=right;verticalAlign=middle;whiteSpace=wrap;rounded=0;fontStyle=1" parent="1" vertex="1">
          <mxGeometry x="820" y="1013" width="42.95" height="20" as="geometry" />
        </mxCell>
        <mxCell id="nbHJa0xWLCRpVppI_XhF-27" value="" style="endArrow=classic;html=1;rounded=0;strokeWidth=0.5;startSize=3;endSize=3;exitX=1;exitY=0.5;exitDx=0;exitDy=0;" parent="1" source="nbHJa0xWLCRpVppI_XhF-26" edge="1">
          <mxGeometry width="50" height="50" relative="1" as="geometry">
            <mxPoint x="886" y="1090" as="sourcePoint" />
            <mxPoint x="887" y="1015" as="targetPoint" />
          </mxGeometry>
        </mxCell>
        <mxCell id="nbHJa0xWLCRpVppI_XhF-28" value="" style="endArrow=classic;html=1;rounded=0;strokeWidth=0.5;startSize=3;endSize=3;exitX=1;exitY=0.5;exitDx=0;exitDy=0;" parent="1" source="nbHJa0xWLCRpVppI_XhF-29" edge="1">
          <mxGeometry width="50" height="50" relative="1" as="geometry">
            <mxPoint x="888" y="1195.37" as="sourcePoint" />
            <mxPoint x="917" y="1170" as="targetPoint" />
          </mxGeometry>
        </mxCell>
        <mxCell id="nbHJa0xWLCRpVppI_XhF-29" value="Palm" style="text;html=1;strokeColor=none;fillColor=none;align=right;verticalAlign=middle;whiteSpace=wrap;rounded=0;fontStyle=1" parent="1" vertex="1">
          <mxGeometry x="837.19" y="1160" width="44.95" height="20" as="geometry" />
        </mxCell>
        <mxCell id="nbHJa0xWLCRpVppI_XhF-31" value="Tip" style="text;html=1;strokeColor=none;fillColor=none;align=left;verticalAlign=middle;whiteSpace=wrap;rounded=0;fontStyle=1" parent="1" vertex="1">
          <mxGeometry x="1110.48" y="1050" width="89.52" height="20" as="geometry" />
        </mxCell>
        <mxCell id="nbHJa0xWLCRpVppI_XhF-32" value="" style="endArrow=classic;html=1;rounded=0;strokeWidth=0.5;startSize=3;endSize=3;exitX=0;exitY=0;exitDx=0;exitDy=0;" parent="1" source="nbHJa0xWLCRpVppI_XhF-31" edge="1">
          <mxGeometry width="50" height="50" relative="1" as="geometry">
            <mxPoint x="873" y="1033" as="sourcePoint" />
            <mxPoint x="1054" y="1011" as="targetPoint" />
          </mxGeometry>
        </mxCell>
        <mxCell id="nbHJa0xWLCRpVppI_XhF-33" value="" style="endArrow=classic;html=1;rounded=0;strokeWidth=0.5;startSize=3;endSize=3;" parent="1" edge="1">
          <mxGeometry width="50" height="50" relative="1" as="geometry">
            <mxPoint x="1122" y="1069" as="sourcePoint" />
            <mxPoint x="1140" y="1150" as="targetPoint" />
          </mxGeometry>
        </mxCell>
        <mxCell id="nbHJa0xWLCRpVppI_XhF-34" value="Finger" style="text;html=1;strokeColor=none;fillColor=none;align=right;verticalAlign=middle;whiteSpace=wrap;rounded=0;fontStyle=1" parent="1" vertex="1">
          <mxGeometry x="1057" y="1095" width="43" height="20" as="geometry" />
        </mxCell>
        <mxCell id="nbHJa0xWLCRpVppI_XhF-35" value="" style="endArrow=classic;html=1;rounded=0;strokeWidth=0.5;startSize=3;endSize=3;exitX=0.25;exitY=0;exitDx=0;exitDy=0;" parent="1" source="nbHJa0xWLCRpVppI_XhF-34" edge="1">
          <mxGeometry width="50" height="50" relative="1" as="geometry">
            <mxPoint x="1120" y="1060" as="sourcePoint" />
            <mxPoint x="1040" y="1060" as="targetPoint" />
          </mxGeometry>
        </mxCell>
        <mxCell id="nbHJa0xWLCRpVppI_XhF-36" value="" style="endArrow=classic;html=1;rounded=0;strokeWidth=0.5;startSize=3;endSize=3;exitX=0;exitY=0.5;exitDx=0;exitDy=0;" parent="1" source="nbHJa0xWLCRpVppI_XhF-34" edge="1">
          <mxGeometry width="50" height="50" relative="1" as="geometry">
            <mxPoint x="1082" y="1105" as="sourcePoint" />
            <mxPoint x="1028" y="1107" as="targetPoint" />
          </mxGeometry>
        </mxCell>
        <mxCell id="nbHJa0xWLCRpVppI_XhF-37" value="" style="endArrow=classic;html=1;rounded=0;strokeWidth=0.5;startSize=3;endSize=3;" parent="1" edge="1">
          <mxGeometry width="50" height="50" relative="1" as="geometry">
            <mxPoint x="1067" y="1112" as="sourcePoint" />
            <mxPoint x="1045" y="1173" as="targetPoint" />
          </mxGeometry>
        </mxCell>
        <mxCell id="nbHJa0xWLCRpVppI_XhF-38" value="" style="endArrow=classic;html=1;rounded=0;strokeWidth=0.5;startSize=3;endSize=3;exitX=0.44;exitY=0.919;exitDx=0;exitDy=0;exitPerimeter=0;" parent="1" source="nbHJa0xWLCRpVppI_XhF-34" edge="1">
          <mxGeometry width="50" height="50" relative="1" as="geometry">
            <mxPoint x="1077" y="1120" as="sourcePoint" />
            <mxPoint x="1094" y="1162" as="targetPoint" />
          </mxGeometry>
        </mxCell>
        <mxCell id="nbHJa0xWLCRpVppI_XhF-39" value="" style="endArrow=none;html=1;rounded=0;strokeColor=#000000;strokeWidth=7;fontSize=12;fontColor=#000000;" parent="1" edge="1">
          <mxGeometry width="50" height="50" relative="1" as="geometry">
            <mxPoint x="760" y="1240" as="sourcePoint" />
            <mxPoint x="1240" y="1240" as="targetPoint" />
          </mxGeometry>
        </mxCell>
        <mxCell id="nbHJa0xWLCRpVppI_XhF-40" value="" style="endArrow=none;html=1;rounded=0;strokeColor=#000000;strokeWidth=1;fontSize=8;fontColor=#007FFF;" parent="1" edge="1">
          <mxGeometry width="50" height="50" relative="1" as="geometry">
            <mxPoint x="99.5" y="629.98" as="sourcePoint" />
            <mxPoint x="119.5" y="619.98" as="targetPoint" />
          </mxGeometry>
        </mxCell>
        <mxCell id="nbHJa0xWLCRpVppI_XhF-45" value="" style="endArrow=none;html=1;rounded=0;" parent="1" edge="1">
          <mxGeometry width="50" height="50" relative="1" as="geometry">
            <mxPoint x="89.5" y="379.98" as="sourcePoint" />
            <mxPoint x="119.5" y="619.98" as="targetPoint" />
            <Array as="points">
              <mxPoint x="119.5" y="379.98" />
              <mxPoint x="159.5" y="419.98" />
              <mxPoint x="159.5" y="579.98" />
            </Array>
          </mxGeometry>
        </mxCell>
        <mxCell id="nbHJa0xWLCRpVppI_XhF-46" value="" style="endArrow=none;html=1;rounded=0;strokeColor=#000000;strokeWidth=1;fontSize=8;fontColor=#007FFF;" parent="1" edge="1">
          <mxGeometry width="50" height="50" relative="1" as="geometry">
            <mxPoint x="139.5" y="429.98" as="sourcePoint" />
            <mxPoint x="159.5" y="419.98" as="targetPoint" />
          </mxGeometry>
        </mxCell>
        <mxCell id="nbHJa0xWLCRpVppI_XhF-47" value="" style="endArrow=none;html=1;rounded=0;strokeColor=#000000;strokeWidth=1;fontSize=8;fontColor=#007FFF;" parent="1" edge="1">
          <mxGeometry width="50" height="50" relative="1" as="geometry">
            <mxPoint x="99.5" y="389.98" as="sourcePoint" />
            <mxPoint x="119.5" y="379.98" as="targetPoint" />
          </mxGeometry>
        </mxCell>
        <mxCell id="nbHJa0xWLCRpVppI_XhF-48" value="" style="endArrow=none;html=1;rounded=0;strokeColor=#000000;strokeWidth=1;fontSize=8;fontColor=#007FFF;" parent="1" edge="1">
          <mxGeometry width="50" height="50" relative="1" as="geometry">
            <mxPoint x="139.5" y="589.98" as="sourcePoint" />
            <mxPoint x="159.5" y="579.98" as="targetPoint" />
          </mxGeometry>
        </mxCell>
        <mxCell id="nbHJa0xWLCRpVppI_XhF-49" value="" style="endArrow=none;html=1;rounded=0;strokeColor=#000000;strokeWidth=1;fontSize=8;fontColor=#007FFF;" parent="1" edge="1">
          <mxGeometry width="50" height="50" relative="1" as="geometry">
            <mxPoint x="69.5" y="389.98" as="sourcePoint" />
            <mxPoint x="89.5" y="379.98" as="targetPoint" />
          </mxGeometry>
        </mxCell>
        <mxCell id="nbHJa0xWLCRpVppI_XhF-50" value="" style="endArrow=none;html=1;rounded=0;strokeWidth=0.5;strokeColor=#999999;dashed=1;" parent="1" edge="1">
          <mxGeometry width="50" height="50" relative="1" as="geometry">
            <mxPoint x="89.5" y="379.98" as="sourcePoint" />
            <mxPoint x="119.5" y="619.98" as="targetPoint" />
            <Array as="points">
              <mxPoint x="79.5" y="389.98" />
              <mxPoint x="79.5" y="609.98" />
              <mxPoint x="89.5" y="619.98" />
            </Array>
          </mxGeometry>
        </mxCell>
        <mxCell id="nbHJa0xWLCRpVppI_XhF-51" value="" style="endArrow=none;html=1;rounded=0;strokeColor=#999999;strokeWidth=0.5;fontSize=8;fontColor=#007FFF;dashed=1;" parent="1" edge="1">
          <mxGeometry width="50" height="50" relative="1" as="geometry">
            <mxPoint x="69.5" y="629.98" as="sourcePoint" />
            <mxPoint x="89.5" y="619.98" as="targetPoint" />
          </mxGeometry>
        </mxCell>
        <mxCell id="nbHJa0xWLCRpVppI_XhF-52" value="" style="endArrow=none;html=1;rounded=0;strokeColor=#999999;strokeWidth=0.5;fontSize=8;fontColor=#007FFF;dashed=1;" parent="1" edge="1">
          <mxGeometry width="50" height="50" relative="1" as="geometry">
            <mxPoint x="59.5" y="619.98" as="sourcePoint" />
            <mxPoint x="79.5" y="609.98" as="targetPoint" />
          </mxGeometry>
        </mxCell>
        <mxCell id="nbHJa0xWLCRpVppI_XhF-53" value="" style="endArrow=none;html=1;rounded=0;strokeColor=#999999;strokeWidth=0.5;fontSize=8;fontColor=#007FFF;dashed=1;" parent="1" edge="1">
          <mxGeometry width="50" height="50" relative="1" as="geometry">
            <mxPoint x="59.5" y="399.98" as="sourcePoint" />
            <mxPoint x="79.5" y="389.98" as="targetPoint" />
          </mxGeometry>
        </mxCell>
        <mxCell id="nbHJa0xWLCRpVppI_XhF-56" value="" style="endArrow=none;html=1;rounded=0;" parent="1" edge="1">
          <mxGeometry width="50" height="50" relative="1" as="geometry">
            <mxPoint x="59.5" y="509.98" as="sourcePoint" />
            <mxPoint x="59.5" y="509.98" as="targetPoint" />
            <Array as="points">
              <mxPoint x="59.5" y="399.98" />
              <mxPoint x="69.5" y="389.98" />
              <mxPoint x="99.5" y="389.98" />
              <mxPoint x="139.5" y="429.98" />
              <mxPoint x="139.5" y="589.98" />
              <mxPoint x="99.5" y="629.98" />
              <mxPoint x="69.5" y="629.98" />
              <mxPoint x="59.5" y="619.98" />
            </Array>
          </mxGeometry>
        </mxCell>
        <mxCell id="nbHJa0xWLCRpVppI_XhF-57" value="" style="endArrow=none;html=1;rounded=0;strokeColor=#000000;strokeWidth=1;fontSize=8;fontColor=#007FFF;" parent="1" edge="1">
          <mxGeometry width="50" height="50" relative="1" as="geometry">
            <mxPoint x="308.5" y="629.98" as="sourcePoint" />
            <mxPoint x="328.5" y="619.98" as="targetPoint" />
          </mxGeometry>
        </mxCell>
        <mxCell id="nbHJa0xWLCRpVppI_XhF-62" value="" style="endArrow=none;html=1;rounded=0;" parent="1" edge="1">
          <mxGeometry width="50" height="50" relative="1" as="geometry">
            <mxPoint x="298.5000000000001" y="379.98" as="sourcePoint" />
            <mxPoint x="328.5" y="619.98" as="targetPoint" />
            <Array as="points">
              <mxPoint x="358.5" y="379.98" />
              <mxPoint x="368.5" y="389.98" />
              <mxPoint x="368.5" y="579.98" />
            </Array>
          </mxGeometry>
        </mxCell>
        <mxCell id="nbHJa0xWLCRpVppI_XhF-63" value="" style="endArrow=none;html=1;rounded=0;strokeColor=#000000;strokeWidth=1;fontSize=8;fontColor=#007FFF;" parent="1" edge="1">
          <mxGeometry width="50" height="50" relative="1" as="geometry">
            <mxPoint x="348.5" y="399.98" as="sourcePoint" />
            <mxPoint x="368.5" y="389.98" as="targetPoint" />
          </mxGeometry>
        </mxCell>
        <mxCell id="nbHJa0xWLCRpVppI_XhF-64" value="" style="endArrow=none;html=1;rounded=0;strokeColor=#000000;strokeWidth=1;fontSize=8;fontColor=#007FFF;" parent="1" edge="1">
          <mxGeometry width="50" height="50" relative="1" as="geometry">
            <mxPoint x="338.5" y="389.98" as="sourcePoint" />
            <mxPoint x="358.5" y="379.98" as="targetPoint" />
          </mxGeometry>
        </mxCell>
        <mxCell id="nbHJa0xWLCRpVppI_XhF-65" value="" style="endArrow=none;html=1;rounded=0;strokeColor=#000000;strokeWidth=1;fontSize=8;fontColor=#007FFF;" parent="1" edge="1">
          <mxGeometry width="50" height="50" relative="1" as="geometry">
            <mxPoint x="348.5" y="589.98" as="sourcePoint" />
            <mxPoint x="368.5" y="579.98" as="targetPoint" />
          </mxGeometry>
        </mxCell>
        <mxCell id="nbHJa0xWLCRpVppI_XhF-66" value="" style="endArrow=none;html=1;rounded=0;strokeColor=#000000;strokeWidth=1;fontSize=8;fontColor=#007FFF;" parent="1" edge="1">
          <mxGeometry width="50" height="50" relative="1" as="geometry">
            <mxPoint x="278.5000000000001" y="389.98" as="sourcePoint" />
            <mxPoint x="298.5000000000001" y="379.98" as="targetPoint" />
          </mxGeometry>
        </mxCell>
        <mxCell id="nbHJa0xWLCRpVppI_XhF-67" value="" style="endArrow=none;html=1;rounded=0;strokeWidth=0.5;strokeColor=#999999;dashed=1;" parent="1" edge="1">
          <mxGeometry width="50" height="50" relative="1" as="geometry">
            <mxPoint x="298.5000000000001" y="379.98" as="sourcePoint" />
            <mxPoint x="328.5" y="619.98" as="targetPoint" />
            <Array as="points">
              <mxPoint x="288.5" y="389.98" />
              <mxPoint x="288.5" y="609.98" />
              <mxPoint x="298.5" y="619.98" />
            </Array>
          </mxGeometry>
        </mxCell>
        <mxCell id="nbHJa0xWLCRpVppI_XhF-68" value="" style="endArrow=none;html=1;rounded=0;strokeColor=#999999;strokeWidth=0.5;fontSize=8;fontColor=#007FFF;dashed=1;" parent="1" edge="1">
          <mxGeometry width="50" height="50" relative="1" as="geometry">
            <mxPoint x="278.5000000000001" y="629.98" as="sourcePoint" />
            <mxPoint x="298.5000000000001" y="619.98" as="targetPoint" />
          </mxGeometry>
        </mxCell>
        <mxCell id="nbHJa0xWLCRpVppI_XhF-69" value="" style="endArrow=none;html=1;rounded=0;strokeColor=#999999;strokeWidth=0.5;fontSize=8;fontColor=#007FFF;dashed=1;" parent="1" edge="1">
          <mxGeometry width="50" height="50" relative="1" as="geometry">
            <mxPoint x="268.5000000000001" y="619.98" as="sourcePoint" />
            <mxPoint x="288.5000000000001" y="609.98" as="targetPoint" />
          </mxGeometry>
        </mxCell>
        <mxCell id="nbHJa0xWLCRpVppI_XhF-70" value="" style="endArrow=none;html=1;rounded=0;strokeColor=#999999;strokeWidth=0.5;fontSize=8;fontColor=#007FFF;dashed=1;" parent="1" edge="1">
          <mxGeometry width="50" height="50" relative="1" as="geometry">
            <mxPoint x="268.5000000000001" y="399.98" as="sourcePoint" />
            <mxPoint x="288.5000000000001" y="389.98" as="targetPoint" />
          </mxGeometry>
        </mxCell>
        <mxCell id="nbHJa0xWLCRpVppI_XhF-73" value="" style="endArrow=none;html=1;rounded=0;" parent="1" edge="1">
          <mxGeometry width="50" height="50" relative="1" as="geometry">
            <mxPoint x="268.5000000000001" y="509.98" as="sourcePoint" />
            <mxPoint x="268.5000000000001" y="509.98" as="targetPoint" />
            <Array as="points">
              <mxPoint x="268.5" y="399.98" />
              <mxPoint x="278.5" y="389.98" />
              <mxPoint x="338.5" y="389.98" />
              <mxPoint x="348.5" y="399.98" />
              <mxPoint x="348.5" y="589.98" />
              <mxPoint x="308.5" y="629.98" />
              <mxPoint x="278.5" y="629.98" />
              <mxPoint x="268.5" y="619.98" />
            </Array>
          </mxGeometry>
        </mxCell>
        <mxCell id="nbHJa0xWLCRpVppI_XhF-92" value="" style="endArrow=none;html=1;rounded=0;strokeColor=#000000;strokeWidth=7;fontSize=12;fontColor=#000000;" parent="1" edge="1">
          <mxGeometry width="50" height="50" relative="1" as="geometry">
            <mxPoint x="220.5" y="349.85" as="sourcePoint" />
            <mxPoint x="220.5" y="649.85" as="targetPoint" />
          </mxGeometry>
        </mxCell>
        <mxCell id="nbHJa0xWLCRpVppI_XhF-93" value="2" style="text;html=1;strokeColor=none;fillColor=none;align=center;verticalAlign=middle;whiteSpace=wrap;rounded=0;fontSize=8;fontColor=#66B2FF;connectable=0;allowArrows=0;" parent="1" vertex="1">
          <mxGeometry x="97" y="629" width="10" height="10" as="geometry" />
        </mxCell>
        <mxCell id="nbHJa0xWLCRpVppI_XhF-94" value="1" style="text;html=1;strokeColor=none;fillColor=none;align=center;verticalAlign=middle;whiteSpace=wrap;rounded=0;fontSize=8;fontColor=#66B2FF;connectable=0;allowArrows=0;" parent="1" vertex="1">
          <mxGeometry x="62" y="629" width="10" height="10" as="geometry" />
        </mxCell>
        <mxCell id="nbHJa0xWLCRpVppI_XhF-95" value="0" style="text;html=1;strokeColor=none;fillColor=none;align=center;verticalAlign=middle;whiteSpace=wrap;rounded=0;fontSize=8;fontColor=#66B2FF;connectable=0;allowArrows=0;" parent="1" vertex="1">
          <mxGeometry x="49.5" y="617.25" width="10" height="10" as="geometry" />
        </mxCell>
        <mxCell id="nbHJa0xWLCRpVppI_XhF-96" value="3" style="text;html=1;strokeColor=none;fillColor=none;align=center;verticalAlign=middle;whiteSpace=wrap;rounded=0;fontSize=8;fontColor=#66B2FF;connectable=0;allowArrows=0;" parent="1" vertex="1">
          <mxGeometry x="129.5" y="581" width="10" height="10" as="geometry" />
        </mxCell>
        <mxCell id="nbHJa0xWLCRpVppI_XhF-97" value="4" style="text;html=1;strokeColor=none;fillColor=none;align=center;verticalAlign=middle;whiteSpace=wrap;rounded=0;fontSize=8;fontColor=#66B2FF;connectable=0;allowArrows=0;" parent="1" vertex="1">
          <mxGeometry x="129.5" y="429.98" width="10" height="10" as="geometry" />
        </mxCell>
        <mxCell id="nbHJa0xWLCRpVppI_XhF-98" value="5" style="text;html=1;strokeColor=none;fillColor=none;align=center;verticalAlign=middle;whiteSpace=wrap;rounded=0;fontSize=8;fontColor=#66B2FF;connectable=0;allowArrows=0;" parent="1" vertex="1">
          <mxGeometry x="93.5" y="390.23" width="10" height="10" as="geometry" />
        </mxCell>
        <mxCell id="nbHJa0xWLCRpVppI_XhF-99" value="6" style="text;html=1;strokeColor=none;fillColor=none;align=center;verticalAlign=middle;whiteSpace=wrap;rounded=0;fontSize=8;fontColor=#66B2FF;connectable=0;allowArrows=0;" parent="1" vertex="1">
          <mxGeometry x="59.5" y="379.98" width="10" height="10" as="geometry" />
        </mxCell>
        <mxCell id="nbHJa0xWLCRpVppI_XhF-100" value="7" style="text;html=1;strokeColor=none;fillColor=none;align=center;verticalAlign=middle;whiteSpace=wrap;rounded=0;fontSize=8;fontColor=#66B2FF;connectable=0;allowArrows=0;" parent="1" vertex="1">
          <mxGeometry x="49.5" y="394.87" width="10" height="10" as="geometry" />
        </mxCell>
        <mxCell id="nbHJa0xWLCRpVppI_XhF-101" value="9" style="text;html=1;strokeColor=none;fillColor=none;align=center;verticalAlign=middle;whiteSpace=wrap;rounded=0;fontSize=8;fontColor=#66B2FF;connectable=0;allowArrows=0;" parent="1" vertex="1">
          <mxGeometry x="87" y="609.73" width="10" height="10" as="geometry" />
        </mxCell>
        <mxCell id="nbHJa0xWLCRpVppI_XhF-102" value="10" style="text;html=1;strokeColor=none;fillColor=none;align=center;verticalAlign=middle;whiteSpace=wrap;rounded=0;fontSize=8;fontColor=#66B2FF;connectable=0;allowArrows=0;" parent="1" vertex="1">
          <mxGeometry x="117" y="619" width="10" height="10" as="geometry" />
        </mxCell>
        <mxCell id="nbHJa0xWLCRpVppI_XhF-103" value="11" style="text;html=1;strokeColor=none;fillColor=none;align=center;verticalAlign=middle;whiteSpace=wrap;rounded=0;fontSize=8;fontColor=#66B2FF;connectable=0;allowArrows=0;" parent="1" vertex="1">
          <mxGeometry x="160" y="577" width="10" height="10" as="geometry" />
        </mxCell>
        <mxCell id="nbHJa0xWLCRpVppI_XhF-104" value="14" style="text;html=1;strokeColor=none;fillColor=none;align=center;verticalAlign=middle;whiteSpace=wrap;rounded=0;fontSize=8;fontColor=#66B2FF;connectable=0;allowArrows=0;" parent="1" vertex="1">
          <mxGeometry x="82" y="369.98" width="10" height="10" as="geometry" />
        </mxCell>
        <mxCell id="nbHJa0xWLCRpVppI_XhF-106" value="13" style="text;html=1;strokeColor=none;fillColor=none;align=center;verticalAlign=middle;whiteSpace=wrap;rounded=0;fontSize=8;fontColor=#66B2FF;connectable=0;allowArrows=0;" parent="1" vertex="1">
          <mxGeometry x="117" y="370" width="10" height="10" as="geometry" />
        </mxCell>
        <mxCell id="nbHJa0xWLCRpVppI_XhF-107" value="12" style="text;html=1;strokeColor=none;fillColor=none;align=center;verticalAlign=middle;whiteSpace=wrap;rounded=0;fontSize=8;fontColor=#66B2FF;connectable=0;allowArrows=0;" parent="1" vertex="1">
          <mxGeometry x="160" y="412" width="10" height="10" as="geometry" />
        </mxCell>
        <mxCell id="nbHJa0xWLCRpVppI_XhF-108" value="8" style="text;html=1;strokeColor=none;fillColor=none;align=center;verticalAlign=middle;whiteSpace=wrap;rounded=0;fontSize=8;fontColor=#66B2FF;connectable=0;allowArrows=0;" parent="1" vertex="1">
          <mxGeometry x="79.5" y="599.73" width="10" height="10" as="geometry" />
        </mxCell>
        <mxCell id="nbHJa0xWLCRpVppI_XhF-109" value="" style="endArrow=classic;startArrow=classic;html=1;rounded=0;strokeColor=#808080;strokeWidth=0.5;endSize=3;startSize=3;fontColor=#808080;" parent="1" edge="1">
          <mxGeometry width="50" height="50" relative="1" as="geometry">
            <mxPoint x="50" y="320" as="sourcePoint" />
            <mxPoint x="49" y="80" as="targetPoint" />
          </mxGeometry>
        </mxCell>
        <mxCell id="nbHJa0xWLCRpVppI_XhF-110" value="&lt;font style=&quot;font-size: 13px;&quot;&gt;length&lt;/font&gt;" style="text;html=1;strokeColor=none;fillColor=none;align=left;verticalAlign=middle;whiteSpace=wrap;rounded=0;dashed=1;strokeWidth=0.3;rotation=-90;connectable=0;allowArrows=0;fontSize=13;fontFamily=Calibri Light;fontColor=#808080;" parent="1" vertex="1">
          <mxGeometry x="17" y="185" width="39" height="20" as="geometry" />
        </mxCell>
        <mxCell id="nbHJa0xWLCRpVppI_XhF-111" value="" style="group;dropTarget=0;" parent="1" vertex="1" connectable="0">
          <mxGeometry x="82" y="264" width="80" height="69" as="geometry" />
        </mxCell>
        <mxCell id="nbHJa0xWLCRpVppI_XhF-112" value="" style="endArrow=classic;startArrow=oval;html=1;rounded=0;strokeColor=#808080;strokeWidth=0.5;startFill=1;endSize=3;startSize=3;" parent="nbHJa0xWLCRpVppI_XhF-111" edge="1">
          <mxGeometry width="50" height="50" relative="1" as="geometry">
            <mxPoint x="30" y="50" as="sourcePoint" />
            <mxPoint x="30" y="10" as="targetPoint" />
          </mxGeometry>
        </mxCell>
        <mxCell id="nbHJa0xWLCRpVppI_XhF-113" value="" style="endArrow=classic;startArrow=oval;html=1;rounded=0;strokeColor=#808080;strokeWidth=0.5;startFill=1;endSize=3;startSize=6;" parent="nbHJa0xWLCRpVppI_XhF-111" edge="1">
          <mxGeometry width="50" height="50" relative="1" as="geometry">
            <mxPoint x="30" y="50" as="sourcePoint" />
            <mxPoint x="70" y="50" as="targetPoint" />
          </mxGeometry>
        </mxCell>
        <mxCell id="nbHJa0xWLCRpVppI_XhF-114" value="" style="endArrow=classic;startArrow=oval;html=1;rounded=0;strokeColor=#808080;strokeWidth=0.5;startFill=1;endSize=3;startSize=3;" parent="nbHJa0xWLCRpVppI_XhF-111" edge="1">
          <mxGeometry width="50" height="50" relative="1" as="geometry">
            <mxPoint x="30" y="50" as="sourcePoint" />
            <mxPoint x="-2" y="66" as="targetPoint" />
          </mxGeometry>
        </mxCell>
        <mxCell id="nbHJa0xWLCRpVppI_XhF-115" value="&lt;font style=&quot;font-size: 13px;&quot;&gt;y&lt;/font&gt;" style="text;html=1;strokeColor=none;fillColor=none;align=center;verticalAlign=bottom;whiteSpace=wrap;rounded=0;dashed=1;strokeWidth=0.3;rotation=0;connectable=0;allowArrows=0;spacing=0;fontColor=#808080;fontSize=13;fontFamily=Calibri Light;" parent="nbHJa0xWLCRpVppI_XhF-111" vertex="1">
          <mxGeometry x="20" width="20" height="10" as="geometry" />
        </mxCell>
        <mxCell id="nbHJa0xWLCRpVppI_XhF-116" value="&lt;font style=&quot;font-size: 13px;&quot;&gt;x&lt;/font&gt;" style="text;html=1;strokeColor=none;fillColor=none;align=center;verticalAlign=bottom;whiteSpace=wrap;rounded=0;dashed=1;strokeWidth=0.3;rotation=0;connectable=0;allowArrows=0;spacing=0;fontColor=#808080;fontSize=13;fontFamily=Calibri Light;" parent="nbHJa0xWLCRpVppI_XhF-111" vertex="1">
          <mxGeometry x="64" y="47" width="20" height="10" as="geometry" />
        </mxCell>
        <mxCell id="nbHJa0xWLCRpVppI_XhF-117" value="&lt;font style=&quot;font-size: 13px;&quot;&gt;z&lt;/font&gt;" style="text;html=1;strokeColor=none;fillColor=none;align=center;verticalAlign=bottom;whiteSpace=wrap;rounded=0;dashed=1;strokeWidth=0.3;rotation=0;connectable=0;allowArrows=0;spacing=0;fontColor=#808080;fontSize=13;fontFamily=Calibri Light;" parent="1" vertex="1">
          <mxGeometry x="66" y="328" width="20" height="10" as="geometry" />
        </mxCell>
        <mxCell id="nbHJa0xWLCRpVppI_XhF-120" value="" style="endArrow=classic;startArrow=classic;html=1;rounded=0;strokeColor=#808080;strokeWidth=0.5;endSize=3;startSize=3;fontColor=#808080;" parent="1" edge="1">
          <mxGeometry width="50" height="50" relative="1" as="geometry">
            <mxPoint x="62" y="200" as="sourcePoint" />
            <mxPoint x="138" y="200" as="targetPoint" />
          </mxGeometry>
        </mxCell>
        <mxCell id="nbHJa0xWLCRpVppI_XhF-121" value="" style="endArrow=classic;startArrow=classic;html=1;rounded=0;strokeColor=#808080;strokeWidth=0.5;endSize=3;startSize=3;fontColor=#808080;" parent="1" edge="1">
          <mxGeometry width="50" height="50" relative="1" as="geometry">
            <mxPoint x="142" y="199" as="sourcePoint" />
            <mxPoint x="158" y="191" as="targetPoint" />
          </mxGeometry>
        </mxCell>
        <mxCell id="nbHJa0xWLCRpVppI_XhF-122" value="" style="endArrow=none;html=1;rounded=0;strokeColor=#000000;strokeWidth=7;fontSize=12;fontColor=#000000;" parent="1" edge="1">
          <mxGeometry width="50" height="50" relative="1" as="geometry">
            <mxPoint x="11.25" y="348.23" as="sourcePoint" />
            <mxPoint x="438.75" y="348.23" as="targetPoint" />
          </mxGeometry>
        </mxCell>
        <mxCell id="nbHJa0xWLCRpVppI_XhF-123" value="0" style="text;html=1;strokeColor=none;fillColor=none;align=center;verticalAlign=middle;whiteSpace=wrap;rounded=0;fontSize=8;fontColor=#66B2FF;connectable=0;allowArrows=0;" parent="1" vertex="1">
          <mxGeometry x="257.25" y="618.75" width="10" height="10" as="geometry" />
        </mxCell>
        <mxCell id="nbHJa0xWLCRpVppI_XhF-124" value="1" style="text;html=1;strokeColor=none;fillColor=none;align=center;verticalAlign=middle;whiteSpace=wrap;rounded=0;fontSize=8;fontColor=#66B2FF;connectable=0;allowArrows=0;" parent="1" vertex="1">
          <mxGeometry x="269.75" y="630.5" width="10" height="10" as="geometry" />
        </mxCell>
        <mxCell id="nbHJa0xWLCRpVppI_XhF-125" value="8" style="text;html=1;strokeColor=none;fillColor=none;align=center;verticalAlign=middle;whiteSpace=wrap;rounded=0;fontSize=8;fontColor=#66B2FF;connectable=0;allowArrows=0;" parent="1" vertex="1">
          <mxGeometry x="287.25" y="601.23" width="10" height="10" as="geometry" />
        </mxCell>
        <mxCell id="nbHJa0xWLCRpVppI_XhF-126" value="9" style="text;html=1;strokeColor=none;fillColor=none;align=center;verticalAlign=middle;whiteSpace=wrap;rounded=0;fontSize=8;fontColor=#66B2FF;connectable=0;allowArrows=0;" parent="1" vertex="1">
          <mxGeometry x="294.75" y="611.23" width="10" height="10" as="geometry" />
        </mxCell>
        <mxCell id="nbHJa0xWLCRpVppI_XhF-127" value="2" style="text;html=1;strokeColor=none;fillColor=none;align=center;verticalAlign=middle;whiteSpace=wrap;rounded=0;fontSize=8;fontColor=#66B2FF;connectable=0;allowArrows=0;" parent="1" vertex="1">
          <mxGeometry x="304.75" y="630.5" width="10" height="10" as="geometry" />
        </mxCell>
        <mxCell id="nbHJa0xWLCRpVppI_XhF-128" value="10" style="text;html=1;strokeColor=none;fillColor=none;align=center;verticalAlign=middle;whiteSpace=wrap;rounded=0;fontSize=8;fontColor=#66B2FF;connectable=0;allowArrows=0;" parent="1" vertex="1">
          <mxGeometry x="324.75" y="620.5" width="10" height="10" as="geometry" />
        </mxCell>
        <mxCell id="nbHJa0xWLCRpVppI_XhF-129" value="3" style="text;html=1;strokeColor=none;fillColor=none;align=center;verticalAlign=middle;whiteSpace=wrap;rounded=0;fontSize=8;fontColor=#66B2FF;connectable=0;allowArrows=0;" parent="1" vertex="1">
          <mxGeometry x="337.25" y="582.5" width="10" height="10" as="geometry" />
        </mxCell>
        <mxCell id="nbHJa0xWLCRpVppI_XhF-130" value="11" style="text;html=1;strokeColor=none;fillColor=none;align=center;verticalAlign=middle;whiteSpace=wrap;rounded=0;fontSize=8;fontColor=#66B2FF;connectable=0;allowArrows=0;" parent="1" vertex="1">
          <mxGeometry x="367.75" y="578.5" width="10" height="10" as="geometry" />
        </mxCell>
        <mxCell id="nbHJa0xWLCRpVppI_XhF-131" value="7" style="text;html=1;strokeColor=none;fillColor=none;align=center;verticalAlign=middle;whiteSpace=wrap;rounded=0;fontSize=8;fontColor=#66B2FF;connectable=0;allowArrows=0;" parent="1" vertex="1">
          <mxGeometry x="259" y="394.89" width="10" height="10" as="geometry" />
        </mxCell>
        <mxCell id="nbHJa0xWLCRpVppI_XhF-132" value="6" style="text;html=1;strokeColor=none;fillColor=none;align=center;verticalAlign=middle;whiteSpace=wrap;rounded=0;fontSize=8;fontColor=#66B2FF;connectable=0;allowArrows=0;" parent="1" vertex="1">
          <mxGeometry x="269" y="380" width="10" height="10" as="geometry" />
        </mxCell>
        <mxCell id="nbHJa0xWLCRpVppI_XhF-133" value="14" style="text;html=1;strokeColor=none;fillColor=none;align=center;verticalAlign=middle;whiteSpace=wrap;rounded=0;fontSize=8;fontColor=#66B2FF;connectable=0;allowArrows=0;" parent="1" vertex="1">
          <mxGeometry x="291.5" y="370" width="10" height="10" as="geometry" />
        </mxCell>
        <mxCell id="nbHJa0xWLCRpVppI_XhF-134" value="15" style="text;html=1;strokeColor=none;fillColor=none;align=center;verticalAlign=middle;whiteSpace=wrap;rounded=0;fontSize=8;fontColor=#66B2FF;connectable=0;allowArrows=0;" parent="1" vertex="1">
          <mxGeometry x="289" y="390" width="10" height="10" as="geometry" />
        </mxCell>
        <mxCell id="nbHJa0xWLCRpVppI_XhF-135" value="5" style="text;html=1;strokeColor=none;fillColor=none;align=center;verticalAlign=middle;whiteSpace=wrap;rounded=0;fontSize=8;fontColor=#66B2FF;connectable=0;allowArrows=0;" parent="1" vertex="1">
          <mxGeometry x="329" y="390.25" width="10" height="10" as="geometry" />
        </mxCell>
        <mxCell id="nbHJa0xWLCRpVppI_XhF-136" value="13" style="text;html=1;strokeColor=none;fillColor=none;align=center;verticalAlign=middle;whiteSpace=wrap;rounded=0;fontSize=8;fontColor=#66B2FF;connectable=0;allowArrows=0;" parent="1" vertex="1">
          <mxGeometry x="357" y="369" width="10" height="10" as="geometry" />
        </mxCell>
        <mxCell id="nbHJa0xWLCRpVppI_XhF-137" value="4" style="text;html=1;strokeColor=none;fillColor=none;align=center;verticalAlign=middle;whiteSpace=wrap;rounded=0;fontSize=8;fontColor=#66B2FF;connectable=0;allowArrows=0;" parent="1" vertex="1">
          <mxGeometry x="339" y="398" width="10" height="10" as="geometry" />
        </mxCell>
        <mxCell id="nbHJa0xWLCRpVppI_XhF-138" value="12" style="text;html=1;strokeColor=none;fillColor=none;align=center;verticalAlign=middle;whiteSpace=wrap;rounded=0;fontSize=8;fontColor=#66B2FF;connectable=0;allowArrows=0;" parent="1" vertex="1">
          <mxGeometry x="370" y="383" width="10" height="10" as="geometry" />
        </mxCell>
        <mxCell id="YRXxGtV2YS8mq-nOVd_1-1" value="" style="endArrow=none;html=1;rounded=0;strokeWidth=2;" parent="1" edge="1">
          <mxGeometry width="50" height="50" relative="1" as="geometry">
            <mxPoint x="60" y="200" as="sourcePoint" />
            <mxPoint x="60" y="200" as="targetPoint" />
            <Array as="points">
              <mxPoint x="60" y="90" />
              <mxPoint x="70" y="80" />
              <mxPoint x="100" y="80" />
              <mxPoint x="140" y="120" />
              <mxPoint x="140" y="280" />
              <mxPoint x="100" y="320" />
              <mxPoint x="70" y="320" />
              <mxPoint x="60" y="310" />
            </Array>
          </mxGeometry>
        </mxCell>
        <mxCell id="apMzWFZD18qqaegMELvQ-1" value="&lt;font style=&quot;font-size: 13px;&quot;&gt;thickness&lt;/font&gt;" style="text;html=1;strokeColor=none;fillColor=none;align=left;verticalAlign=middle;whiteSpace=wrap;rounded=0;dashed=1;strokeWidth=0.3;rotation=0;connectable=0;allowArrows=0;fontSize=13;fontFamily=Calibri Light;fontColor=#808080;" vertex="1" parent="1">
          <mxGeometry x="282" y="199" width="60" height="20" as="geometry" />
        </mxCell>
        <mxCell id="apMzWFZD18qqaegMELvQ-2" value="&lt;font style=&quot;font-size: 13px;&quot;&gt;width&lt;/font&gt;" style="text;html=1;strokeColor=none;fillColor=none;align=left;verticalAlign=middle;whiteSpace=wrap;rounded=0;dashed=1;strokeWidth=0.3;rotation=0;connectable=0;allowArrows=0;fontSize=13;fontFamily=Calibri Light;fontColor=#808080;" vertex="1" parent="1">
          <mxGeometry x="374" y="181" width="32" height="20" as="geometry" />
        </mxCell>
        <mxCell id="apMzWFZD18qqaegMELvQ-3" value="" style="endArrow=classic;startArrow=classic;html=1;rounded=0;strokeColor=#808080;strokeWidth=0.5;endSize=3;startSize=3;fontColor=#808080;" edge="1" parent="1">
          <mxGeometry width="50" height="50" relative="1" as="geometry">
            <mxPoint x="260" y="320" as="sourcePoint" />
            <mxPoint x="259" y="80" as="targetPoint" />
          </mxGeometry>
        </mxCell>
        <mxCell id="apMzWFZD18qqaegMELvQ-4" value="&lt;font style=&quot;font-size: 13px;&quot;&gt;length&lt;/font&gt;" style="text;html=1;strokeColor=none;fillColor=none;align=left;verticalAlign=middle;whiteSpace=wrap;rounded=0;dashed=1;strokeWidth=0.3;rotation=-90;connectable=0;allowArrows=0;fontSize=13;fontFamily=Calibri Light;fontColor=#808080;" vertex="1" parent="1">
          <mxGeometry x="227" y="185" width="39" height="20" as="geometry" />
        </mxCell>
        <mxCell id="apMzWFZD18qqaegMELvQ-5" value="" style="group;dropTarget=0;" vertex="1" connectable="0" parent="1">
          <mxGeometry x="292" y="264" width="80" height="69" as="geometry" />
        </mxCell>
        <mxCell id="apMzWFZD18qqaegMELvQ-6" value="" style="endArrow=classic;startArrow=oval;html=1;rounded=0;strokeColor=#808080;strokeWidth=0.5;startFill=1;endSize=3;startSize=3;" edge="1" parent="apMzWFZD18qqaegMELvQ-5">
          <mxGeometry width="50" height="50" relative="1" as="geometry">
            <mxPoint x="30" y="50" as="sourcePoint" />
            <mxPoint x="30" y="10" as="targetPoint" />
          </mxGeometry>
        </mxCell>
        <mxCell id="apMzWFZD18qqaegMELvQ-7" value="" style="endArrow=classic;startArrow=oval;html=1;rounded=0;strokeColor=#808080;strokeWidth=0.5;startFill=1;endSize=3;startSize=6;" edge="1" parent="apMzWFZD18qqaegMELvQ-5">
          <mxGeometry width="50" height="50" relative="1" as="geometry">
            <mxPoint x="30" y="50" as="sourcePoint" />
            <mxPoint x="70" y="50" as="targetPoint" />
          </mxGeometry>
        </mxCell>
        <mxCell id="apMzWFZD18qqaegMELvQ-8" value="" style="endArrow=classic;startArrow=oval;html=1;rounded=0;strokeColor=#808080;strokeWidth=0.5;startFill=1;endSize=3;startSize=3;" edge="1" parent="apMzWFZD18qqaegMELvQ-5">
          <mxGeometry width="50" height="50" relative="1" as="geometry">
            <mxPoint x="30" y="50" as="sourcePoint" />
            <mxPoint x="-2" y="66" as="targetPoint" />
          </mxGeometry>
        </mxCell>
        <mxCell id="apMzWFZD18qqaegMELvQ-9" value="&lt;font style=&quot;font-size: 13px;&quot;&gt;y&lt;/font&gt;" style="text;html=1;strokeColor=none;fillColor=none;align=center;verticalAlign=bottom;whiteSpace=wrap;rounded=0;dashed=1;strokeWidth=0.3;rotation=0;connectable=0;allowArrows=0;spacing=0;fontColor=#808080;fontSize=13;fontFamily=Calibri Light;" vertex="1" parent="apMzWFZD18qqaegMELvQ-5">
          <mxGeometry x="20" width="20" height="10" as="geometry" />
        </mxCell>
        <mxCell id="apMzWFZD18qqaegMELvQ-10" value="&lt;font style=&quot;font-size: 13px;&quot;&gt;x&lt;/font&gt;" style="text;html=1;strokeColor=none;fillColor=none;align=center;verticalAlign=bottom;whiteSpace=wrap;rounded=0;dashed=1;strokeWidth=0.3;rotation=0;connectable=0;allowArrows=0;spacing=0;fontColor=#808080;fontSize=13;fontFamily=Calibri Light;" vertex="1" parent="apMzWFZD18qqaegMELvQ-5">
          <mxGeometry x="64" y="47" width="20" height="10" as="geometry" />
        </mxCell>
        <mxCell id="apMzWFZD18qqaegMELvQ-11" value="" style="endArrow=classic;startArrow=classic;html=1;rounded=0;strokeColor=#808080;strokeWidth=0.5;endSize=3;startSize=3;fontColor=#808080;" edge="1" parent="1">
          <mxGeometry width="50" height="50" relative="1" as="geometry">
            <mxPoint x="272" y="200" as="sourcePoint" />
            <mxPoint x="348" y="200" as="targetPoint" />
          </mxGeometry>
        </mxCell>
        <mxCell id="apMzWFZD18qqaegMELvQ-12" value="" style="endArrow=classic;startArrow=classic;html=1;rounded=0;strokeColor=#808080;strokeWidth=0.5;endSize=3;startSize=3;fontColor=#808080;" edge="1" parent="1">
          <mxGeometry width="50" height="50" relative="1" as="geometry">
            <mxPoint x="352" y="199" as="sourcePoint" />
            <mxPoint x="368" y="191" as="targetPoint" />
          </mxGeometry>
        </mxCell>
        <mxCell id="YRXxGtV2YS8mq-nOVd_1-58" value="" style="endArrow=none;html=1;rounded=0;strokeWidth=2;" parent="1" edge="1">
          <mxGeometry width="50" height="50" relative="1" as="geometry">
            <mxPoint x="270.0000000000001" y="200" as="sourcePoint" />
            <mxPoint x="270.0000000000001" y="200" as="targetPoint" />
            <Array as="points">
              <mxPoint x="270" y="90" />
              <mxPoint x="280" y="80" />
              <mxPoint x="340" y="80" />
              <mxPoint x="350" y="90" />
              <mxPoint x="350" y="280" />
              <mxPoint x="310" y="320" />
              <mxPoint x="280" y="320" />
              <mxPoint x="270" y="310" />
            </Array>
          </mxGeometry>
        </mxCell>
      </root>
    </mxGraphModel>
  </diagram>
</mxfile>
